<svg width="1200" height="200" viewBox="0 0 1200 200" fill="none" xmlns="http://www.w3.org/2000/svg">
<g clip-path="url(#clip0_6180_19773)">
<rect width="1200" height="462" transform="translate(0 -68)" fill="#E3E5EC"/>
<path fill-rule="evenodd" clip-rule="evenodd" d="M942.401 59.4631C938.897 54.3525 933.016 51 926.352 51C915.613 51 906.908 59.7054 906.908 70.4441C906.908 71.8957 907.067 73.3102 907.369 74.6711H905.217C896.813 74.6711 890 81.484 890 89.8882C890 98.2923 896.813 105.105 905.217 105.105H971.158C979.562 105.105 986.375 98.2923 986.375 89.8882C986.375 81.484 979.562 74.6711 971.158 74.6711H969.384C969.439 74.1149 969.467 73.5509 969.467 72.9803C969.467 63.6423 961.897 56.0724 952.559 56.0724C948.747 56.0724 945.229 57.3342 942.401 59.4631Z" fill="#CFD2DA"/>
<path d="M1159.56 142.318C1159.64 141.828 1159.26 141.388 1158.76 141.388H1118.43C1117.93 141.388 1117.55 141.828 1117.62 142.318L1119.23 153.225C1119.46 154.819 1120.83 156 1122.44 156H1154.75C1156.36 156 1157.73 154.819 1157.96 153.225L1159.56 142.318Z" fill="#CFD2DA"/>
<path d="M1098.62 144.026C1098.52 144.385 1098.2 144.635 1097.83 144.635H1076.61C1075.53 144.635 1074.75 143.608 1075.04 142.573L1079.5 126.71C1079.89 125.309 1081.17 124.341 1082.63 124.341H1099.5C1101.62 124.341 1103.17 126.343 1102.64 128.398L1098.62 144.026Z" fill="#8F95A8"/>
<path d="M1098.62 87.6093C1098.52 87.2507 1098.2 87 1097.83 87H1076.61C1075.53 87 1074.75 88.0271 1075.04 89.0627L1079.5 104.925C1079.89 106.326 1081.17 107.294 1082.63 107.294H1099.5C1101.62 107.294 1103.17 105.292 1102.64 103.237L1098.62 87.6093Z" fill="#8F95A8"/>
<path d="M1070 115.818C1070 131.285 1100.83 143.823 1144.68 143.823C1166.62 143.823 1189.73 134.532 1189.73 115.818C1189.73 97.1034 1166.62 87.8118 1144.68 87.8118C1100.83 87.8118 1070 100.35 1070 115.818Z" fill="#B5BAC7"/>
<path fill-rule="evenodd" clip-rule="evenodd" d="M1078.83 123.165C1075.9 120.413 1074.87 117.929 1074.87 115.818C1074.87 113.706 1075.9 111.223 1078.83 108.471C1081.79 105.697 1086.39 102.962 1092.64 100.561C1105.11 95.7689 1123.15 92.6824 1144.68 92.6824C1155.06 92.6824 1165.47 94.8971 1173.1 99.0697C1180.67 103.214 1184.86 108.846 1184.86 115.818C1184.86 122.789 1180.67 128.421 1173.1 132.566C1165.47 136.738 1155.06 138.953 1144.68 138.953C1123.15 138.953 1105.11 135.866 1092.64 131.074C1086.39 128.673 1081.79 125.939 1078.83 123.165ZM1144.68 143.823C1100.83 143.823 1070 131.285 1070 115.818C1070 100.35 1100.83 87.8118 1144.68 87.8118C1166.62 87.8118 1189.73 97.1034 1189.73 115.818C1189.73 134.532 1166.62 143.823 1144.68 143.823Z" fill="#B5BAC7"/>
<path d="M1070 115.818C1070 122.767 1100.83 128.4 1144.68 128.4C1166.62 128.4 1189.73 124.225 1189.73 115.818C1189.73 107.41 1166.62 103.235 1144.68 103.235C1100.83 103.235 1070 108.869 1070 115.818Z" fill="#CFD2DA"/>
<path d="M1146.71 149.506C1146.71 151.299 1148.16 152.753 1149.96 152.753C1151.75 152.753 1153.2 151.299 1153.2 149.506C1153.2 147.713 1151.75 146.259 1149.96 146.259C1148.16 146.259 1146.71 147.713 1146.71 149.506Z" fill="#B5BAC7"/>
<path d="M1135.35 149.506C1135.35 151.299 1136.8 152.753 1138.59 152.753C1140.39 152.753 1141.84 151.299 1141.84 149.506C1141.84 147.713 1140.39 146.259 1138.59 146.259C1136.8 146.259 1135.35 147.713 1135.35 149.506Z" fill="#B5BAC7"/>
<path d="M1123.98 149.506C1123.98 151.299 1125.44 152.753 1127.23 152.753C1129.02 152.753 1130.48 151.299 1130.48 149.506C1130.48 147.713 1129.02 146.259 1127.23 146.259C1125.44 146.259 1123.98 147.713 1123.98 149.506Z" fill="#B5BAC7"/>
<path fill-rule="evenodd" clip-rule="evenodd" d="M1173.25 137.953C1170.78 130.897 1169.44 123.311 1169.44 115.412C1169.44 107.772 1170.7 100.426 1173.01 93.5687C1182.84 98.1899 1189.73 105.599 1189.73 115.818C1189.73 125.953 1182.95 133.324 1173.25 137.953Z" fill="#8F95A8"/>
<path d="M51.3349 96.3368C51.2472 95.74 51.7098 95.2045 52.313 95.2045H101.433C102.036 95.2045 102.499 95.74 102.411 96.3368L100.46 109.62C100.175 111.561 98.5095 113 96.5475 113H57.1987C55.2366 113 53.5713 111.561 53.2861 109.62L51.3349 96.3368Z" fill="#CFD2DA"/>
<path d="M125.557 98.4171C125.669 98.8539 126.063 99.1592 126.514 99.1592H152.363C153.673 99.1592 154.621 97.9083 154.267 96.6471L148.839 77.3282C148.359 75.6222 146.804 74.4433 145.032 74.4433H124.484C121.9 74.4433 120.01 76.8816 120.654 79.3842L125.557 98.4171Z" fill="#8F95A8"/>
<path d="M125.557 29.7081C125.669 29.2713 126.063 28.9661 126.514 28.9661H152.363C153.673 28.9661 154.621 30.217 154.267 31.4782L148.839 50.7971C148.359 52.5031 146.804 53.6819 145.032 53.6819H124.484C121.9 53.6819 120.01 51.2437 120.654 48.741L125.557 29.7081Z" fill="#8F95A8"/>
<path d="M160.411 64.0625C160.411 82.8997 122.863 98.1703 69.4571 98.1703C42.7398 98.1703 14.5879 86.8543 14.5879 64.0625C14.5879 41.2707 42.7398 29.9546 69.4571 29.9546C122.863 29.9546 160.411 45.2252 160.411 64.0625Z" fill="#B5BAC7"/>
<path fill-rule="evenodd" clip-rule="evenodd" d="M149.654 73.0104C153.231 69.6586 154.48 66.6344 154.48 64.0625C154.48 61.4905 153.231 58.4663 149.654 55.1145C146.049 51.7364 140.444 48.4059 132.834 45.4816C117.646 39.6455 95.6769 35.8864 69.4571 35.8864C56.8132 35.8864 44.1387 38.5836 34.8507 43.6654C25.6258 48.7127 20.5197 55.5721 20.5197 64.0625C20.5197 72.5529 25.6258 79.4122 34.8507 84.4595C44.1387 89.5413 56.8132 92.2385 69.4571 92.2385C95.6769 92.2385 117.646 88.4795 132.834 82.6433C140.444 79.7191 146.049 76.3885 149.654 73.0104ZM69.4571 98.1703C122.863 98.1703 160.411 82.8997 160.411 64.0625C160.411 45.2252 122.863 29.9546 69.4571 29.9546C42.7398 29.9546 14.5879 41.2707 14.5879 64.0625C14.5879 86.8543 42.7398 98.1703 69.4571 98.1703Z" fill="#B5BAC7"/>
<path d="M160.411 64.0626C160.411 72.5257 122.863 79.3864 69.4571 79.3864C42.7398 79.3864 14.5879 74.3024 14.5879 64.0626C14.5879 53.8228 42.7398 48.7388 69.4571 48.7388C122.863 48.7388 160.411 55.5995 160.411 64.0626Z" fill="#CFD2DA"/>
<path d="M66.9872 105.091C66.9872 107.275 65.2167 109.046 63.0327 109.046C60.8486 109.046 59.0781 107.275 59.0781 105.091C59.0781 102.907 60.8486 101.136 63.0327 101.136C65.2167 101.136 66.9872 102.907 66.9872 105.091Z" fill="#B5BAC7"/>
<path d="M80.8251 105.091C80.8251 107.275 79.0546 109.046 76.8706 109.046C74.6865 109.046 72.916 107.275 72.916 105.091C72.916 102.907 74.6865 101.136 76.8706 101.136C79.0546 101.136 80.8251 102.907 80.8251 105.091Z" fill="#B5BAC7"/>
<path d="M94.6669 105.091C94.6669 107.275 92.8964 109.046 90.7123 109.046C88.5283 109.046 86.7578 107.275 86.7578 105.091C86.7578 102.907 88.5283 101.136 90.7123 101.136C92.8964 101.136 94.6669 102.907 94.6669 105.091Z" fill="#B5BAC7"/>
<path fill-rule="evenodd" clip-rule="evenodd" d="M34.6591 91.0203C37.6679 82.427 39.3037 73.1886 39.3037 63.5682C39.3037 54.264 37.7737 45.3173 34.9514 36.9658C22.9813 42.5939 14.5879 51.6174 14.5879 64.0623C14.5879 76.4057 22.8448 85.3832 34.6591 91.0203Z" fill="#8F95A8"/>
<path d="M807.364 33.3342C807.329 33.1009 807.51 32.8916 807.746 32.8916H826.946C827.182 32.8916 827.363 33.1009 827.328 33.3342L826.566 38.5264C826.454 39.2852 825.803 39.8475 825.036 39.8475H809.656C808.889 39.8475 808.238 39.2852 808.126 38.5264L807.364 33.3342Z" fill="#CFD2DA"/>
<path d="M836.376 34.1472C836.42 34.3179 836.574 34.4373 836.75 34.4373H846.854C847.366 34.4373 847.737 33.9483 847.598 33.4553L845.477 25.9039C845.289 25.237 844.681 24.7762 843.988 24.7762H835.957C834.947 24.7762 834.208 25.7293 834.46 26.7075L836.376 34.1472Z" fill="#8F95A8"/>
<path d="M836.376 7.29005C836.42 7.11932 836.574 7 836.75 7H846.854C847.366 7 847.737 7.48896 847.598 7.98195L845.477 15.5334C845.289 16.2002 844.681 16.661 843.988 16.661H835.957C834.947 16.661 834.208 15.7079 834.46 14.7297L836.376 7.29005Z" fill="#8F95A8"/>
<path d="M850 20.7187C850 28.0819 835.323 34.0509 814.447 34.0509C804.004 34.0509 793 29.6276 793 20.7187C793 11.8097 804.004 7.38647 814.447 7.38647C835.323 7.38647 850 13.3555 850 20.7187Z" fill="#B5BAC7"/>
<path fill-rule="evenodd" clip-rule="evenodd" d="M845.795 24.2163C847.193 22.9061 847.681 21.724 847.681 20.7187C847.681 19.7134 847.193 18.5312 845.795 17.2211C844.386 15.9006 842.195 14.5988 839.22 13.4557C833.284 11.1745 824.696 9.70512 814.447 9.70512C809.505 9.70512 804.551 10.7594 800.92 12.7458C797.315 14.7187 795.319 17.3999 795.319 20.7187C795.319 24.0374 797.315 26.7186 800.92 28.6915C804.551 30.6779 809.505 31.7322 814.447 31.7322C824.696 31.7322 833.284 30.2629 839.22 27.9816C842.195 26.8386 844.386 25.5367 845.795 24.2163ZM814.447 34.0509C835.323 34.0509 850 28.0819 850 20.7187C850 13.3555 835.323 7.38647 814.447 7.38647C804.004 7.38647 793 11.8097 793 20.7187C793 29.6276 804.004 34.0509 814.447 34.0509Z" fill="#B5BAC7"/>
<path d="M850 20.7186C850 24.0267 835.323 26.7084 814.447 26.7084C804.004 26.7084 793 24.7212 793 20.7186C793 16.716 804.004 14.7288 814.447 14.7288C835.323 14.7288 850 17.4105 850 20.7186Z" fill="#CFD2DA"/>
<path d="M813.482 36.7557C813.482 37.6094 812.79 38.3015 811.936 38.3015C811.083 38.3015 810.391 37.6094 810.391 36.7557C810.391 35.902 811.083 35.21 811.936 35.21C812.79 35.21 813.482 35.902 813.482 36.7557Z" fill="#B5BAC7"/>
<path d="M818.892 36.7557C818.892 37.6094 818.2 38.3015 817.347 38.3015C816.493 38.3015 815.801 37.6094 815.801 36.7557C815.801 35.902 816.493 35.21 817.347 35.21C818.2 35.21 818.892 35.902 818.892 36.7557Z" fill="#B5BAC7"/>
<path d="M824.302 36.7557C824.302 37.6094 823.61 38.3015 822.757 38.3015C821.903 38.3015 821.211 37.6094 821.211 36.7557C821.211 35.902 821.903 35.21 822.757 35.21C823.61 35.21 824.302 35.902 824.302 36.7557Z" fill="#B5BAC7"/>
<path fill-rule="evenodd" clip-rule="evenodd" d="M800.845 31.256C802.022 27.897 802.661 24.2858 802.661 20.5254C802.661 16.8885 802.063 13.3914 800.96 10.127C796.281 12.3269 793 15.854 793 20.7185C793 25.5433 796.227 29.0525 800.845 31.256Z" fill="#8F95A8"/>
<path d="M522.562 147.347C527.838 143.829 535.752 143.316 540.148 144.049C554.217 140.532 575.687 145.881 581.917 149.545C584.481 163.101 581.918 150.644 589.611 171.528C597.303 192.412 594.007 251.767 594.007 258.362C594.007 264.957 589.611 242.974 580.817 249.569C572.024 256.164 570.925 253.965 561.031 247.37C551.615 241.093 522.564 263.858 533.551 244.073C543.577 226.019 515.967 151.743 522.562 147.347Z" fill="#B5BAC7"/>
<ellipse cx="552.286" cy="110.706" rx="25.3248" ry="26.38" fill="#CFD2DA"/>
<path d="M577.523 107.777C577.523 107.777 555.327 104.911 546.533 104.112C537.739 103.312 526.531 101.913 521.25 93.1197C508.006 71.0681 540.924 77.1292 554.227 79.9299C575.11 84.3264 576.425 97.8842 577.523 107.777Z" fill="#B5BAC7"/>
<circle cx="546.745" cy="112.905" r="1.69833" fill="#8F95A8" stroke="#8F95A8"/>
<circle cx="559.937" cy="112.905" r="1.69833" fill="#8F95A8" stroke="#8F95A8"/>
<path d="M548.945 123.896C550.411 126.827 556.273 126.827 557.739 123.896" stroke="#8F95A8" stroke-linecap="round"/>
<path d="M546.742 129.76H559.932L564.329 145.148H542.346L546.742 129.76Z" fill="#CFD2DA"/>
<path d="M540.15 142.95H566.53V156.338C566.53 157.443 565.635 158.338 564.53 158.338H542.15C541.046 158.338 540.15 157.443 540.15 156.338V142.95Z" fill="#CFD2DA"/>
<path fill-rule="evenodd" clip-rule="evenodd" d="M541.051 142.95C532.99 143.316 520.168 144.404 515.769 152.842C510.689 162.589 515.772 196.809 525.663 196.809C527.903 196.809 530.02 196.551 532.044 196.126C531.688 197.402 531.268 198.704 530.826 200.078C527.973 208.936 524.166 220.756 530.082 247.371C531.485 253.681 532.066 258.036 532.645 262.386L532.645 262.386C532.841 263.857 533.037 265.328 533.265 266.873C534.67 276.415 538.493 282.777 539.604 282.82C541.602 282.898 546.412 265.309 550.048 252.011L550.048 252.011C551.617 246.271 552.968 241.33 553.78 238.955C553.885 238.555 553.988 238.154 554.088 237.754C554.347 238.884 554.625 240.019 554.923 241.153C555.735 243.528 557.086 248.468 558.655 254.208L558.656 254.209L558.656 254.209C562.292 267.507 567.101 285.096 569.099 285.018C570.21 284.975 574.033 278.613 575.438 269.071C575.666 267.526 575.862 266.055 576.058 264.584L576.058 264.584C576.638 260.234 577.218 255.88 578.621 249.569C584.537 222.954 580.731 211.134 577.878 202.277C577.259 200.355 576.685 198.572 576.265 196.809L576.186 196.816L576.154 196.366C577.98 196.648 579.83 196.809 581.72 196.809C591.612 196.809 597.109 159.437 590.514 152.842C584.547 146.875 571.094 142.95 565.232 142.95C565.232 142.95 564.336 146.984 561.112 149.9C559.287 151.55 556.717 152.842 553.141 152.842C543.249 152.842 541.051 142.95 541.051 142.95Z" fill="#8F95A8"/>
<path d="M529.157 162.854L532.457 182.52" stroke="#69738C" stroke-width="0.5" stroke-linecap="round"/>
<path d="M530.26 196.809C530.26 196.809 544.549 195.71 555.541 192.412" stroke="#69738C" stroke-width="0.5" stroke-linecap="round"/>
<path d="M576.426 196.809C576.426 196.809 541.253 190.214 533.558 184.718" stroke="#69738C" stroke-width="0.5" stroke-linecap="round"/>
<path d="M566.531 181.421L577.523 178.123V183.619L569.829 182.52L566.531 181.421Z" fill="#CFD2DA"/>
<path d="M536.852 177.024L531.356 175.925L532.455 182.52L533.554 184.718L536.852 177.024Z" fill="#CFD2DA"/>
<path d="M578.619 163.834L577.52 183.619" stroke="#69738C" stroke-width="0.5" stroke-linecap="round"/>
<path d="M577.525 183.619C577.525 183.619 542.352 178.123 536.856 177.024L533.559 184.718" stroke="#69738C" stroke-width="0.5" stroke-linecap="round" stroke-linejoin="round"/>
<path d="M532.458 151.743C531.579 151.743 526.962 147.347 525.863 145.148C525.863 144.049 543.45 141.851 541.252 142.95C540.681 143.235 542.351 146.247 544.549 149.545L544.53 149.548C539.041 150.646 533.556 151.743 532.458 151.743Z" fill="#B5BAC7"/>
<path d="M574.226 152.043C575.105 152.043 580.822 147.047 579.724 146.247C576.424 144.049 562.135 141.851 564.334 142.95C564.904 143.235 563.234 146.247 561.036 149.545C566.532 150.644 573.127 152.043 574.226 152.043Z" fill="#B5BAC7"/>
<path d="M431.79 147.346C437.066 143.828 444.98 143.316 449.377 144.048C463.445 140.531 484.916 145.88 491.145 149.544C493.71 163.1 491.147 150.643 498.839 171.527C506.532 192.412 503.236 251.766 503.236 258.361C503.236 264.956 498.839 242.973 490.046 249.568C481.253 256.163 480.153 253.965 470.26 247.37C460.844 241.093 431.793 263.857 442.779 244.072C452.805 226.018 425.195 151.742 431.79 147.346Z" fill="#8F95A8"/>
<ellipse cx="461.514" cy="110.705" rx="25.3248" ry="26.38" fill="#B5BAC7"/>
<circle cx="455.976" cy="112.904" r="1.69833" fill="#8F95A8" stroke="#8F95A8"/>
<circle cx="469.165" cy="112.904" r="1.69833" fill="#8F95A8" stroke="#8F95A8"/>
<path d="M458.172 123.896C459.637 126.827 465.5 126.827 466.965 123.896" stroke="#8F95A8" stroke-linecap="round"/>
<path d="M485.655 104.478C483.456 104.478 474.663 105.577 461.474 101.18C448.283 105.577 440.587 104.478 437.292 104.478C435.059 104.478 438.931 83.5938 461.474 83.5938C481.258 83.5938 487.853 104.478 485.655 104.478Z" fill="#CFD2DA"/>
<path d="M455.975 129.759H469.165L473.561 145.147H451.578L455.975 129.759Z" fill="#B5BAC7"/>
<path d="M449.377 142.949H475.757V156.338C475.757 157.442 474.861 158.338 473.757 158.338H451.377C450.272 158.338 449.377 157.442 449.377 156.338V142.949Z" fill="#B5BAC7"/>
<path fill-rule="evenodd" clip-rule="evenodd" d="M450.279 142.949C442.219 143.315 429.397 144.403 424.998 152.842C419.917 162.589 425 196.808 434.891 196.808C437.132 196.808 439.251 196.549 441.276 196.125C440.919 197.401 440.5 198.703 440.057 200.078C437.205 208.935 433.398 220.755 439.314 247.37C440.717 253.681 441.297 258.035 441.877 262.385C442.073 263.856 442.269 265.327 442.497 266.872C443.902 276.414 447.725 282.776 448.836 282.819C450.834 282.897 455.643 265.308 459.279 252.01L459.279 252.01C460.849 246.27 462.2 241.329 463.012 238.954C463.116 238.556 463.218 238.158 463.318 237.76C463.577 238.888 463.854 240.02 464.152 241.153C464.964 243.527 466.314 248.468 467.884 254.208L467.884 254.208L467.884 254.208C471.52 267.506 476.33 285.096 478.328 285.018C479.439 284.974 483.261 278.613 484.667 269.071C484.895 267.525 485.091 266.055 485.287 264.584C485.866 260.233 486.447 255.879 487.849 249.568C493.766 222.953 489.959 211.133 487.106 202.276L487.106 202.276C486.487 200.354 485.913 198.572 485.493 196.808L485.415 196.816L485.383 196.365C487.208 196.648 489.058 196.808 490.949 196.808C500.84 196.808 506.337 159.437 499.742 152.842C493.775 146.874 480.323 142.949 474.46 142.949C474.46 142.949 473.564 146.983 470.34 149.899C468.516 151.549 465.945 152.842 462.37 152.842C452.477 152.842 450.279 142.949 450.279 142.949Z" fill="#CFD2DA"/>
<path d="M438.386 162.854L441.685 182.519" stroke="#B5BAC7" stroke-width="0.5" stroke-linecap="round"/>
<path d="M439.48 196.809C439.48 196.809 453.77 195.709 464.761 192.412" stroke="#B5BAC7" stroke-width="0.5" stroke-linecap="round"/>
<path d="M485.65 196.809C485.65 196.809 450.477 190.214 442.783 184.718" stroke="#B5BAC7" stroke-width="0.5" stroke-linecap="round"/>
<path d="M475.76 181.42L486.751 178.123V183.619L479.057 182.519L475.76 181.42Z" fill="#B5BAC7"/>
<path d="M446.082 177.023L440.586 175.924L441.685 182.519L442.785 184.717L446.082 177.023Z" fill="#B5BAC7"/>
<path d="M487.852 163.834L486.752 183.619" stroke="#B5BAC7" stroke-width="0.5" stroke-linecap="round"/>
<path d="M486.75 183.618C486.75 183.618 451.577 178.123 446.081 177.023L442.783 184.718" stroke="#B5BAC7" stroke-width="0.5" stroke-linecap="round" stroke-linejoin="round"/>
<path d="M441.683 151.743C440.804 151.743 436.187 147.346 435.088 145.148C435.088 144.049 452.675 141.85 450.476 142.949C449.905 143.235 451.575 146.247 453.774 149.544L453.755 149.548C448.265 150.646 442.781 151.743 441.683 151.743Z" fill="#8F95A8"/>
<path d="M483.453 152.042C484.332 152.042 490.049 147.046 488.95 146.247C485.651 144.048 471.362 141.85 473.56 142.949C474.131 143.235 472.461 146.247 470.263 149.544C475.758 150.643 482.353 152.042 483.453 152.042Z" fill="#8F95A8"/>
<path d="M613.349 147.346C618.625 143.828 626.539 143.315 630.935 144.048C645.004 140.531 666.474 145.88 672.704 149.544C675.268 163.1 672.705 150.643 680.398 171.527C688.09 192.411 684.795 251.766 684.795 258.361C684.795 264.956 680.398 242.973 671.605 249.568C662.811 256.163 661.712 253.965 651.819 247.37C642.402 241.093 613.351 263.857 624.338 244.072C634.364 226.018 606.754 151.742 613.349 147.346Z" fill="#8F95A8"/>
<path d="M617.744 107.379C617.744 105.17 619.535 103.379 621.744 103.379H666.504C668.713 103.379 670.504 105.17 670.504 107.379V136.354H617.744V107.379Z" fill="#B5BAC7"/>
<circle cx="644.124" cy="109.974" r="26.38" fill="#CFD2DA"/>
<circle cx="637.526" cy="112.904" r="1.69833" fill="#8F95A8" stroke="#8F95A8"/>
<circle cx="650.716" cy="112.904" r="1.69833" fill="#8F95A8" stroke="#8F95A8"/>
<path d="M639.729 123.896C641.194 126.827 647.056 126.827 648.522 123.896" stroke="#8F95A8" stroke-linecap="round"/>
<path fill-rule="evenodd" clip-rule="evenodd" d="M670.496 110.158C670.496 110.097 670.496 110.036 670.496 109.975C670.496 109.914 670.496 109.852 670.496 109.791V110.158ZM628.727 131.403V88.5461C622.071 93.3349 617.736 101.149 617.736 109.975C617.736 118.801 622.071 126.615 628.727 131.403Z" fill="#B5BAC7"/>
<path fill-rule="evenodd" clip-rule="evenodd" d="M617.739 110.158C617.738 110.097 617.738 110.036 617.738 109.975C617.738 109.914 617.738 109.852 617.739 109.791V110.158ZM659.507 131.403V88.5461C666.164 93.3349 670.498 101.149 670.498 109.975C670.498 118.801 666.164 126.615 659.507 131.403Z" fill="#B5BAC7"/>
<path fill-rule="evenodd" clip-rule="evenodd" d="M670.504 107.775C669.387 94.2348 658.043 83.594 644.214 83.594C630.385 83.594 619.042 94.2348 617.925 107.775L670.504 107.775Z" fill="#B5BAC7"/>
<path d="M637.531 129.759H650.721L655.118 145.147H633.135L637.531 129.759Z" fill="#CFD2DA"/>
<path d="M630.93 142.949H657.31V156.338C657.31 157.442 656.414 158.338 655.31 158.338H632.93C631.825 158.338 630.93 157.442 630.93 156.338V142.949Z" fill="#CFD2DA"/>
<path fill-rule="evenodd" clip-rule="evenodd" d="M631.834 142.949C623.774 143.316 610.951 144.403 606.553 152.842C601.472 162.589 606.555 196.808 616.446 196.808C618.687 196.808 620.806 196.55 622.831 196.125C622.474 197.401 622.054 198.704 621.612 200.078C618.759 208.935 614.952 220.755 620.869 247.37C622.272 253.681 622.852 258.035 623.432 262.386L623.432 262.386C623.628 263.857 623.824 265.327 624.051 266.873C625.457 276.414 629.28 282.776 630.39 282.819C632.389 282.898 637.198 265.308 640.834 252.01L640.834 252.01C642.404 246.27 643.755 241.329 644.566 238.954C644.671 238.556 644.773 238.158 644.873 237.76C645.132 238.888 645.409 240.02 645.707 241.153C646.518 243.527 647.869 248.468 649.439 254.208L649.439 254.208L649.439 254.208C653.075 267.507 657.884 285.096 659.882 285.018C660.993 284.974 664.816 278.613 666.222 269.071C666.449 267.525 666.645 266.055 666.841 264.584C667.421 260.233 668.001 255.879 669.404 249.568C675.321 222.953 671.514 211.133 668.661 202.276L668.661 202.276C668.042 200.354 667.468 198.572 667.048 196.808L666.969 196.816L666.937 196.365C668.763 196.648 670.613 196.808 672.504 196.808C682.395 196.808 687.892 159.437 681.297 152.842C675.33 146.875 661.877 142.949 656.015 142.949C656.015 142.949 655.119 146.983 651.895 149.899C650.07 151.549 647.5 152.842 643.924 152.842C634.032 152.842 631.834 142.949 631.834 142.949Z" fill="#B5BAC7"/>
<path d="M619.942 162.854L623.242 182.519" stroke="#8F95A8" stroke-width="0.5" stroke-linecap="round"/>
<path d="M621.039 196.808C621.039 196.808 635.328 195.709 646.32 192.412" stroke="#8F95A8" stroke-width="0.5" stroke-linecap="round"/>
<path d="M667.205 196.808C667.205 196.808 632.032 190.213 624.338 184.718" stroke="#8F95A8" stroke-width="0.5" stroke-linecap="round"/>
<path d="M657.314 181.42L668.306 178.122V183.618L660.612 182.519L657.314 181.42Z" fill="#CFD2DA"/>
<path d="M627.637 177.023L622.141 175.924L623.24 182.519L624.339 184.718L627.637 177.023Z" fill="#CFD2DA"/>
<path d="M669.406 163.833L668.307 183.618" stroke="#8F95A8" stroke-width="0.5" stroke-linecap="round"/>
<path d="M668.305 183.619C668.305 183.619 633.131 178.123 627.636 177.024L624.338 184.718" stroke="#8F95A8" stroke-width="0.5" stroke-linecap="round" stroke-linejoin="round"/>
<path d="M623.241 151.743C622.362 151.743 617.746 147.346 616.646 145.148C616.646 144.048 634.233 141.85 632.035 142.949C631.464 143.235 633.134 146.247 635.332 149.544L635.314 149.548C629.824 150.646 624.339 151.743 623.241 151.743Z" fill="#8F95A8"/>
<path d="M665.009 152.042C665.889 152.042 671.605 147.046 670.507 146.247C667.207 144.049 652.918 141.85 655.117 142.949C655.688 143.235 654.018 146.247 651.819 149.544C657.315 150.643 663.91 152.042 665.009 152.042Z" fill="#8F95A8"/>
<path d="M704.114 147.347C709.39 143.829 717.304 143.316 721.701 144.049C735.77 140.532 757.24 145.881 763.469 149.545C766.034 163.101 763.471 150.644 771.163 171.528C778.856 192.412 775.56 251.767 775.56 258.362C775.56 264.957 771.163 242.974 762.37 249.569C753.577 256.164 752.477 253.965 742.584 247.37C733.168 241.093 704.117 263.858 715.104 244.073C725.129 226.019 697.519 151.743 704.114 147.347Z" fill="#CFD2DA"/>
<path d="M712.354 103.38H757.27C759.479 103.38 761.27 105.171 761.27 107.38V136.355H712.906L712.354 103.38Z" fill="#CFD2DA"/>
<path d="M761.275 109.975C761.275 124.544 749.465 136.355 734.895 136.355C720.326 136.355 712.912 124.544 712.912 109.975C712.912 95.4057 720.326 83.595 734.895 83.595C749.465 83.595 761.275 95.4057 761.275 109.975Z" fill="#B5BAC7"/>
<path d="M759.072 98.9833C759.072 98.9833 742.374 106.378 733.58 105.578C724.787 104.779 723.026 102.791 712.908 104.479C710.705 104.847 713.447 83.5953 735.99 83.595C747.895 83.5948 754.676 89.0908 759.072 98.9833Z" fill="#CFD2DA"/>
<circle cx="728.3" cy="112.905" r="1.69833" fill="#8F95A8" stroke="#8F95A8"/>
<circle cx="741.489" cy="112.905" r="1.69833" fill="#8F95A8" stroke="#8F95A8"/>
<path d="M730.502 123.896C731.968 126.827 737.83 126.827 739.295 123.896" stroke="#8F95A8" stroke-linecap="round"/>
<path fill-rule="evenodd" clip-rule="evenodd" d="M746.842 135.399C755.149 132.524 761.273 122.629 761.273 110.864C761.273 98.9616 755.005 88.9728 746.55 86.2312C746.751 87.6467 747.342 93.1041 747.935 111.074C748.471 127.344 747.43 133.357 746.842 135.399ZM744.889 85.7929C743.903 85.5909 742.891 85.4861 741.862 85.4861C740.832 85.4861 739.82 85.5909 738.834 85.7929H744.889Z" fill="#CFD2DA"/>
<path d="M728.297 129.76H741.487L745.884 145.148H723.9L728.297 129.76Z" fill="#B5BAC7"/>
<path d="M721.701 142.95H748.081V156.338C748.081 157.442 747.186 158.338 746.081 158.338H723.701C722.597 158.338 721.701 157.442 721.701 156.338V142.95Z" fill="#B5BAC7"/>
<path fill-rule="evenodd" clip-rule="evenodd" d="M722.604 142.95C714.543 143.316 701.721 144.404 697.322 152.842C692.241 162.589 697.325 196.809 707.216 196.809C709.457 196.809 711.575 196.55 713.6 196.126C713.244 197.401 712.824 198.704 712.381 200.078C709.529 208.936 705.722 220.756 711.638 247.371C713.041 253.681 713.621 258.035 714.201 262.386C714.397 263.857 714.593 265.328 714.821 266.873C716.226 276.415 720.049 282.777 721.16 282.82C723.158 282.898 727.968 265.309 731.604 252.011L731.604 252.011C733.173 246.27 734.524 241.33 735.336 238.955C735.44 238.557 735.543 238.159 735.642 237.761C735.901 238.889 736.179 240.021 736.476 241.153C737.288 243.528 738.639 248.468 740.208 254.209L740.208 254.209L740.208 254.209L740.208 254.209C743.844 267.507 748.654 285.096 750.652 285.018C751.763 284.975 755.586 278.613 756.991 269.071C757.219 267.526 757.415 266.055 757.611 264.584L757.611 264.584C758.191 260.234 758.771 255.88 760.174 249.569C766.09 222.954 762.283 211.134 759.431 202.276C758.812 200.355 758.238 198.572 757.818 196.809L757.742 196.816L757.71 196.366C759.534 196.649 761.384 196.809 763.273 196.809C773.164 196.809 778.661 159.437 772.066 152.842C766.099 146.875 752.647 142.95 746.785 142.95C746.785 142.95 745.888 146.984 742.665 149.899C740.84 151.55 738.269 152.842 734.694 152.842C724.801 152.842 722.604 142.95 722.604 142.95Z" fill="#8F95A8"/>
<path d="M710.71 162.854L714.01 182.52" stroke="#69738C" stroke-width="0.5" stroke-linecap="round"/>
<path d="M711.812 196.809C711.812 196.809 726.102 195.71 737.093 192.412" stroke="#69738C" stroke-width="0.5" stroke-linecap="round"/>
<path d="M757.975 196.809C757.975 196.809 722.801 190.214 715.107 184.718" stroke="#69738C" stroke-width="0.5" stroke-linecap="round"/>
<path d="M748.084 181.421L759.076 178.123V183.619L751.381 182.52L748.084 181.421Z" fill="#B5BAC7"/>
<path d="M718.402 177.024L712.907 175.924L714.006 182.519L715.105 184.718L718.402 177.024Z" fill="#B5BAC7"/>
<path d="M760.176 163.834L759.077 183.619" stroke="#69738C" stroke-width="0.5" stroke-linecap="round"/>
<path d="M759.074 183.619C759.074 183.619 723.901 178.123 718.405 177.024L715.108 184.718" stroke="#69738C" stroke-width="0.5" stroke-linecap="round" stroke-linejoin="round"/>
<path d="M714.007 151.743C713.128 151.743 708.511 147.347 707.412 145.148C707.412 144.049 724.999 141.851 722.8 142.95C722.23 143.235 723.9 146.247 726.098 149.545L726.079 149.548C720.59 150.646 715.105 151.743 714.007 151.743Z" fill="#CFD2DA"/>
<path d="M755.779 152.043C756.658 152.043 762.375 147.047 761.276 146.247C757.977 144.049 743.688 141.85 745.886 142.95C746.457 143.235 744.787 146.247 742.589 149.545C748.085 150.644 754.68 152.043 755.779 152.043Z" fill="#CFD2DA"/>
<path fill-rule="evenodd" clip-rule="evenodd" d="M265.992 10.0054C263.92 6.98283 260.441 5 256.5 5C250.149 5 245 10.1487 245 16.5C245 17.3586 245.094 18.1951 245.273 19H244C239.029 19 235 23.0294 235 28C235 32.9706 239.029 37 244 37H283C287.971 37 292 32.9706 292 28C292 23.0294 287.971 19 283 19H281.951C281.983 18.6711 282 18.3375 282 18C282 12.4772 277.523 8 272 8C269.745 8 267.665 8.74631 265.992 10.0054Z" fill="#CFD2DA"/>
<path fill-rule="evenodd" clip-rule="evenodd" d="M217.055 149.693C215.112 146.859 211.851 145 208.156 145C202.202 145 197.375 149.827 197.375 155.781C197.375 156.586 197.463 157.37 197.63 158.125H196.438C191.778 158.125 188 161.903 188 166.562C188 171.222 191.778 175 196.438 175H233C237.66 175 241.438 171.222 241.438 166.562C241.438 161.903 237.66 158.125 233 158.125H232.016C232.047 157.817 232.062 157.504 232.062 157.188C232.062 152.01 227.865 147.812 222.688 147.812C220.574 147.812 218.623 148.512 217.055 149.693Z" fill="#CFD2DA"/>
</g>
<defs>
<clipPath id="clip0_6180_19773">
<rect width="1200" height="200" fill="white"/>
</clipPath>
</defs>
</svg>
