<svg width="1200" height="200" viewBox="0 0 1200 200" fill="none" xmlns="http://www.w3.org/2000/svg">
<rect width="1200" height="200" fill="#B9B9B9"/>
<g clip-path="url(#clip0_6348_20450)">
<rect width="1200" height="462" transform="translate(0 -68)" fill="#E3E5EC"/>
<path fill-rule="evenodd" clip-rule="evenodd" d="M959.401 35.4631C955.897 30.3525 950.016 27 943.352 27C932.613 27 923.908 35.7054 923.908 46.4441C923.908 47.8957 924.067 49.3102 924.369 50.6711H922.217C913.813 50.6711 907 57.484 907 65.8882C907 74.2923 913.813 81.1053 922.217 81.1053H988.158C996.562 81.1053 1003.38 74.2923 1003.38 65.8882C1003.38 57.484 996.562 50.6711 988.158 50.6711H986.384C986.439 50.1149 986.467 49.5509 986.467 48.9803C986.467 39.6423 978.897 32.0724 969.559 32.0724C965.747 32.0724 962.229 33.3342 959.401 35.4631Z" fill="#CFD2DA"/>
<path fill-rule="evenodd" clip-rule="evenodd" d="M265.992 10.0054C263.92 6.98283 260.441 5 256.5 5C250.149 5 245 10.1487 245 16.5C245 17.3586 245.094 18.1951 245.273 19H244C239.029 19 235 23.0294 235 28C235 32.9706 239.029 37 244 37H283C287.971 37 292 32.9706 292 28C292 23.0294 287.971 19 283 19H281.951C281.983 18.6711 282 18.3375 282 18C282 12.4772 277.523 8 272 8C269.745 8 267.665 8.74631 265.992 10.0054Z" fill="#CFD2DA"/>
<path fill-rule="evenodd" clip-rule="evenodd" d="M353.551 164.195C350.572 159.85 345.572 157 339.906 157C330.776 157 323.375 164.401 323.375 173.531C323.375 174.765 323.51 175.968 323.767 177.125H321.937C314.792 177.125 309 182.917 309 190.062C309 197.208 314.792 203 321.937 203H378C385.145 203 390.938 197.208 390.938 190.062C390.938 182.917 385.145 177.125 378 177.125H376.492C376.538 176.652 376.562 176.173 376.562 175.688C376.562 167.748 370.127 161.312 362.188 161.312C358.946 161.312 355.955 162.385 353.551 164.195Z" fill="#CFD2DA"/>
<path d="M421.5 35L425.686 46.3136L437 50.5L425.686 54.6864L421.5 66L417.314 54.6864L406 50.5L417.314 46.3136L421.5 35Z" fill="#B5BAC7"/>
<path d="M1034.5 148L1030.31 159.314L1019 163.5L1030.31 167.686L1034.5 179L1038.69 167.686L1050 163.5L1038.69 159.314L1034.5 148Z" fill="#B5BAC7"/>
<path d="M452.5 58L454.796 64.2042L461 66.5L454.796 68.7958L452.5 75L450.204 68.7958L444 66.5L450.204 64.2042L452.5 58Z" fill="#8F95A8"/>
<path d="M1003.5 171L1001.2 177.204L995 179.5L1001.2 181.796L1003.5 188L1005.8 181.796L1012 179.5L1005.8 177.204L1003.5 171Z" fill="#8F95A8"/>
<path d="M215.5 94L217.796 100.204L224 102.5L217.796 104.796L215.5 111L213.204 104.796L207 102.5L213.204 100.204L215.5 94Z" fill="#B5BAC7"/>
<path d="M1096.5 38L1098.8 44.2042L1105 46.5L1098.8 48.7958L1096.5 55L1094.2 48.7958L1088 46.5L1094.2 44.2042L1096.5 38Z" fill="#B5BAC7"/>
<path d="M42.5 128L44.7958 134.204L51 136.5L44.7958 138.796L42.5 145L40.2042 138.796L34 136.5L40.2042 134.204L42.5 128Z" fill="#8F95A8"/>
<path d="M843.5 90L845.796 96.2042L852 98.5L845.796 100.796L843.5 107L841.204 100.796L835 98.5L841.204 96.2042L843.5 90Z" fill="#B5BAC7"/>
<path d="M1141.5 21L1143.8 27.2042L1150 29.5L1143.8 31.7958L1141.5 38L1139.2 31.7958L1133 29.5L1139.2 27.2042L1141.5 21Z" fill="#8F95A8"/>
<path d="M675.5 131L677.796 137.204L684 139.5L677.796 141.796L675.5 148L673.204 141.796L667 139.5L673.204 137.204L675.5 131Z" fill="#8F95A8"/>
</g>
<defs>
<clipPath id="clip0_6348_20450">
<rect width="1200" height="200" fill="white"/>
</clipPath>
</defs>
</svg>
