<svg width="1200" height="200" viewBox="0 0 1200 200" fill="none" xmlns="http://www.w3.org/2000/svg">
<rect width="1200" height="200" fill="#B9B9B9"/>
<g clip-path="url(#clip0_3501_13588)">
<rect width="1200" height="462" transform="translate(0 -68)" fill="#E3E5EC"/>
<path fill-rule="evenodd" clip-rule="evenodd" d="M959.401 35.4631C955.897 30.3525 950.016 27 943.352 27C932.613 27 923.908 35.7054 923.908 46.4441C923.908 47.8957 924.067 49.3102 924.369 50.6711H922.217C913.813 50.6711 907 57.484 907 65.8882C907 74.2923 913.813 81.1053 922.217 81.1053H988.158C996.562 81.1053 1003.38 74.2923 1003.38 65.8882C1003.38 57.484 996.562 50.6711 988.158 50.6711H986.384C986.439 50.1149 986.467 49.5509 986.467 48.9803C986.467 39.6423 978.897 32.0724 969.559 32.0724C965.747 32.0724 962.229 33.3342 959.401 35.4631Z" fill="#CFD2DA"/>
<path d="M964.265 211.019C964.042 211.887 963.259 212.494 962.363 212.494H910.993C908.389 212.494 906.505 210.008 907.21 207.502L917.997 169.11C918.95 165.719 922.041 163.376 925.563 163.376H966.397C971.533 163.376 975.288 168.222 974.007 173.195L964.265 211.019Z" fill="#8F95A8"/>
<path d="M964.265 74.4747C964.042 73.6067 963.259 73 962.363 73H910.993C908.389 73 906.505 75.4859 907.21 77.9923L917.997 116.385C918.95 119.775 922.041 122.118 925.563 122.118H966.397C971.533 122.118 975.288 117.272 974.007 112.299L964.265 74.4747Z" fill="#8F95A8"/>
<path d="M895.001 142.747C895.001 180.182 969.62 210.529 1075.75 210.529C1128.85 210.529 1184.79 188.041 1184.79 142.747C1184.79 97.453 1128.85 74.9646 1075.75 74.9646C969.62 74.9646 895.001 105.312 895.001 142.747Z" fill="#B5BAC7"/>
<path fill-rule="evenodd" clip-rule="evenodd" d="M916.379 160.529C909.271 153.868 906.789 147.858 906.789 142.747C906.789 137.636 909.271 131.626 916.379 124.965C923.543 118.251 934.682 111.633 949.806 105.821C979.989 94.2232 1023.65 86.7528 1075.75 86.7528C1100.88 86.7528 1126.07 92.1131 1144.53 102.212C1162.86 112.242 1173.01 125.874 1173.01 142.747C1173.01 159.62 1162.86 173.251 1144.53 183.282C1126.07 193.381 1100.88 198.741 1075.75 198.741C1023.65 198.741 979.989 191.271 949.806 179.673C934.682 173.861 923.543 167.242 916.379 160.529ZM1075.75 210.529C969.62 210.529 895.001 180.182 895.001 142.747C895.001 105.312 969.62 74.9646 1075.75 74.9646C1128.85 74.9646 1184.79 97.453 1184.79 142.747C1184.79 188.041 1128.85 210.529 1075.75 210.529Z" fill="#B5BAC7"/>
<path d="M895.001 142.747C895.001 159.566 969.62 173.2 1075.75 173.2C1128.85 173.2 1184.79 163.097 1184.79 142.747C1184.79 122.398 1128.85 112.294 1075.75 112.294C969.62 112.294 895.001 125.928 895.001 142.747Z" fill="#CFD2DA"/>
<path fill-rule="evenodd" clip-rule="evenodd" d="M1144.91 196.32C1138.93 179.243 1135.68 160.883 1135.68 141.765C1135.68 123.275 1138.72 105.495 1144.33 88.8981C1168.11 100.083 1184.79 118.015 1184.79 142.747C1184.79 167.277 1168.39 185.118 1144.91 196.32Z" fill="#8F95A8"/>
<path d="M67.1211 108.394C67.0087 107.629 67.6019 106.942 68.3755 106.942H131.366C132.139 106.942 132.732 107.629 132.62 108.394L130.118 125.429C129.752 127.918 127.617 129.763 125.1 129.763H74.6407C72.1246 129.763 69.989 127.918 69.6233 125.429L67.1211 108.394Z" fill="#CFD2DA"/>
<path d="M162.305 111.062C162.449 111.622 162.954 112.014 163.532 112.014H196.681C198.361 112.014 199.576 110.409 199.122 108.792L192.161 84.0181C191.546 81.8303 189.551 80.3186 187.279 80.3186H160.929C157.615 80.3186 155.192 83.4454 156.018 86.6547L162.305 111.062Z" fill="#8F95A8"/>
<path d="M162.305 22.9516C162.449 22.3915 162.954 22 163.532 22H196.681C198.361 22 199.576 23.6041 199.122 25.2215L192.161 49.9955C191.546 52.1832 189.551 53.6949 187.279 53.6949H160.929C157.615 53.6949 155.192 50.5682 156.018 47.3589L162.305 22.9516Z" fill="#8F95A8"/>
<path d="M207 67.0068C207 91.1632 158.849 110.746 90.3627 110.746C56.1013 110.746 20 96.2344 20 67.0068C20 37.7792 56.1013 23.2678 90.3627 23.2678C158.849 23.2678 207 42.8504 207 67.0068Z" fill="#B5BAC7"/>
<path fill-rule="evenodd" clip-rule="evenodd" d="M193.205 78.4814C197.792 74.1831 199.393 70.305 199.393 67.0068C199.393 63.7086 197.792 59.8305 193.205 55.5322C188.582 51.2002 181.394 46.9292 171.635 43.1793C152.159 35.6951 123.986 30.8746 90.3627 30.8746C74.1486 30.8746 57.8951 34.3335 45.9845 40.8502C34.1547 47.3227 27.6068 56.1189 27.6068 67.0068C27.6068 77.8947 34.1547 86.6909 45.9845 93.1634C57.8951 99.6801 74.1486 103.139 90.3627 103.139C123.986 103.139 152.159 98.3185 171.635 90.8343C181.394 87.0844 188.582 82.8134 193.205 78.4814ZM90.3627 110.746C158.849 110.746 207 91.1632 207 67.0068C207 42.8504 158.849 23.2678 90.3627 23.2678C56.1013 23.2678 20 37.7792 20 67.0068C20 96.2344 56.1013 110.746 90.3627 110.746Z" fill="#B5BAC7"/>
<path d="M207 67.0068C207 77.8597 158.849 86.6577 90.3627 86.6577C56.1013 86.6577 20 80.138 20 67.0068C20 53.8756 56.1013 47.356 90.3627 47.356C158.849 47.356 207 56.1539 207 67.0068Z" fill="#CFD2DA"/>
<path d="M87.1951 119.62C87.1951 122.421 84.9247 124.692 82.1239 124.692C79.3232 124.692 77.0527 122.421 77.0527 119.62C77.0527 116.82 79.3232 114.549 82.1239 114.549C84.9247 114.549 87.1951 116.82 87.1951 119.62Z" fill="#B5BAC7"/>
<path d="M104.941 119.62C104.941 122.421 102.671 124.692 99.87 124.692C97.0693 124.692 94.7988 122.421 94.7988 119.62C94.7988 116.82 97.0693 114.549 99.87 114.549C102.671 114.549 104.941 116.82 104.941 119.62Z" fill="#B5BAC7"/>
<path d="M122.691 119.62C122.691 122.421 120.421 124.692 117.62 124.692C114.819 124.692 112.549 122.421 112.549 119.62C112.549 116.82 114.819 114.549 117.62 114.549C120.421 114.549 122.691 116.82 122.691 119.62Z" fill="#B5BAC7"/>
<path fill-rule="evenodd" clip-rule="evenodd" d="M45.7387 101.577C49.5971 90.557 51.6949 78.7099 51.6949 66.3729C51.6949 54.4415 49.7328 42.9685 46.1136 32.2588C30.7634 39.4761 20 51.0475 20 67.0066C20 82.8354 30.5885 94.3479 45.7387 101.577Z" fill="#8F95A8"/>
<path d="M751.418 42.2701C751.367 41.9223 751.637 41.6101 751.988 41.6101H780.62C780.972 41.6101 781.242 41.9223 781.191 42.2701L780.053 50.0129C779.887 51.1444 778.916 51.983 777.773 51.983H754.836C753.693 51.983 752.722 51.1444 752.556 50.0129L751.418 42.2701Z" fill="#CFD2DA"/>
<path d="M794.683 43.4827C794.749 43.7373 794.979 43.9153 795.241 43.9153H810.309C811.073 43.9153 811.625 43.1861 811.419 42.451L808.255 31.1901C807.975 30.1956 807.068 29.5085 806.035 29.5085H794.058C792.552 29.5085 791.45 30.9297 791.826 32.3885L794.683 43.4827Z" fill="#8F95A8"/>
<path d="M794.683 3.43254C794.749 3.17794 794.979 3 795.241 3H810.309C811.073 3 811.625 3.72915 811.419 4.46431L808.255 15.7252C807.975 16.7196 807.068 17.4068 806.035 17.4068H794.058C792.552 17.4068 791.45 15.9855 791.826 14.5268L794.683 3.43254Z" fill="#8F95A8"/>
<path d="M815 23.4575C815 34.4377 793.113 43.3389 761.983 43.3389C746.41 43.3389 730 36.7428 730 23.4575C730 10.1723 746.41 3.57617 761.983 3.57617C793.113 3.57617 815 12.4774 815 23.4575Z" fill="#B5BAC7"/>
<path fill-rule="evenodd" clip-rule="evenodd" d="M808.73 28.6732C810.814 26.7195 811.542 24.9567 811.542 23.4575C811.542 21.9584 810.814 20.1956 808.73 18.2418C806.628 16.2727 803.361 14.3314 798.925 12.6268C790.072 9.22495 777.266 7.0338 761.983 7.0338C754.613 7.0338 747.225 8.60602 741.811 11.5682C736.434 14.5102 733.458 18.5085 733.458 23.4575C733.458 28.4066 736.434 32.4048 741.811 35.3469C747.225 38.309 754.613 39.8813 761.983 39.8813C777.266 39.8813 790.072 37.6901 798.925 34.2882C803.361 32.5837 806.628 30.6423 808.73 28.6732ZM761.983 43.3389C793.113 43.3389 815 34.4377 815 23.4575C815 12.4774 793.113 3.57617 761.983 3.57617C746.41 3.57617 730 10.1723 730 23.4575C730 36.7428 746.41 43.3389 761.983 43.3389Z" fill="#B5BAC7"/>
<path d="M815 23.4576C815 28.3907 793.113 32.3898 761.983 32.3898C746.41 32.3898 730 29.4263 730 23.4576C730 17.4889 746.41 14.5254 761.983 14.5254C793.113 14.5254 815 18.5245 815 23.4576Z" fill="#CFD2DA"/>
<path d="M760.544 47.3727C760.544 48.6458 759.512 49.6778 758.239 49.6778C756.966 49.6778 755.934 48.6458 755.934 47.3727C755.934 46.0996 756.966 45.0676 758.239 45.0676C759.512 45.0676 760.544 46.0996 760.544 47.3727Z" fill="#B5BAC7"/>
<path d="M768.61 47.3727C768.61 48.6458 767.578 49.6778 766.305 49.6778C765.032 49.6778 764 48.6458 764 47.3727C764 46.0996 765.032 45.0676 766.305 45.0676C767.578 45.0676 768.61 46.0996 768.61 47.3727Z" fill="#B5BAC7"/>
<path d="M776.679 47.3727C776.679 48.6458 775.647 49.6778 774.373 49.6778C773.1 49.6778 772.068 48.6458 772.068 47.3727C772.068 46.0996 773.1 45.0676 774.373 45.0676C775.647 45.0676 776.679 46.0996 776.679 47.3727Z" fill="#B5BAC7"/>
<path fill-rule="evenodd" clip-rule="evenodd" d="M741.699 39.1713C743.453 34.1623 744.407 28.7772 744.407 23.1695C744.407 17.7462 743.515 12.5311 741.87 7.66309C734.892 10.9437 730 16.2034 730 23.4575C730 30.6524 734.813 35.8854 741.699 39.1713Z" fill="#8F95A8"/>
<path d="M551.227 96.5981C554.422 94.4682 559.215 94.1576 561.877 94.6013C570.396 92.4714 583.398 95.7106 587.17 97.9293C588.723 106.138 587.171 98.5949 591.829 111.241C596.487 123.888 594.491 159.83 594.491 163.823C594.491 167.817 591.829 154.505 586.504 158.499C581.179 162.492 580.513 161.161 574.523 157.167C568.821 153.366 551.229 167.151 557.882 155.171C563.953 144.238 547.234 99.2605 551.227 96.5981Z" fill="#B5BAC7"/>
<ellipse cx="569.224" cy="74.4108" rx="15.3353" ry="15.9743" fill="#CFD2DA"/>
<path d="M584.507 72.6367C584.507 72.6367 571.066 70.9015 565.741 70.4174C560.416 69.9332 553.629 69.0862 550.431 63.7612C542.411 50.408 562.344 54.0783 570.4 55.7742C583.045 58.4365 583.842 66.6464 584.507 72.6367Z" fill="#B5BAC7"/>
<circle cx="565.87" cy="75.7421" r="0.831192" fill="#8F95A8" stroke="#8F95A8"/>
<circle cx="573.857" cy="75.7421" r="0.831192" fill="#8F95A8" stroke="#8F95A8"/>
<path d="M567.201 82.3979C568.089 84.1729 571.638 84.1729 572.526 82.3979" stroke="#8F95A8" stroke-linecap="round"/>
<path d="M565.869 85.9487H573.857L576.519 95.2671H563.207L565.869 85.9487Z" fill="#CFD2DA"/>
<path d="M561.877 93.9358H577.851V101.254C577.851 102.359 576.956 103.254 575.851 103.254H563.877C562.772 103.254 561.877 102.359 561.877 101.254V93.9358Z" fill="#CFD2DA"/>
<path fill-rule="evenodd" clip-rule="evenodd" d="M562.421 93.9358C557.54 94.1577 549.776 94.8161 547.112 99.9262C544.036 105.828 547.114 126.55 553.103 126.55C554.459 126.55 555.742 126.393 556.968 126.137C556.752 126.909 556.498 127.698 556.23 128.53C554.502 133.893 552.197 141.051 555.78 157.167C556.629 160.989 556.981 163.625 557.332 166.26C557.45 167.151 557.569 168.041 557.707 168.977C558.558 174.755 560.873 178.607 561.546 178.634C562.756 178.681 565.668 168.03 567.87 159.977C568.82 156.501 569.638 153.509 570.13 152.071C570.193 151.829 570.256 151.586 570.317 151.343C570.474 152.028 570.642 152.715 570.823 153.403C571.314 154.841 572.132 157.832 573.083 161.308C575.284 169.361 578.197 180.012 579.407 179.965C580.079 179.939 582.394 176.086 583.245 170.308C583.383 169.372 583.502 168.482 583.621 167.591L583.621 167.591C583.972 164.957 584.323 162.32 585.173 158.499C588.755 142.382 586.45 135.224 584.723 129.861C584.348 128.697 584 127.618 583.746 126.55L583.699 126.554L583.68 126.282C584.785 126.453 585.904 126.55 587.049 126.55C593.038 126.55 596.367 103.92 592.373 99.9262C588.76 96.3128 580.614 93.9358 577.064 93.9358C577.064 93.9358 576.521 96.3784 574.569 98.1441C573.464 99.1436 571.908 99.9262 569.742 99.9262C563.752 99.9262 562.421 93.9358 562.421 93.9358Z" fill="#8F95A8"/>
<path d="M555.219 105.989L557.218 117.897" stroke="#69738C" stroke-width="0.5" stroke-linecap="round"/>
<path d="M555.887 126.55C555.887 126.55 564.539 125.884 571.195 123.888" stroke="#69738C" stroke-width="0.5" stroke-linecap="round"/>
<path d="M583.842 126.55C583.842 126.55 562.543 122.556 557.884 119.228" stroke="#69738C" stroke-width="0.5" stroke-linecap="round"/>
<path d="M577.852 117.232L584.508 115.235V118.563L579.848 117.897L577.852 117.232Z" fill="#CFD2DA"/>
<path d="M559.879 114.569L556.551 113.904L557.217 117.897L557.882 119.228L559.879 114.569Z" fill="#CFD2DA"/>
<path d="M585.172 106.582L584.506 118.563" stroke="#69738C" stroke-width="0.5" stroke-linecap="round"/>
<path d="M584.508 118.563C584.508 118.563 563.209 115.235 559.881 114.569L557.884 119.228" stroke="#69738C" stroke-width="0.5" stroke-linecap="round" stroke-linejoin="round"/>
<path d="M557.218 99.2607C556.686 99.2607 553.89 96.5982 553.225 95.267C553.225 94.6014 563.874 93.2702 562.543 93.9358C562.197 94.1086 563.209 95.9325 564.54 97.9293L564.528 97.9316C561.204 98.5964 557.883 99.2607 557.218 99.2607Z" fill="#B5BAC7"/>
<path d="M582.51 99.442C583.043 99.442 586.504 96.4167 585.839 95.9324C583.841 94.6014 575.189 93.2701 576.52 93.9357C576.866 94.1086 575.854 95.9326 574.523 97.9293C577.851 98.5949 581.845 99.442 582.51 99.442Z" fill="#B5BAC7"/>
<path d="M560.546 188.45C558.081 177.112 556.183 166.083 557.198 166.083C559.089 166.083 561.064 169.465 561.804 169.456C562.544 169.448 564.761 166.083 566.242 166.083C567.723 166.083 566.783 178.079 565.869 188.45C568.161 192.444 568.16 195.772 565.869 195.772C560.839 195.772 564.538 195.772 560.544 195.772L560.544 195.772C558.506 195.772 556.551 195.772 560.546 188.45Z" fill="#B5BAC7"/>
<path d="M577.852 188.45C575.388 177.112 573.49 166.083 574.504 166.083C576.396 166.083 578.371 169.465 579.111 169.456C579.85 169.448 582.067 166.083 583.549 166.083C585.03 166.083 584.089 178.079 583.175 188.45C585.467 192.444 585.467 195.772 583.175 195.772C578.146 195.772 581.844 195.772 577.851 195.772L577.851 195.772C575.813 195.772 573.858 195.772 577.852 188.45Z" fill="#B5BAC7"/>
<path d="M491.323 96.598C494.518 94.4681 499.31 94.1575 501.973 94.6012C510.492 92.4712 523.493 95.7105 527.265 97.9292C528.818 106.138 527.266 98.5948 531.925 111.241C536.583 123.887 534.587 159.83 534.587 163.823C534.587 167.817 531.925 154.505 526.6 158.498C521.275 162.492 520.609 161.161 514.618 157.167C508.916 153.366 491.325 167.151 497.978 155.17C504.049 144.238 487.33 99.2604 491.323 96.598Z" fill="#8F95A8"/>
<ellipse cx="509.322" cy="74.4106" rx="15.3353" ry="15.9743" fill="#B5BAC7"/>
<circle cx="505.968" cy="75.7418" r="0.831192" fill="#8F95A8" stroke="#8F95A8"/>
<circle cx="513.954" cy="75.7418" r="0.831192" fill="#8F95A8" stroke="#8F95A8"/>
<path d="M507.299 82.3979C508.186 84.1729 511.736 84.1729 512.624 82.3979" stroke="#8F95A8" stroke-linecap="round"/>
<path d="M523.938 70.6397C522.607 70.6397 517.282 71.3053 509.296 68.6429C501.308 71.3053 496.648 70.6397 494.652 70.6397C493.3 70.6397 495.645 57.9934 509.296 57.9934C521.276 57.9934 525.27 70.6397 523.938 70.6397Z" fill="#CFD2DA"/>
<path d="M505.967 85.9485H513.954L516.617 95.2668H503.305L505.967 85.9485Z" fill="#B5BAC7"/>
<path d="M501.973 93.9357H517.947V101.254C517.947 102.359 517.052 103.254 515.947 103.254H503.973C502.868 103.254 501.973 102.359 501.973 101.254V93.9357Z" fill="#B5BAC7"/>
<path fill-rule="evenodd" clip-rule="evenodd" d="M502.519 93.9357C497.638 94.1575 489.874 94.816 487.21 99.926C484.133 105.828 487.211 126.55 493.201 126.55C494.557 126.55 495.84 126.393 497.065 126.136C496.849 126.909 496.595 127.698 496.327 128.53C494.6 133.893 492.295 141.051 495.877 157.167C496.727 160.989 497.078 163.625 497.429 166.26C497.548 167.151 497.667 168.041 497.804 168.977C498.656 174.755 500.971 178.607 501.643 178.634C502.853 178.681 505.765 168.03 507.967 159.977C508.918 156.501 509.736 153.509 510.227 152.071C510.291 151.828 510.353 151.586 510.414 151.343C510.571 152.028 510.74 152.715 510.92 153.402C511.412 154.84 512.23 157.832 513.18 161.308C515.382 169.361 518.294 180.012 519.504 179.965C520.177 179.938 522.492 176.086 523.343 170.308C523.481 169.372 523.6 168.482 523.718 167.591L523.718 167.591C524.069 164.957 524.421 162.32 525.27 158.498C528.853 142.382 526.548 135.224 524.82 129.861C524.445 128.697 524.098 127.618 523.843 126.55L523.797 126.554L523.777 126.282C524.882 126.453 526.002 126.55 527.146 126.55C533.136 126.55 536.465 103.92 532.471 99.926C528.858 96.3127 520.712 93.9357 517.162 93.9357C517.162 93.9357 516.619 96.3782 514.667 98.144C513.562 99.1434 512.005 99.926 509.84 99.926C503.85 99.926 502.519 93.9357 502.519 93.9357Z" fill="#CFD2DA"/>
<path d="M495.317 105.989L497.315 117.897" stroke="#B5BAC7" stroke-width="0.5" stroke-linecap="round"/>
<path d="M495.982 126.55C495.982 126.55 504.635 125.884 511.291 123.888" stroke="#B5BAC7" stroke-width="0.5" stroke-linecap="round"/>
<path d="M523.938 126.55C523.938 126.55 502.638 122.556 497.979 119.228" stroke="#B5BAC7" stroke-width="0.5" stroke-linecap="round"/>
<path d="M517.947 117.232L524.603 115.235V118.563L519.944 117.897L517.947 117.232Z" fill="#B5BAC7"/>
<path d="M499.977 114.569L496.649 113.904L497.314 117.897L497.98 119.228L499.977 114.569Z" fill="#B5BAC7"/>
<path d="M525.27 106.582L524.604 118.563" stroke="#B5BAC7" stroke-width="0.5" stroke-linecap="round"/>
<path d="M524.604 118.563C524.604 118.563 503.304 115.235 499.976 114.569L497.98 119.228" stroke="#B5BAC7" stroke-width="0.5" stroke-linecap="round" stroke-linejoin="round"/>
<path d="M497.314 99.2605C496.781 99.2605 493.986 96.5981 493.32 95.2669C493.32 94.6013 503.97 93.2701 502.639 93.9357C502.293 94.1085 503.304 95.9324 504.635 97.9292L504.624 97.9315C501.3 98.5963 497.979 99.2605 497.314 99.2605Z" fill="#8F95A8"/>
<path d="M522.608 99.4418C523.14 99.4418 526.602 96.4165 525.937 95.9323C523.939 94.6013 515.286 93.27 516.618 93.9356C516.963 94.1084 515.952 95.9324 514.621 97.9292C517.949 98.5948 521.942 99.4418 522.608 99.4418Z" fill="#8F95A8"/>
<path d="M500.643 188.45C498.179 177.112 496.281 166.083 497.295 166.083C499.187 166.083 501.162 169.465 501.902 169.456C502.641 169.448 504.858 166.083 506.34 166.083C507.821 166.083 506.88 178.079 505.966 188.45C508.258 192.444 508.258 195.772 505.966 195.772C500.937 195.772 504.635 195.772 500.642 195.772L500.642 195.772C498.604 195.772 496.649 195.772 500.643 188.45Z" fill="#8F95A8"/>
<path d="M517.948 188.45C515.484 177.112 513.586 166.083 514.6 166.083C516.492 166.083 518.467 169.465 519.206 169.456C519.946 169.448 522.163 166.083 523.644 166.083C525.125 166.083 524.185 178.079 523.271 188.45C525.563 192.444 525.563 195.772 523.271 195.772C518.241 195.772 521.94 195.772 517.947 195.772L517.947 195.772C515.909 195.772 513.954 195.772 517.948 188.45Z" fill="#8F95A8"/>
<path d="M611.132 96.598C614.327 94.4681 619.119 94.1575 621.781 94.6012C630.3 92.4712 643.302 95.7105 647.074 97.9292C648.627 106.138 647.075 98.5948 651.733 111.241C656.391 123.887 654.396 159.83 654.396 163.823C654.396 167.817 651.733 154.505 646.408 158.498C641.084 162.492 640.418 161.161 634.427 157.167C628.725 153.366 611.133 167.151 617.786 155.17C623.857 144.238 607.138 99.2604 611.132 96.598Z" fill="#8F95A8"/>
<path d="M613.795 73.9741C613.795 71.765 615.586 69.9741 617.795 69.9741H641.744C643.953 69.9741 645.744 71.765 645.744 73.9741V89.942H613.795V73.9741Z" fill="#B5BAC7"/>
<circle cx="629.769" cy="73.9677" r="15.9743" fill="#CFD2DA"/>
<circle cx="625.775" cy="75.7418" r="0.831192" fill="#8F95A8" stroke="#8F95A8"/>
<circle cx="633.761" cy="75.7418" r="0.831192" fill="#8F95A8" stroke="#8F95A8"/>
<path d="M627.105 82.3977C627.993 84.1726 631.543 84.1726 632.43 82.3977" stroke="#8F95A8" stroke-linecap="round"/>
<path fill-rule="evenodd" clip-rule="evenodd" d="M620.451 86.9441V60.9915C616.42 63.8913 613.795 68.623 613.795 73.9678C613.795 79.3126 616.42 84.0443 620.451 86.9441Z" fill="#B5BAC7"/>
<path fill-rule="evenodd" clip-rule="evenodd" d="M639.086 86.9441V60.9915C643.117 63.8913 645.742 68.623 645.742 73.9678C645.742 79.3126 643.117 84.0443 639.086 86.9441Z" fill="#B5BAC7"/>
<path fill-rule="evenodd" clip-rule="evenodd" d="M645.742 72.6365C645.066 64.437 638.197 57.9934 629.823 57.9934C621.448 57.9934 614.579 64.437 613.903 72.6365L645.742 72.6365Z" fill="#B5BAC7"/>
<path d="M625.776 85.9485H633.763L636.425 95.2668H623.113L625.776 85.9485Z" fill="#CFD2DA"/>
<path d="M621.781 93.9357H637.756V101.254C637.756 102.359 636.86 103.254 635.756 103.254H623.781C622.677 103.254 621.781 102.359 621.781 101.254V93.9357Z" fill="#CFD2DA"/>
<path fill-rule="evenodd" clip-rule="evenodd" d="M622.326 93.9357C617.445 94.1575 609.68 94.816 607.017 99.926C603.94 105.828 607.018 126.55 613.007 126.55C614.364 126.55 615.646 126.393 616.872 126.136C616.656 126.909 616.402 127.698 616.134 128.53C614.407 133.893 612.101 141.051 615.684 157.167C616.533 160.989 616.885 163.625 617.236 166.26C617.355 167.151 617.473 168.041 617.611 168.977C618.462 174.755 620.777 178.607 621.45 178.634C622.66 178.681 625.572 168.03 627.774 159.977C628.724 156.501 629.542 153.509 630.034 152.071C630.098 151.828 630.16 151.586 630.221 151.343C630.378 152.028 630.546 152.715 630.727 153.402C631.218 154.84 632.036 157.832 632.987 161.308C635.189 169.361 638.101 180.012 639.311 179.965C639.984 179.938 642.299 176.086 643.15 170.308C643.288 169.372 643.406 168.482 643.525 167.591L643.525 167.591C643.876 164.957 644.227 162.32 645.077 158.498C648.659 142.382 646.354 135.224 644.627 129.861C644.252 128.697 643.904 127.618 643.65 126.55L643.603 126.554L643.584 126.282C644.689 126.453 645.809 126.55 646.953 126.55C652.943 126.55 656.271 103.92 652.278 99.926C648.664 96.3127 640.518 93.9357 636.968 93.9357C636.968 93.9357 636.426 96.3782 634.473 98.144C633.368 99.1434 631.812 99.926 629.647 99.926C623.656 99.926 622.326 93.9357 622.326 93.9357Z" fill="#B5BAC7"/>
<path d="M615.126 105.989L617.124 117.897" stroke="#8F95A8" stroke-width="0.5" stroke-linecap="round"/>
<path d="M615.791 126.55C615.791 126.55 624.444 125.884 631.1 123.888" stroke="#8F95A8" stroke-width="0.5" stroke-linecap="round"/>
<path d="M643.746 126.55C643.746 126.55 622.447 122.556 617.788 119.228" stroke="#8F95A8" stroke-width="0.5" stroke-linecap="round"/>
<path d="M637.756 117.232L644.412 115.235V118.563L639.753 117.897L637.756 117.232Z" fill="#CFD2DA"/>
<path d="M619.785 114.569L616.457 113.904L617.123 117.897L617.788 119.228L619.785 114.569Z" fill="#CFD2DA"/>
<path d="M645.078 106.582L644.413 118.563" stroke="#8F95A8" stroke-width="0.5" stroke-linecap="round"/>
<path d="M644.412 118.563C644.412 118.563 623.113 115.235 619.785 114.569L617.788 119.228" stroke="#8F95A8" stroke-width="0.5" stroke-linecap="round" stroke-linejoin="round"/>
<path d="M617.122 99.2605C616.59 99.2605 613.795 96.5981 613.129 95.2669C613.129 94.6013 623.778 93.2701 622.447 93.9357C622.102 94.1085 623.113 95.9324 624.444 97.9292L624.433 97.9315C621.109 98.5963 617.787 99.2605 617.122 99.2605Z" fill="#8F95A8"/>
<path d="M642.415 99.4418C642.947 99.4418 646.409 96.4165 645.744 95.9323C643.746 94.6013 635.093 93.27 636.424 93.9356C636.77 94.1084 635.759 95.9324 634.427 97.9292C637.755 98.5948 641.749 99.4418 642.415 99.4418Z" fill="#8F95A8"/>
<path d="M620.452 188.45C617.987 177.112 616.09 166.083 617.104 166.083C618.995 166.083 620.971 169.465 621.71 169.456C622.45 169.448 624.667 166.083 626.148 166.083C627.629 166.083 626.689 178.079 625.775 188.45C628.067 192.444 628.067 195.772 625.775 195.772C620.745 195.772 624.444 195.772 620.451 195.772L620.45 195.772C618.413 195.772 616.458 195.772 620.452 188.45Z" fill="#8F95A8"/>
<path d="M637.757 188.45C635.292 177.112 633.394 166.083 634.409 166.083C636.3 166.083 638.275 169.465 639.015 169.456C639.755 169.448 641.972 166.083 643.453 166.083C644.934 166.083 643.994 178.079 643.08 188.45C645.371 192.444 645.371 195.772 643.08 195.772C638.05 195.772 641.749 195.772 637.755 195.772L637.755 195.772C635.717 195.772 633.762 195.772 637.757 188.45Z" fill="#8F95A8"/>
<path d="M671.034 96.5982C674.229 94.4683 679.021 94.1577 681.684 94.6015C690.203 92.4715 703.204 95.7107 706.976 97.9294C708.529 106.138 706.977 98.595 711.636 111.241C716.294 123.888 714.298 159.83 714.298 163.823C714.298 167.817 711.635 154.505 706.311 158.499C700.986 162.492 700.32 161.161 694.329 157.167C688.627 153.366 671.036 167.151 677.689 155.171C683.76 144.238 667.041 99.2606 671.034 96.5982Z" fill="#CFD2DA"/>
<path d="M676.024 69.9744H701.644C703.854 69.9744 705.644 71.7652 705.644 73.9744V89.9422H676.358L676.024 69.9744Z" fill="#CFD2DA"/>
<path d="M705.646 73.968C705.646 82.7903 698.494 89.9423 689.671 89.9423C680.849 89.9423 676.359 82.7903 676.359 73.968C676.359 65.1456 680.849 57.9937 689.671 57.9937C698.494 57.9937 705.646 65.1456 705.646 73.968Z" fill="#B5BAC7"/>
<path d="M704.314 67.312C704.314 67.312 694.203 71.7897 688.878 71.3056C683.553 70.8214 682.486 69.6177 676.359 70.64C675.026 70.8625 676.686 57.9938 690.337 57.9937C697.546 57.9936 701.652 61.3216 704.314 67.312Z" fill="#CFD2DA"/>
<circle cx="685.679" cy="75.7421" r="0.831192" fill="#8F95A8" stroke="#8F95A8"/>
<circle cx="693.665" cy="75.7421" r="0.831192" fill="#8F95A8" stroke="#8F95A8"/>
<path d="M687.01 82.3979C687.897 84.1729 691.447 84.1729 692.335 82.3979" stroke="#8F95A8" stroke-linecap="round"/>
<path fill-rule="evenodd" clip-rule="evenodd" d="M696.906 89.3637C701.937 87.623 705.645 81.6309 705.645 74.5065C705.645 67.2987 701.849 61.2499 696.729 59.59C696.851 60.4467 697.209 63.751 697.568 74.6335C697.892 84.486 697.262 88.1269 696.906 89.3637ZM695.724 59.3248C695.127 59.2024 694.514 59.1389 693.89 59.1389C693.267 59.1389 692.654 59.2024 692.057 59.3248H695.724Z" fill="#CFD2DA"/>
<path d="M685.678 85.9487H693.665L696.328 95.2671H683.016L685.678 85.9487Z" fill="#B5BAC7"/>
<path d="M681.684 93.9358H697.658V101.254C697.658 102.359 696.762 103.254 695.658 103.254H683.684C682.579 103.254 681.684 102.359 681.684 101.254V93.9358Z" fill="#B5BAC7"/>
<path fill-rule="evenodd" clip-rule="evenodd" d="M682.23 93.9358C677.349 94.1577 669.584 94.8161 666.921 99.9262C663.844 105.828 666.922 126.55 672.912 126.55C674.268 126.55 675.551 126.393 676.776 126.137C676.56 126.909 676.306 127.698 676.038 128.53C674.311 133.893 672.006 141.051 675.588 157.167C676.438 160.989 676.789 163.626 677.14 166.26C677.259 167.151 677.378 168.041 677.515 168.977C678.367 174.755 680.681 178.607 681.354 178.634C682.564 178.681 685.476 168.03 687.678 159.977C688.629 156.501 689.447 153.509 689.938 152.071C690.002 151.829 690.064 151.586 690.125 151.343C690.282 152.028 690.45 152.715 690.631 153.403C691.123 154.841 691.941 157.832 692.891 161.308C695.093 169.361 698.005 180.012 699.215 179.965C699.888 179.939 702.203 176.086 703.054 170.308C703.192 169.372 703.311 168.482 703.429 167.591C703.78 164.957 704.132 162.32 704.981 158.499C708.564 142.382 706.259 135.225 704.531 129.861C704.156 128.697 703.809 127.618 703.554 126.55L703.508 126.554L703.488 126.282C704.593 126.453 705.713 126.55 706.857 126.55C712.847 126.55 716.176 103.92 712.182 99.9262C708.569 96.3128 700.422 93.9358 696.873 93.9358C696.873 93.9358 696.33 96.3784 694.378 98.1441C693.273 99.1436 691.716 99.9262 689.551 99.9262C683.561 99.9262 682.23 93.9358 682.23 93.9358Z" fill="#8F95A8"/>
<path d="M675.028 105.989L677.026 117.897" stroke="#69738C" stroke-width="0.5" stroke-linecap="round"/>
<path d="M675.693 126.55C675.693 126.55 684.346 125.884 691.002 123.888" stroke="#69738C" stroke-width="0.5" stroke-linecap="round"/>
<path d="M703.648 126.55C703.648 126.55 682.349 122.556 677.69 119.228" stroke="#69738C" stroke-width="0.5" stroke-linecap="round"/>
<path d="M697.658 117.232L704.314 115.235V118.563L699.655 117.897L697.658 117.232Z" fill="#B5BAC7"/>
<path d="M679.688 114.569L676.36 113.904L677.025 117.897L677.691 119.228L679.688 114.569Z" fill="#B5BAC7"/>
<path d="M704.98 106.582L704.315 118.563" stroke="#69738C" stroke-width="0.5" stroke-linecap="round"/>
<path d="M704.314 118.563C704.314 118.563 683.015 115.235 679.687 114.569L677.691 119.228" stroke="#69738C" stroke-width="0.5" stroke-linecap="round" stroke-linejoin="round"/>
<path d="M677.025 99.2608C676.492 99.2608 673.697 96.5983 673.031 95.2672C673.031 94.6016 683.681 93.2703 682.35 93.9359C682.004 94.1088 683.015 95.9327 684.346 97.9294L684.335 97.9317C681.011 98.5965 677.69 99.2608 677.025 99.2608Z" fill="#CFD2DA"/>
<path d="M702.319 99.442C702.851 99.442 706.313 96.4167 705.648 95.9324C703.65 94.6014 694.997 93.2701 696.328 93.9357C696.674 94.1086 695.663 95.9326 694.332 97.9293C697.66 98.5949 701.653 99.442 702.319 99.442Z" fill="#CFD2DA"/>
<path d="M680.354 188.45C677.89 177.112 675.992 166.084 677.006 166.083C678.898 166.083 680.873 169.465 681.613 169.457C682.352 169.448 684.569 166.083 686.05 166.083C687.532 166.083 686.591 178.079 685.677 188.45C687.969 192.444 687.969 195.772 685.677 195.772C680.648 195.772 684.346 195.772 680.353 195.772L680.353 195.772C678.315 195.772 676.36 195.772 680.354 188.45Z" fill="#CFD2DA"/>
<path d="M697.659 188.45C695.195 177.112 693.297 166.084 694.311 166.083C696.202 166.083 698.178 169.465 698.917 169.457C699.657 169.448 701.874 166.083 703.355 166.083C704.836 166.083 703.896 178.079 702.982 188.45C705.274 192.444 705.274 195.772 702.982 195.772C697.952 195.772 701.651 195.772 697.658 195.772L697.657 195.772C695.62 195.772 693.665 195.772 697.659 188.45Z" fill="#CFD2DA"/>
<path fill-rule="evenodd" clip-rule="evenodd" d="M265.992 10.0054C263.92 6.98283 260.441 5 256.5 5C250.149 5 245 10.1487 245 16.5C245 17.3586 245.094 18.1951 245.273 19H244C239.029 19 235 23.0294 235 28C235 32.9706 239.029 37 244 37H283C287.971 37 292 32.9706 292 28C292 23.0294 287.971 19 283 19H281.951C281.983 18.6711 282 18.3375 282 18C282 12.4772 277.523 8 272 8C269.745 8 267.665 8.74631 265.992 10.0054Z" fill="#CFD2DA"/>
<path fill-rule="evenodd" clip-rule="evenodd" d="M353.551 164.195C350.572 159.85 345.572 157 339.906 157C330.776 157 323.375 164.401 323.375 173.531C323.375 174.765 323.51 175.968 323.767 177.125H321.937C314.792 177.125 309 182.917 309 190.062C309 197.208 314.792 203 321.937 203H378C385.145 203 390.938 197.208 390.938 190.062C390.938 182.917 385.145 177.125 378 177.125H376.492C376.538 176.652 376.562 176.173 376.562 175.688C376.562 167.748 370.127 161.312 362.188 161.312C358.946 161.312 355.955 162.385 353.551 164.195Z" fill="#CFD2DA"/>
</g>
<defs>
<clipPath id="clip0_3501_13588">
<rect width="1200" height="200" fill="white"/>
</clipPath>
</defs>
</svg>
