<?xml version="1.0" encoding="UTF-8"?>
<svg width="291px" height="50px" viewBox="0 0 291 50" version="1.1" xmlns="http://www.w3.org/2000/svg" xmlns:xlink="http://www.w3.org/1999/xlink">
    <title>footer_logo</title>
    <g id="footer_logo" stroke="none" stroke-width="1" fill="none" fill-rule="evenodd">
        <g id="whale" transform="translate(0.000000, 4.000000)">
            <path d="M19.4680234,20.8906591 C16.1223047,20.8906591 13.4004062,18.1562417 13.4004062,14.7952409 C13.4004062,11.5282535 15.9701953,8.85685696 19.1843438,8.70698802 C19.4915703,12.1217724 22.3555234,14.8068954 25.8334141,14.8068954 L29.8187656,14.8068091 L29.8187656,13.5123766 C29.8187656,11.1059269 28.6694375,8.96468317 26.8939688,7.61137359 C28.6547422,6.43935708 29.8187656,4.43201118 29.8187656,2.15591989 L29.8187656,0 L26.2180703,0 C22.6573359,0 19.7052969,2.66138222 19.2254219,6.10767709 L19.1555547,6.10767709 L19.1555547,6.11078498 L18.9388203,6.11078498 C13.8801094,6.11078498 9.12407031,8.08981463 5.54700781,11.6832159 C1.96994531,15.2767034 0,20.0543801 0,25.1362837 C0,31.7016827 3.32071094,37.6835769 8.88292969,41.1378141 L13.8326719,44 L22.8306719,43.9808347 C29.3199844,43.9808347 44,38.6773219 44,32.1583685 L44,29.5925536 L43.0107734,28.328423 L44,26.9686387 L44,20.9497088 L19.4680234,20.8906591 Z" id="Path" fill="#08AB65" fill-rule="nonzero"></path>
            <path d="M13.655263,44 L7.91011236,44 L7.91011236,41.262617 C7.91011236,35.9484395 12.1995331,31.6404494 17.4908044,31.6404494 L23.2359551,31.6404494 L23.2359551,34.3778324 C23.2359551,39.69201 18.9465343,44 13.655263,44 Z" id="Path" fill="#17F596" fill-rule="nonzero"></path>
            <polygon id="Path" fill="#08AB65" fill-rule="nonzero" points="30.1573034 27.1910112 44 27.1910112 44 29.6629213 30.1573034 29.6629213"></polygon>
            <path d="M30.381315,32.6292135 C30.34475,38.9054899 25.3796259,44 19.2808989,44 L32.8995838,44 C38.9983108,44 43.9634349,38.9054899 44,32.6292135 L30.381315,32.6292135 Z" id="Path" fill="#A5FFD9" fill-rule="nonzero"></path>
            <path d="M30.2034935,32.6292135 C30.1843635,35.8622645 28.8400511,38.7813868 26.6966292,40.8524855 L26.6966292,44 L32.7546437,44 C38.9330029,44 43.9629575,38.9054899 44,32.6292135 L30.2034935,32.6292135 Z" id="Path" fill="#A5FFD9" fill-rule="nonzero"></path>
            <circle id="Oval" fill="#FFFFFF" cx="26.4494382" cy="28.4269663" r="1.23595506"></circle>
            <path d="M35.1622047,32.6292135 C35.1166335,38.9054899 28.9328065,44 22.741573,44 L28.7763134,44 C34.9674597,44 40.0078247,38.9054899 40.0449438,32.6292135 L35.1622047,32.6292135 Z" id="Path" fill="#FFFFFF" fill-rule="nonzero"></path>
            <path d="M35.1164463,32.6292135 C35.0807389,37.5036082 31.3076301,41.6645258 26.6966292,43.2804195 L26.6966292,44 L28.670913,44 C34.9199678,44 40.0074775,38.9055296 40.0449438,32.6292135 L35.1164463,32.6292135 L35.1164463,32.6292135 Z" id="Path" fill="#FFFFFF" fill-rule="nonzero"></path>
        </g>
        <path d="M55.3789062,48.2459016 L55.3789062,28.3826204 L71.7851562,28.3826204 L71.7851562,25.2185579 L55.3789062,25.2185579 L55.3789062,8.75371414 L74.2460938,8.75371414 L74.2460938,5.58965164 L52.0390625,5.58965164 L52.0390625,48.2459016 L55.3789062,48.2459016 Z M90.5351562,48.8318391 C92.2539062,48.8318391 93.8212891,48.5095735 95.2373047,47.8650423 C96.6533203,47.220511 97.8691406,46.2781282 98.8847656,45.0378938 C99.9003906,43.7976595 100.686523,42.2595735 101.243164,40.423636 C101.799805,38.5876985 102.078125,36.4685579 102.078125,34.0662141 L102.078125,34.0662141 L102.078125,30.7849641 C102.078125,28.3826204 101.799805,26.2634798 101.243164,24.4275423 C100.686523,22.5916048 99.9003906,21.0437532 98.8847656,19.7839876 C97.8691406,18.524222 96.6484375,17.5720735 95.2226562,16.9275423 C93.796875,16.283011 92.2148438,15.9607454 90.4765625,15.9607454 C88.7578125,15.9607454 87.1904297,16.283011 85.7744141,16.9275423 C84.3583984,17.5720735 83.1425781,18.524222 82.1269531,19.7839876 C81.1113281,21.0437532 80.3203125,22.5916048 79.7539062,24.4275423 C79.1875,26.2634798 78.9042969,28.3826204 78.9042969,30.7849641 L78.9042969,30.7849641 L78.9042969,34.0662141 C78.9042969,36.4685579 79.1875,38.5876985 79.7539062,40.423636 C80.3203125,42.2595735 81.1113281,43.7976595 82.1269531,45.0378938 C83.1425781,46.2781282 84.3632812,47.220511 85.7890625,47.8650423 C87.2148438,48.5095735 88.796875,48.8318391 90.5351562,48.8318391 Z M90.5351562,45.814261 C89.2070312,45.814261 88.0253906,45.5408235 86.9902344,44.9939485 C85.9550781,44.4470735 85.0810547,43.6658235 84.3681641,42.6501985 C83.6552734,41.6345735 83.1132812,40.4041048 82.7421875,38.9587923 C82.3710938,37.5134798 82.1855469,35.8826204 82.1855469,34.0662141 L82.1855469,34.0662141 L82.1855469,30.7849641 C82.1855469,29.0076204 82.3710938,27.3914095 82.7421875,25.9363313 C83.1132812,24.4812532 83.6552734,23.2410188 84.3681641,22.2156282 C85.0810547,21.1902376 85.9501953,20.399222 86.9755859,19.8425813 C88.0009766,19.2859407 89.1679688,19.0076204 90.4765625,19.0076204 C91.8046875,19.0076204 92.9863281,19.2859407 94.0214844,19.8425813 C95.0566406,20.399222 95.9306641,21.1902376 96.6435547,22.2156282 C97.3564453,23.2410188 97.8984375,24.4812532 98.2695312,25.9363313 C98.640625,27.3914095 98.8261719,29.0076204 98.8261719,30.7849641 L98.8261719,30.7849641 L98.8261719,34.0662141 C98.8261719,35.8826204 98.6552734,37.5134798 98.3134766,38.9587923 C97.9716797,40.4041048 97.4589844,41.6345735 96.7753906,42.6501985 C96.0917969,43.6658235 95.2324219,44.4470735 94.1972656,44.9939485 C93.1621094,45.5408235 91.9414062,45.814261 90.5351562,45.814261 Z M112.830078,48.2459016 L112.830078,26.361136 C113.064453,25.345511 113.391602,24.408011 113.811523,23.548636 C114.231445,22.689261 114.734375,21.9519563 115.320312,21.336722 C115.90625,20.7214876 116.584961,20.242972 117.356445,19.9011751 C118.12793,19.5593782 118.992188,19.3884798 119.949219,19.3884798 C120.339844,19.3884798 120.696289,19.408011 121.018555,19.4470735 C121.34082,19.486136 121.667969,19.5349641 122,19.5935579 L122,19.5935579 L122.058594,16.3416048 C121.882812,16.2439485 121.599609,16.1560579 121.208984,16.0779329 C120.818359,15.9998079 120.447266,15.9607454 120.095703,15.9607454 C118.357422,15.9607454 116.892578,16.4343782 115.701172,17.3816438 C114.509766,18.3289095 113.552734,19.6326204 112.830078,21.2927766 L112.830078,21.2927766 L112.771484,16.5466829 L109.578125,16.5466829 L109.578125,48.2459016 L112.830078,48.2459016 Z M130.847656,48.2459016 L130.847656,26.1853548 C131.082031,25.267386 131.404297,24.3787141 131.814453,23.5193391 C132.224609,22.6599641 132.732422,21.9031282 133.337891,21.2488313 C133.943359,20.5945345 134.65625,20.0671907 135.476562,19.6668001 C136.296875,19.2664095 137.234375,19.0662141 138.289062,19.0662141 C139.226562,19.0662141 140.085938,19.2029329 140.867188,19.4763704 C141.648438,19.7498079 142.317383,20.2039095 142.874023,20.8386751 C143.430664,21.4734407 143.860352,22.3181673 144.163086,23.3728548 C144.46582,24.4275423 144.617188,25.736136 144.617188,27.298636 L144.617188,27.298636 L144.617188,48.2459016 L147.898438,48.2459016 L147.898438,27.1521516 C147.976562,26.2341829 148.186523,25.2966829 148.52832,24.3396516 C148.870117,23.3826204 149.353516,22.5183626 149.978516,21.7468782 C150.603516,20.9753938 151.365234,20.3406282 152.263672,19.8425813 C153.162109,19.3445345 154.197266,19.0857454 155.369141,19.0662141 C156.306641,19.0662141 157.166016,19.1931673 157.947266,19.4470735 C158.728516,19.7009798 159.397461,20.1550813 159.954102,20.8093782 C160.510742,21.4636751 160.94043,22.3376985 161.243164,23.4314485 C161.545898,24.5251985 161.697266,25.9021516 161.697266,27.5623079 L161.697266,27.5623079 L161.697266,48.2459016 L164.949219,48.2459016 L164.949219,27.5916048 C164.949219,25.5408235 164.753906,23.783011 164.363281,22.3181673 C163.972656,20.8533235 163.401367,19.6472688 162.649414,18.7000032 C161.897461,17.7527376 160.979492,17.0593782 159.895508,16.6199251 C158.811523,16.180472 157.576172,15.9607454 156.189453,15.9607454 C155.134766,15.9607454 154.158203,16.1072298 153.259766,16.4001985 C152.361328,16.6931673 151.53125,17.0935579 150.769531,17.6013704 C150.007812,18.1091829 149.329102,18.7244173 148.733398,19.4470735 C148.137695,20.1697298 147.625,20.9509798 147.195312,21.7908235 C146.570312,19.7595735 145.569336,18.2800813 144.192383,17.352347 C142.81543,16.4246126 141.179688,15.9607454 139.285156,15.9607454 C137.351562,15.9607454 135.676758,16.4441438 134.260742,17.4109407 C132.844727,18.3777376 131.6875,19.6716829 130.789062,21.2927766 L130.789062,21.2927766 L130.701172,16.5466829 L127.595703,16.5466829 L127.595703,48.2459016 L130.847656,48.2459016 Z M183.845703,48.8318391 C185.564453,48.8318391 187.131836,48.5095735 188.547852,47.8650423 C189.963867,47.220511 191.179688,46.2781282 192.195312,45.0378938 C193.210938,43.7976595 193.99707,42.2595735 194.553711,40.423636 C195.110352,38.5876985 195.388672,36.4685579 195.388672,34.0662141 L195.388672,34.0662141 L195.388672,30.7849641 C195.388672,28.3826204 195.110352,26.2634798 194.553711,24.4275423 C193.99707,22.5916048 193.210938,21.0437532 192.195312,19.7839876 C191.179688,18.524222 189.958984,17.5720735 188.533203,16.9275423 C187.107422,16.283011 185.525391,15.9607454 183.787109,15.9607454 C182.068359,15.9607454 180.500977,16.283011 179.084961,16.9275423 C177.668945,17.5720735 176.453125,18.524222 175.4375,19.7839876 C174.421875,21.0437532 173.630859,22.5916048 173.064453,24.4275423 C172.498047,26.2634798 172.214844,28.3826204 172.214844,30.7849641 L172.214844,30.7849641 L172.214844,34.0662141 C172.214844,36.4685579 172.498047,38.5876985 173.064453,40.423636 C173.630859,42.2595735 174.421875,43.7976595 175.4375,45.0378938 C176.453125,46.2781282 177.673828,47.220511 179.099609,47.8650423 C180.525391,48.5095735 182.107422,48.8318391 183.845703,48.8318391 Z M183.845703,45.814261 C182.517578,45.814261 181.335938,45.5408235 180.300781,44.9939485 C179.265625,44.4470735 178.391602,43.6658235 177.678711,42.6501985 C176.96582,41.6345735 176.423828,40.4041048 176.052734,38.9587923 C175.681641,37.5134798 175.496094,35.8826204 175.496094,34.0662141 L175.496094,34.0662141 L175.496094,30.7849641 C175.496094,29.0076204 175.681641,27.3914095 176.052734,25.9363313 C176.423828,24.4812532 176.96582,23.2410188 177.678711,22.2156282 C178.391602,21.1902376 179.260742,20.399222 180.286133,19.8425813 C181.311523,19.2859407 182.478516,19.0076204 183.787109,19.0076204 C185.115234,19.0076204 186.296875,19.2859407 187.332031,19.8425813 C188.367188,20.399222 189.241211,21.1902376 189.954102,22.2156282 C190.666992,23.2410188 191.208984,24.4812532 191.580078,25.9363313 C191.951172,27.3914095 192.136719,29.0076204 192.136719,30.7849641 L192.136719,30.7849641 L192.136719,34.0662141 C192.136719,35.8826204 191.96582,37.5134798 191.624023,38.9587923 C191.282227,40.4041048 190.769531,41.6345735 190.085938,42.6501985 C189.402344,43.6658235 188.542969,44.4470735 187.507812,44.9939485 C186.472656,45.5408235 185.251953,45.814261 183.845703,45.814261 Z M212.117188,48.8318391 C213.601562,48.8318391 214.954102,48.6316438 216.174805,48.2312532 C217.395508,47.8308626 218.44043,47.2595735 219.30957,46.517386 C220.178711,45.7751985 220.847656,44.876761 221.316406,43.8220735 C221.785156,42.767386 222.019531,41.5857454 222.019531,40.2771516 C222.019531,39.0076204 221.799805,37.9138704 221.360352,36.9959016 C220.920898,36.0779329 220.295898,35.2527376 219.485352,34.5203157 C218.674805,33.7878938 217.683594,33.1189485 216.511719,32.5134798 C215.339844,31.908011 214.021484,31.283011 212.556641,30.6384798 C211.169922,29.9744173 210.037109,29.3933626 209.158203,28.8953157 C208.279297,28.3972688 207.581055,27.9138704 207.063477,27.4451204 C206.545898,26.9763704 206.189453,26.492972 205.994141,25.9949251 C205.798828,25.4968782 205.701172,24.9255891 205.701172,24.2810579 C205.701172,23.6365266 205.818359,22.9968782 206.052734,22.3621126 C206.287109,21.727347 206.658203,21.1609407 207.166016,20.6628938 C207.673828,20.164847 208.318359,19.7644563 209.099609,19.461722 C209.880859,19.1589876 210.828125,19.0076204 211.941406,19.0076204 C213.015625,19.0076204 213.962891,19.1785188 214.783203,19.5203157 C215.603516,19.8621126 216.296875,20.321097 216.863281,20.8972688 C217.429688,21.4734407 217.859375,22.1375032 218.152344,22.8894563 C218.445312,23.6414095 218.591797,24.4275423 218.591797,25.2478548 L218.591797,25.2478548 L221.84375,25.2478548 C221.84375,23.9001985 221.619141,22.6550813 221.169922,21.5125032 C220.720703,20.3699251 220.071289,19.3884798 219.22168,18.5681673 C218.37207,17.7478548 217.332031,17.1082063 216.101562,16.649222 C214.871094,16.1902376 213.484375,15.9607454 211.941406,15.9607454 C210.496094,15.9607454 209.1875,16.180472 208.015625,16.6199251 C206.84375,17.0593782 205.847656,17.6599641 205.027344,18.4216829 C204.207031,19.1834016 203.577148,20.0769563 203.137695,21.102347 C202.698242,22.1277376 202.478516,23.2263704 202.478516,24.3982454 C202.478516,25.5896516 202.683594,26.6199251 203.09375,27.4890657 C203.503906,28.3582063 204.094727,29.1394563 204.866211,29.8328157 C205.637695,30.5261751 206.589844,31.1707063 207.722656,31.7664095 C208.855469,32.3621126 210.144531,32.9822298 211.589844,33.626761 C212.9375,34.251761 214.06543,34.8376985 214.973633,35.3845735 C215.881836,35.9314485 216.614258,36.4685579 217.170898,36.9959016 C217.727539,37.5232454 218.12793,38.0701204 218.37207,38.6365266 C218.616211,39.2029329 218.738281,39.8084016 218.738281,40.4529329 C218.738281,41.1951204 218.59668,41.8933626 218.313477,42.5476595 C218.030273,43.2019563 217.610352,43.7683626 217.053711,44.2468782 C216.49707,44.7253938 215.803711,45.1062532 214.973633,45.3894563 C214.143555,45.6726595 213.191406,45.814261 212.117188,45.814261 C211.296875,45.814261 210.466797,45.7263704 209.626953,45.5505891 C208.787109,45.3748079 208.025391,45.0525423 207.341797,44.5837923 C206.658203,44.1150423 206.086914,43.4802766 205.62793,42.6794954 C205.168945,41.8787141 204.910156,40.8533235 204.851562,39.6033235 L204.851562,39.6033235 L201.570312,39.6033235 C201.570312,40.8533235 201.799805,42.0349641 202.258789,43.1482454 C202.717773,44.2615266 203.391602,45.2380891 204.280273,46.0779329 C205.168945,46.9177766 206.267578,47.586722 207.576172,48.0847688 C208.884766,48.5828157 210.398438,48.8318391 212.117188,48.8318391 Z M237.078125,48.8318391 C238.113281,48.8318391 239.080078,48.6951204 239.978516,48.4216829 C240.876953,48.1482454 241.692383,47.7820345 242.424805,47.3230501 C243.157227,46.8640657 243.806641,46.336722 244.373047,45.7410188 C244.939453,45.1453157 245.427734,44.5154329 245.837891,43.8513704 C245.876953,44.6716829 245.945312,45.477347 246.042969,46.2683626 C246.140625,47.0593782 246.267578,47.7185579 246.423828,48.2459016 L246.423828,48.2459016 L249.880859,48.2459016 L249.880859,47.8943391 C249.744141,47.5232454 249.62207,47.0886751 249.514648,46.5906282 C249.407227,46.0925813 249.319336,45.5652376 249.250977,45.008597 C249.182617,44.4519563 249.128906,43.8806673 249.089844,43.2947298 C249.050781,42.7087923 249.03125,42.142386 249.03125,41.595511 L249.03125,41.595511 L249.03125,25.423636 C249.03125,23.704886 248.791992,22.2449251 248.313477,21.0437532 C247.834961,19.8425813 247.166016,18.8660188 246.306641,18.1140657 C245.447266,17.3621126 244.426758,16.8152376 243.245117,16.4734407 C242.063477,16.1316438 240.759766,15.9607454 239.333984,15.9607454 C237.791016,15.9607454 236.384766,16.2146516 235.115234,16.7224641 C233.845703,17.2302766 232.761719,17.9138704 231.863281,18.7732454 C230.964844,19.6326204 230.271484,20.6238313 229.783203,21.7468782 C229.294922,22.8699251 229.050781,24.0466829 229.050781,25.2771516 L229.050781,25.2771516 L232.302734,25.3064485 C232.302734,24.3884798 232.46875,23.5437532 232.800781,22.7722688 C233.132812,22.0007845 233.601562,21.336722 234.207031,20.7800813 C234.8125,20.2234407 235.540039,19.7888704 236.389648,19.4763704 C237.239258,19.1638704 238.171875,19.0076204 239.1875,19.0076204 C241.355469,19.0076204 243.000977,19.5007845 244.124023,20.4871126 C245.24707,21.4734407 245.808594,23.0994173 245.808594,25.3650423 L245.808594,25.3650423 L245.808594,29.7888704 L240.447266,29.7888704 C238.455078,29.7888704 236.707031,30.0427766 235.203125,30.5505891 C233.699219,31.0584016 232.444336,31.7615266 231.438477,32.6599641 C230.432617,33.5584016 229.675781,34.6277376 229.167969,35.867972 C228.660156,37.1082063 228.40625,38.4607454 228.40625,39.9255891 C228.40625,41.4099641 228.611328,42.7087923 229.021484,43.8220735 C229.431641,44.9353548 230.017578,45.8630891 230.779297,46.6052766 C231.541016,47.3474641 232.454102,47.9041048 233.518555,48.2751985 C234.583008,48.6462923 235.769531,48.8318391 237.078125,48.8318391 Z M237.488281,45.6970735 C235.671875,45.6970735 234.250977,45.2136751 233.225586,44.2468782 C232.200195,43.2800813 231.6875,41.751761 231.6875,39.6619173 C231.6875,37.4744173 232.458984,35.736136 234.001953,34.4470735 C235.544922,33.158011 237.849609,32.5134798 240.916016,32.5134798 L240.916016,32.5134798 L245.808594,32.5134798 L245.808594,40.2185579 C245.496094,40.9802766 245.081055,41.6931673 244.563477,42.3572298 C244.045898,43.0212923 243.435547,43.602347 242.732422,44.1003938 C242.029297,44.5984407 241.233398,44.9890657 240.344727,45.2722688 C239.456055,45.555472 238.503906,45.6970735 237.488281,45.6970735 Z M261.160156,48.2459016 L261.160156,26.361136 C261.394531,25.345511 261.72168,24.408011 262.141602,23.548636 C262.561523,22.689261 263.064453,21.9519563 263.650391,21.336722 C264.236328,20.7214876 264.915039,20.242972 265.686523,19.9011751 C266.458008,19.5593782 267.322266,19.3884798 268.279297,19.3884798 C268.669922,19.3884798 269.026367,19.408011 269.348633,19.4470735 C269.670898,19.486136 269.998047,19.5349641 270.330078,19.5935579 L270.330078,19.5935579 L270.388672,16.3416048 C270.212891,16.2439485 269.929688,16.1560579 269.539062,16.0779329 C269.148438,15.9998079 268.777344,15.9607454 268.425781,15.9607454 C266.6875,15.9607454 265.222656,16.4343782 264.03125,17.3816438 C262.839844,18.3289095 261.882812,19.6326204 261.160156,21.2927766 L261.160156,21.2927766 L261.101562,16.5466829 L257.908203,16.5466829 L257.908203,48.2459016 L261.160156,48.2459016 Z M285.007812,48.8318391 C285.632812,48.8318391 286.233398,48.7878938 286.80957,48.7000032 C287.385742,48.6121126 287.849609,48.4900423 288.201172,48.3337923 L288.201172,48.3337923 L288.113281,45.4041048 C287.800781,45.4626985 287.439453,45.5261751 287.029297,45.5945345 C286.619141,45.6628938 286.199219,45.6970735 285.769531,45.6970735 C285.320312,45.6970735 284.895508,45.633597 284.495117,45.5066438 C284.094727,45.3796907 283.738281,45.1306673 283.425781,44.7595735 C283.113281,44.3884798 282.864258,43.8660188 282.678711,43.1921907 C282.493164,42.5183626 282.400391,41.6345735 282.400391,40.5408235 L282.400391,40.5408235 L282.400391,19.4763704 L287.820312,19.4763704 L287.820312,16.5466829 L282.400391,16.5466829 L282.400391,8.46074539 L279.148438,8.46074539 L279.148438,16.5466829 L274.255859,16.5466829 L274.255859,19.4763704 L279.148438,19.4763704 L279.148438,40.5115266 C279.148438,42.0935579 279.294922,43.4168001 279.587891,44.4812532 C279.880859,45.5457063 280.291016,46.4001985 280.818359,47.0447298 C281.345703,47.689261 281.96582,48.1482454 282.678711,48.4216829 C283.391602,48.6951204 284.167969,48.8318391 285.007812,48.8318391 Z" id="Formosart" fill="#FFFFFF" fill-rule="nonzero"></path>
    </g>
</svg>