<?xml version="1.0" encoding="UTF-8"?>
<svg width="342px" height="83px" viewBox="0 0 342 83" version="1.1" xmlns="http://www.w3.org/2000/svg" xmlns:xlink="http://www.w3.org/1999/xlink">
    <title>formosa_logo_bgwhite</title>
    <g id="formosa_logo_bgwhite" stroke="none" stroke-width="1" fill="none" fill-rule="evenodd">
        <path d="M86.9375,68 L86.9375,46.8125 L104.4375,46.8125 L104.4375,43.4375 L86.9375,43.4375 L86.9375,25.875 L107.0625,25.875 L107.0625,22.5 L83.375,22.5 L83.375,68 L86.9375,68 Z M124.4375,68.625 C126.270833,68.625 127.942708,68.28125 129.453125,67.59375 C130.963542,66.90625 132.260417,65.9010417 133.34375,64.578125 C134.427083,63.2552083 135.265625,61.6145833 135.859375,59.65625 C136.453125,57.6979167 136.75,55.4375 136.75,52.875 L136.75,52.875 L136.75,49.375 C136.75,46.8125 136.453125,44.5520833 135.859375,42.59375 C135.265625,40.6354167 134.427083,38.984375 133.34375,37.640625 C132.260417,36.296875 130.958333,35.28125 129.4375,34.59375 C127.916667,33.90625 126.229167,33.5625 124.375,33.5625 C122.541667,33.5625 120.869792,33.90625 119.359375,34.59375 C117.848958,35.28125 116.552083,36.296875 115.46875,37.640625 C114.385417,38.984375 113.541667,40.6354167 112.9375,42.59375 C112.333333,44.5520833 112.03125,46.8125 112.03125,49.375 L112.03125,49.375 L112.03125,52.875 C112.03125,55.4375 112.333333,57.6979167 112.9375,59.65625 C113.541667,61.6145833 114.385417,63.2552083 115.46875,64.578125 C116.552083,65.9010417 117.854167,66.90625 119.375,67.59375 C120.895833,68.28125 122.583333,68.625 124.4375,68.625 Z M124.4375,65.40625 C123.020833,65.40625 121.760417,65.1145833 120.65625,64.53125 C119.552083,63.9479167 118.619792,63.1145833 117.859375,62.03125 C117.098958,60.9479167 116.520833,59.6354167 116.125,58.09375 C115.729167,56.5520833 115.53125,54.8125 115.53125,52.875 L115.53125,52.875 L115.53125,49.375 C115.53125,47.4791667 115.729167,45.7552083 116.125,44.203125 C116.520833,42.6510417 117.098958,41.328125 117.859375,40.234375 C118.619792,39.140625 119.546875,38.296875 120.640625,37.703125 C121.734375,37.109375 122.979167,36.8125 124.375,36.8125 C125.791667,36.8125 127.052083,37.109375 128.15625,37.703125 C129.260417,38.296875 130.192708,39.140625 130.953125,40.234375 C131.713542,41.328125 132.291667,42.6510417 132.6875,44.203125 C133.083333,45.7552083 133.28125,47.4791667 133.28125,49.375 L133.28125,49.375 L133.28125,52.875 C133.28125,54.8125 133.098958,56.5520833 132.734375,58.09375 C132.369792,59.6354167 131.822917,60.9479167 131.09375,62.03125 C130.364583,63.1145833 129.447917,63.9479167 128.34375,64.53125 C127.239583,65.1145833 125.9375,65.40625 124.4375,65.40625 Z M148.21875,68 L148.21875,44.65625 C148.46875,43.5729167 148.817708,42.5729167 149.265625,41.65625 C149.713542,40.7395833 150.25,39.953125 150.875,39.296875 C151.5,38.640625 152.223958,38.1302083 153.046875,37.765625 C153.869792,37.4010417 154.791667,37.21875 155.8125,37.21875 C156.229167,37.21875 156.609375,37.2395833 156.953125,37.28125 C157.296875,37.3229167 157.645833,37.375 158,37.4375 L158,37.4375 L158.0625,33.96875 C157.875,33.8645833 157.572917,33.7708333 157.15625,33.6875 C156.739583,33.6041667 156.34375,33.5625 155.96875,33.5625 C154.114583,33.5625 152.552083,34.0677083 151.28125,35.078125 C150.010417,36.0885417 148.989583,37.4791667 148.21875,39.25 L148.21875,39.25 L148.15625,34.1875 L144.75,34.1875 L144.75,68 L148.21875,68 Z M167.4375,68 L167.4375,44.46875 C167.6875,43.4895833 168.03125,42.5416667 168.46875,41.625 C168.90625,40.7083333 169.447917,39.9010417 170.09375,39.203125 C170.739583,38.5052083 171.5,37.9427083 172.375,37.515625 C173.25,37.0885417 174.25,36.875 175.375,36.875 C176.375,36.875 177.291667,37.0208333 178.125,37.3125 C178.958333,37.6041667 179.671875,38.0885417 180.265625,38.765625 C180.859375,39.4427083 181.317708,40.34375 181.640625,41.46875 C181.963542,42.59375 182.125,43.9895833 182.125,45.65625 L182.125,45.65625 L182.125,68 L185.625,68 L185.625,45.5 C185.708333,44.5208333 185.932292,43.5208333 186.296875,42.5 C186.661458,41.4791667 187.177083,40.5572917 187.84375,39.734375 C188.510417,38.9114583 189.322917,38.234375 190.28125,37.703125 C191.239583,37.171875 192.34375,36.8958333 193.59375,36.875 C194.59375,36.875 195.510417,37.0104167 196.34375,37.28125 C197.177083,37.5520833 197.890625,38.0364583 198.484375,38.734375 C199.078125,39.4322917 199.536458,40.3645833 199.859375,41.53125 C200.182292,42.6979167 200.34375,44.1666667 200.34375,45.9375 L200.34375,45.9375 L200.34375,68 L203.8125,68 L203.8125,45.96875 C203.8125,43.78125 203.604167,41.90625 203.1875,40.34375 C202.770833,38.78125 202.161458,37.4947917 201.359375,36.484375 C200.557292,35.4739583 199.578125,34.734375 198.421875,34.265625 C197.265625,33.796875 195.947917,33.5625 194.46875,33.5625 C193.34375,33.5625 192.302083,33.71875 191.34375,34.03125 C190.385417,34.34375 189.5,34.7708333 188.6875,35.3125 C187.875,35.8541667 187.151042,36.5104167 186.515625,37.28125 C185.880208,38.0520833 185.333333,38.8854167 184.875,39.78125 C184.208333,37.6145833 183.140625,36.0364583 181.671875,35.046875 C180.203125,34.0572917 178.458333,33.5625 176.4375,33.5625 C174.375,33.5625 172.588542,34.078125 171.078125,35.109375 C169.567708,36.140625 168.333333,37.5208333 167.375,39.25 L167.375,39.25 L167.28125,34.1875 L163.96875,34.1875 L163.96875,68 L167.4375,68 Z M223.96875,68.625 C225.802083,68.625 227.473958,68.28125 228.984375,67.59375 C230.494792,66.90625 231.791667,65.9010417 232.875,64.578125 C233.958333,63.2552083 234.796875,61.6145833 235.390625,59.65625 C235.984375,57.6979167 236.28125,55.4375 236.28125,52.875 L236.28125,52.875 L236.28125,49.375 C236.28125,46.8125 235.984375,44.5520833 235.390625,42.59375 C234.796875,40.6354167 233.958333,38.984375 232.875,37.640625 C231.791667,36.296875 230.489583,35.28125 228.96875,34.59375 C227.447917,33.90625 225.760417,33.5625 223.90625,33.5625 C222.072917,33.5625 220.401042,33.90625 218.890625,34.59375 C217.380208,35.28125 216.083333,36.296875 215,37.640625 C213.916667,38.984375 213.072917,40.6354167 212.46875,42.59375 C211.864583,44.5520833 211.5625,46.8125 211.5625,49.375 L211.5625,49.375 L211.5625,52.875 C211.5625,55.4375 211.864583,57.6979167 212.46875,59.65625 C213.072917,61.6145833 213.916667,63.2552083 215,64.578125 C216.083333,65.9010417 217.385417,66.90625 218.90625,67.59375 C220.427083,68.28125 222.114583,68.625 223.96875,68.625 Z M223.96875,65.40625 C222.552083,65.40625 221.291667,65.1145833 220.1875,64.53125 C219.083333,63.9479167 218.151042,63.1145833 217.390625,62.03125 C216.630208,60.9479167 216.052083,59.6354167 215.65625,58.09375 C215.260417,56.5520833 215.0625,54.8125 215.0625,52.875 L215.0625,52.875 L215.0625,49.375 C215.0625,47.4791667 215.260417,45.7552083 215.65625,44.203125 C216.052083,42.6510417 216.630208,41.328125 217.390625,40.234375 C218.151042,39.140625 219.078125,38.296875 220.171875,37.703125 C221.265625,37.109375 222.510417,36.8125 223.90625,36.8125 C225.322917,36.8125 226.583333,37.109375 227.6875,37.703125 C228.791667,38.296875 229.723958,39.140625 230.484375,40.234375 C231.244792,41.328125 231.822917,42.6510417 232.21875,44.203125 C232.614583,45.7552083 232.8125,47.4791667 232.8125,49.375 L232.8125,49.375 L232.8125,52.875 C232.8125,54.8125 232.630208,56.5520833 232.265625,58.09375 C231.901042,59.6354167 231.354167,60.9479167 230.625,62.03125 C229.895833,63.1145833 228.979167,63.9479167 227.875,64.53125 C226.770833,65.1145833 225.46875,65.40625 223.96875,65.40625 Z M254.125,68.625 C255.708333,68.625 257.151042,68.4114583 258.453125,67.984375 C259.755208,67.5572917 260.869792,66.9479167 261.796875,66.15625 C262.723958,65.3645833 263.4375,64.40625 263.9375,63.28125 C264.4375,62.15625 264.6875,60.8958333 264.6875,59.5 C264.6875,58.1458333 264.453125,56.9791667 263.984375,56 C263.515625,55.0208333 262.848958,54.140625 261.984375,53.359375 C261.119792,52.578125 260.0625,51.8645833 258.8125,51.21875 C257.5625,50.5729167 256.15625,49.90625 254.59375,49.21875 C253.114583,48.5104167 251.90625,47.890625 250.96875,47.359375 C250.03125,46.828125 249.286458,46.3125 248.734375,45.8125 C248.182292,45.3125 247.802083,44.796875 247.59375,44.265625 C247.385417,43.734375 247.28125,43.125 247.28125,42.4375 C247.28125,41.75 247.40625,41.0677083 247.65625,40.390625 C247.90625,39.7135417 248.302083,39.109375 248.84375,38.578125 C249.385417,38.046875 250.072917,37.6197917 250.90625,37.296875 C251.739583,36.9739583 252.75,36.8125 253.9375,36.8125 C255.083333,36.8125 256.09375,36.9947917 256.96875,37.359375 C257.84375,37.7239583 258.583333,38.2135417 259.1875,38.828125 C259.791667,39.4427083 260.25,40.1510417 260.5625,40.953125 C260.875,41.7552083 261.03125,42.59375 261.03125,43.46875 L261.03125,43.46875 L264.5,43.46875 C264.5,42.03125 264.260417,40.703125 263.78125,39.484375 C263.302083,38.265625 262.609375,37.21875 261.703125,36.34375 C260.796875,35.46875 259.6875,34.7864583 258.375,34.296875 C257.0625,33.8072917 255.583333,33.5625 253.9375,33.5625 C252.395833,33.5625 251,33.796875 249.75,34.265625 C248.5,34.734375 247.4375,35.375 246.5625,36.1875 C245.6875,37 245.015625,37.953125 244.546875,39.046875 C244.078125,40.140625 243.84375,41.3125 243.84375,42.5625 C243.84375,43.8333333 244.0625,44.9322917 244.5,45.859375 C244.9375,46.7864583 245.567708,47.6197917 246.390625,48.359375 C247.213542,49.0989583 248.229167,49.7864583 249.4375,50.421875 C250.645833,51.0572917 252.020833,51.71875 253.5625,52.40625 C255,53.0729167 256.203125,53.6979167 257.171875,54.28125 C258.140625,54.8645833 258.921875,55.4375 259.515625,56 C260.109375,56.5625 260.536458,57.1458333 260.796875,57.75 C261.057292,58.3541667 261.1875,59 261.1875,59.6875 C261.1875,60.4791667 261.036458,61.2239583 260.734375,61.921875 C260.432292,62.6197917 259.984375,63.2239583 259.390625,63.734375 C258.796875,64.2447917 258.057292,64.6510417 257.171875,64.953125 C256.286458,65.2552083 255.270833,65.40625 254.125,65.40625 C253.25,65.40625 252.364583,65.3125 251.46875,65.125 C250.572917,64.9375 249.760417,64.59375 249.03125,64.09375 C248.302083,63.59375 247.692708,62.9166667 247.203125,62.0625 C246.713542,61.2083333 246.4375,60.1145833 246.375,58.78125 L246.375,58.78125 L242.875,58.78125 C242.875,60.1145833 243.119792,61.375 243.609375,62.5625 C244.098958,63.75 244.817708,64.7916667 245.765625,65.6875 C246.713542,66.5833333 247.885417,67.296875 249.28125,67.828125 C250.677083,68.359375 252.291667,68.625 254.125,68.625 Z M280.75,68.625 C281.854167,68.625 282.885417,68.4791667 283.84375,68.1875 C284.802083,67.8958333 285.671875,67.5052083 286.453125,67.015625 C287.234375,66.5260417 287.927083,65.9635417 288.53125,65.328125 C289.135417,64.6927083 289.65625,64.0208333 290.09375,63.3125 C290.135417,64.1875 290.208333,65.046875 290.3125,65.890625 C290.416667,66.734375 290.552083,67.4375 290.71875,68 L290.71875,68 L294.40625,68 L294.40625,67.625 C294.260417,67.2291667 294.130208,66.765625 294.015625,66.234375 C293.901042,65.703125 293.807292,65.140625 293.734375,64.546875 C293.661458,63.953125 293.604167,63.34375 293.5625,62.71875 C293.520833,62.09375 293.5,61.4895833 293.5,60.90625 L293.5,60.90625 L293.5,43.65625 C293.5,41.8229167 293.244792,40.265625 292.734375,38.984375 C292.223958,37.703125 291.510417,36.6614583 290.59375,35.859375 C289.677083,35.0572917 288.588542,34.4739583 287.328125,34.109375 C286.067708,33.7447917 284.677083,33.5625 283.15625,33.5625 C281.510417,33.5625 280.010417,33.8333333 278.65625,34.375 C277.302083,34.9166667 276.145833,35.6458333 275.1875,36.5625 C274.229167,37.4791667 273.489583,38.5364583 272.96875,39.734375 C272.447917,40.9322917 272.1875,42.1875 272.1875,43.5 L272.1875,43.5 L275.65625,43.53125 C275.65625,42.5520833 275.833333,41.6510417 276.1875,40.828125 C276.541667,40.0052083 277.041667,39.296875 277.6875,38.703125 C278.333333,38.109375 279.109375,37.6458333 280.015625,37.3125 C280.921875,36.9791667 281.916667,36.8125 283,36.8125 C285.3125,36.8125 287.067708,37.3385417 288.265625,38.390625 C289.463542,39.4427083 290.0625,41.1770833 290.0625,43.59375 L290.0625,43.59375 L290.0625,48.3125 L284.34375,48.3125 C282.21875,48.3125 280.354167,48.5833333 278.75,49.125 C277.145833,49.6666667 275.807292,50.4166667 274.734375,51.375 C273.661458,52.3333333 272.854167,53.4739583 272.3125,54.796875 C271.770833,56.1197917 271.5,57.5625 271.5,59.125 C271.5,60.7083333 271.71875,62.09375 272.15625,63.28125 C272.59375,64.46875 273.21875,65.4583333 274.03125,66.25 C274.84375,67.0416667 275.817708,67.6354167 276.953125,68.03125 C278.088542,68.4270833 279.354167,68.625 280.75,68.625 Z M281.1875,65.28125 C279.25,65.28125 277.734375,64.765625 276.640625,63.734375 C275.546875,62.703125 275,61.0729167 275,58.84375 C275,56.5104167 275.822917,54.65625 277.46875,53.28125 C279.114583,51.90625 281.572917,51.21875 284.84375,51.21875 L284.84375,51.21875 L290.0625,51.21875 L290.0625,59.4375 C289.729167,60.25 289.286458,61.0104167 288.734375,61.71875 C288.182292,62.4270833 287.53125,63.046875 286.78125,63.578125 C286.03125,64.109375 285.182292,64.5260417 284.234375,64.828125 C283.286458,65.1302083 282.270833,65.28125 281.1875,65.28125 Z M306.4375,68 L306.4375,44.65625 C306.6875,43.5729167 307.036458,42.5729167 307.484375,41.65625 C307.932292,40.7395833 308.46875,39.953125 309.09375,39.296875 C309.71875,38.640625 310.442708,38.1302083 311.265625,37.765625 C312.088542,37.4010417 313.010417,37.21875 314.03125,37.21875 C314.447917,37.21875 314.828125,37.2395833 315.171875,37.28125 C315.515625,37.3229167 315.864583,37.375 316.21875,37.4375 L316.21875,37.4375 L316.28125,33.96875 C316.09375,33.8645833 315.791667,33.7708333 315.375,33.6875 C314.958333,33.6041667 314.5625,33.5625 314.1875,33.5625 C312.333333,33.5625 310.770833,34.0677083 309.5,35.078125 C308.229167,36.0885417 307.208333,37.4791667 306.4375,39.25 L306.4375,39.25 L306.375,34.1875 L302.96875,34.1875 L302.96875,68 L306.4375,68 Z M331.875,68.625 C332.541667,68.625 333.182292,68.578125 333.796875,68.484375 C334.411458,68.390625 334.90625,68.2604167 335.28125,68.09375 L335.28125,68.09375 L335.1875,64.96875 C334.854167,65.03125 334.46875,65.0989583 334.03125,65.171875 C333.59375,65.2447917 333.145833,65.28125 332.6875,65.28125 C332.208333,65.28125 331.755208,65.2135417 331.328125,65.078125 C330.901042,64.9427083 330.520833,64.6770833 330.1875,64.28125 C329.854167,63.8854167 329.588542,63.328125 329.390625,62.609375 C329.192708,61.890625 329.09375,60.9479167 329.09375,59.78125 L329.09375,59.78125 L329.09375,37.3125 L334.875,37.3125 L334.875,34.1875 L329.09375,34.1875 L329.09375,25.5625 L325.625,25.5625 L325.625,34.1875 L320.40625,34.1875 L320.40625,37.3125 L325.625,37.3125 L325.625,59.75 C325.625,61.4375 325.78125,62.8489583 326.09375,63.984375 C326.40625,65.1197917 326.84375,66.03125 327.40625,66.71875 C327.96875,67.40625 328.630208,67.8958333 329.390625,68.1875 C330.151042,68.4791667 330.979167,68.625 331.875,68.625 Z" id="Formosart" fill="#000000" fill-rule="nonzero"></path>
        <g id="whale" transform="translate(3.000000, 6.000000)">
            <path d="M31.4143105,33.7099272 C26.0155371,33.7099272 21.6233828,29.2975718 21.6233828,23.8741387 C21.6233828,18.602409 25.7700879,14.2917465 30.9565547,14.0499125 C31.4523066,19.5601328 36.0736855,23.8929449 41.6857363,23.8929449 L48.1166445,23.8928056 L48.1166445,21.8040622 C48.1166445,17.9209276 46.2620469,14.4657387 43.3970859,12.2819892 C46.238334,10.3907807 48.1166445,7.1516544 48.1166445,3.47887072 L48.1166445,0 L42.3064316,0 C36.5607012,0 31.7971836,4.29450313 31.0228398,9.85556986 L30.9100996,9.85556986 L30.9100996,9.86058485 L30.5603691,9.86058485 C22.3974492,9.86058485 14.7229316,13.0540191 8.95085352,18.852462 C3.17877539,24.6510442 0,32.3604769 0,40.5608215 C0,51.1549879 5.35841992,60.80759 14.3338184,66.3814728 L22.3209023,71 L36.8404023,70.9690742 C47.311793,70.9690742 71,62.411133 71,51.8919128 L71,47.7516207 L69.403748,45.7117735 L71,43.517576 L71,33.805212 L31.4143105,33.7099272 Z" id="Path" fill="#08AB65" fill-rule="nonzero"></path>
            <path d="M22.0346289,71 L12.7640449,71 L12.7640449,66.5828593 C12.7640449,58.0077091 19.6856103,51.0561798 28.223798,51.0561798 L37.494382,51.0561798 L37.494382,55.4733205 C37.494382,64.0484707 30.5728167,71 22.0346289,71 Z" id="Path" fill="#17F596" fill-rule="nonzero"></path>
            <polygon id="Path" fill="#08AB65" fill-rule="nonzero" points="48.6629213 43.8764045 71 43.8764045 71 47.8651685 48.6629213 47.8651685"></polygon>
            <path d="M49.0243947,52.6516854 C48.965392,62.7793133 40.9534872,71 31.1123596,71 L53.0879648,71 C62.9290925,71 70.9409973,62.7793133 71,52.6516854 L49.0243947,52.6516854 Z" id="Path" fill="#A5FFD9" fill-rule="nonzero"></path>
            <path d="M48.7374554,52.6516854 C48.7065866,57.8686541 46.5373551,62.5790559 43.0786517,65.9210561 L43.0786517,71 L52.8540842,71 C62.8237092,71 70.9402269,62.7793133 71,52.6516854 L48.7374554,52.6516854 Z" id="Path" fill="#A5FFD9" fill-rule="nonzero"></path>
            <circle id="Oval" fill="#FFFFFF" cx="42.6797753" cy="45.8707865" r="1.99438202"></circle>
            <path d="M56.7390121,52.6516854 C56.6654768,62.7793133 46.6870286,71 36.6966292,71 L46.4345058,71 C56.4247646,71 64.5580807,62.7793133 64.6179775,52.6516854 L56.7390121,52.6516854 Z" id="Path" fill="#FFFFFF" fill-rule="nonzero"></path>
            <path d="M56.6651747,52.6516854 C56.607556,60.5171859 50.5191304,67.2313939 43.0786517,69.8388588 L43.0786517,71 L46.2644277,71 C56.3481298,71 64.5575204,62.7793773 64.6179775,52.6516854 L56.6651747,52.6516854 L56.6651747,52.6516854 Z" id="Path" fill="#FFFFFF" fill-rule="nonzero"></path>
        </g>
    </g>
</svg>