<?xml version="1.0" encoding="utf-8"?>
<!-- Generator: Adobe Illustrator 25.2.3, SVG Export Plug-In . SVG Version: 6.00 Build 0)  -->
<svg version="1.1" id="Layer_1" xmlns="http://www.w3.org/2000/svg" xmlns:xlink="http://www.w3.org/1999/xlink" x="0px" y="0px"
	 viewBox="0 0 342 83" style="enable-background:new 0 0 342 83;" xml:space="preserve">
<style type="text/css">
	.st0{clip-path:url(#SVGID_1_);}
	.st1{clip-path:url(#SVGID_2_);fill:#00A964;}
	.st2{clip-path:url(#SVGID_3_);}
	.st3{clip-path:url(#SVGID_4_);fill:#1AF495;}
	.st4{clip-path:url(#SVGID_5_);fill:#00A964;}
	.st5{clip-path:url(#SVGID_6_);}
	.st6{clip-path:url(#SVGID_7_);fill:#A4FDD8;}
	.st7{clip-path:url(#SVGID_8_);}
	.st8{clip-path:url(#SVGID_9_);fill:#A4FDD8;}
	.st9{clip-path:url(#SVGID_10_);}
	.st10{clip-path:url(#SVGID_11_);fill:#FFFFFF;}
	.st11{clip-path:url(#SVGID_12_);}
	.st12{clip-path:url(#SVGID_13_);fill:#FFFFFF;}
	.st13{clip-path:url(#SVGID_14_);}
	.st14{clip-path:url(#SVGID_15_);fill:#FFFFFF;}
</style>
<g>
	<path d="M91.9,62.2V27.5h19.3v2H93.9v14.3h14.4v2H93.9v16.3H91.9z"/>
	<path d="M125.5,62.9c-2.6,0-4.7-0.6-6.5-1.8c-1.8-1.2-3.1-2.8-4-4.9c-0.9-2.1-1.4-4.5-1.4-7.2c0-2.7,0.5-5.1,1.4-7.2
		c0.9-2.1,2.3-3.7,4.1-4.8c1.8-1.1,3.9-1.7,6.4-1.7c2.6,0,4.8,0.6,6.5,1.7c1.8,1.2,3.1,2.8,4,4.8c0.9,2.1,1.4,4.4,1.4,7.1
		c0,2.7-0.5,5.2-1.4,7.2c-0.9,2.1-2.3,3.7-4,4.8C130.2,62.3,128,62.9,125.5,62.9z M125.5,60.9c3.3,0,5.7-1.1,7.3-3.3s2.4-5,2.4-8.5
		c0-3.5-0.8-6.4-2.4-8.5c-1.6-2.1-4-3.2-7.3-3.2c-2.2,0-4,0.5-5.5,1.5c-1.4,1-2.5,2.4-3.2,4.1c-0.7,1.8-1.1,3.8-1.1,6
		c0,3.5,0.8,6.4,2.5,8.5S122.3,60.9,125.5,60.9z"/>
	<path d="M142.9,62.2v-26h1.9v6.2l-0.6-0.8c0.3-0.7,0.6-1.4,1-2c0.4-0.6,0.8-1.1,1.2-1.5c0.7-0.7,1.5-1.2,2.5-1.6
		c1-0.4,1.9-0.6,2.9-0.6c1-0.1,1.8,0,2.6,0.3v1.9c-1.1-0.2-2.2-0.3-3.4-0.1c-1.2,0.2-2.3,0.7-3.4,1.7c-0.9,0.9-1.6,1.8-1.9,2.9
		c-0.4,1.1-0.6,2.3-0.7,3.4c-0.1,1.2-0.1,2.3-0.1,3.4v12.8H142.9z"/>
	<path d="M159.3,62.2v-26h1.9v5.3h0.1v20.7H159.3z M174.7,62.2l0-17.6c0-2.2-0.6-4-1.9-5.3s-2.9-2-4.8-2c-2,0-3.7,0.7-4.9,2.1
		c-1.3,1.4-1.9,3.2-1.9,5.5l-1.8-0.8c0-1.7,0.4-3.2,1.1-4.5c0.8-1.3,1.8-2.3,3.1-3.1c1.3-0.7,2.8-1.1,4.6-1.1c1.5,0,2.8,0.3,4.1,0.9
		c1.3,0.6,2.3,1.6,3.1,2.9s1.2,3,1.2,5l0,17.9H174.7z M190.2,62.2l0-17.9c0-2.2-0.6-3.9-1.9-5.1c-1.3-1.2-2.8-1.9-4.7-1.9
		c-1,0-2.1,0.2-3.1,0.7c-1.1,0.5-1.9,1.3-2.6,2.4c-0.7,1.1-1.1,2.6-1.1,4.6H175c-0.1-1.9,0.3-3.6,1-5s1.8-2.5,3.1-3.3
		s2.9-1.2,4.6-1.2c2.5,0,4.5,0.8,6.1,2.3c1.6,1.5,2.4,3.7,2.4,6.4l0,18.1H190.2z"/>
	<path d="M209.2,62.9c-2.6,0-4.7-0.6-6.5-1.8c-1.8-1.2-3.1-2.8-4-4.9c-0.9-2.1-1.4-4.5-1.4-7.2c0-2.7,0.5-5.1,1.4-7.2
		c0.9-2.1,2.3-3.7,4.1-4.8c1.8-1.1,3.9-1.7,6.4-1.7c2.6,0,4.8,0.6,6.5,1.7c1.8,1.2,3.1,2.8,4,4.8c0.9,2.1,1.4,4.4,1.4,7.1
		c0,2.7-0.5,5.2-1.4,7.2c-0.9,2.1-2.3,3.7-4,4.8C213.9,62.3,211.7,62.9,209.2,62.9z M209.2,60.9c3.3,0,5.7-1.1,7.3-3.3
		s2.4-5,2.4-8.5c0-3.5-0.8-6.4-2.4-8.5c-1.6-2.1-4.1-3.2-7.3-3.2c-2.2,0-4,0.5-5.5,1.5c-1.4,1-2.5,2.4-3.2,4.1
		c-0.7,1.8-1.1,3.8-1.1,6c0,3.5,0.8,6.4,2.5,8.5C203.6,59.8,206,60.9,209.2,60.9z"/>
	<path d="M236.1,62.9c-2.9,0-5.4-0.6-7.3-1.8s-3.1-2.9-3.6-5.1l2.1-0.4c0.4,1.6,1.4,2.9,3,3.9c1.6,1,3.6,1.4,5.9,1.4
		c2.4,0,4.2-0.5,5.6-1.5c1.4-1,2.1-2.4,2.1-4.1c0-0.9-0.2-1.7-0.6-2.3s-1.2-1.2-2.4-1.6c-1.2-0.5-3-1.1-5.4-1.7
		c-2.5-0.7-4.4-1.3-5.8-2c-1.4-0.6-2.3-1.3-2.9-2.1c-0.6-0.8-0.8-1.8-0.8-2.9c0-1.4,0.4-2.6,1.2-3.7s2-1.9,3.4-2.5
		c1.4-0.6,3.1-0.9,5-0.9c1.9,0,3.6,0.3,5.2,1s2.8,1.5,3.7,2.6s1.5,2.4,1.6,3.9l-2.1,0.4c-0.3-1.8-1.2-3.2-2.8-4.3
		c-1.6-1.1-3.5-1.6-5.8-1.6c-2.2,0-3.9,0.4-5.3,1.3s-2.1,2.1-2.1,3.6c0,0.8,0.2,1.5,0.7,2.1c0.5,0.6,1.3,1.1,2.4,1.6
		c1.2,0.5,2.8,1,4.8,1.5c2.6,0.7,4.6,1.3,6.1,2c1.5,0.7,2.5,1.5,3.1,2.4c0.6,0.9,0.9,2,0.9,3.3c0,2.4-0.9,4.2-2.7,5.6
		C241.6,62.2,239.2,62.9,236.1,62.9z"/>
	<path d="M249.2,62.2l12.6-34.7h2.2l12.6,34.7h-2.2l-12.3-33.8h1.4l-12.2,33.8H249.2z M254,53.2v-1.9h17.7v1.9H254z"/>
	<path d="M281.2,62.2v-26h1.9v6.2l-0.6-0.8c0.3-0.7,0.6-1.4,1-2c0.4-0.6,0.8-1.1,1.2-1.5c0.7-0.7,1.5-1.2,2.5-1.6
		c1-0.4,1.9-0.6,2.9-0.6c1-0.1,1.8,0,2.6,0.3v1.9c-1.1-0.2-2.2-0.3-3.4-0.1c-1.2,0.2-2.3,0.7-3.4,1.7c-0.9,0.9-1.6,1.8-1.9,2.9
		c-0.4,1.1-0.6,2.3-0.7,3.4c-0.1,1.2-0.1,2.3-0.1,3.4v12.8H281.2z"/>
	<path d="M294.7,38.2v-2H311v2H294.7z M311,62.2c-1.3,0.3-2.6,0.4-3.9,0.3c-1.3-0.1-2.4-0.4-3.4-0.9s-1.7-1.4-2.2-2.4
		c-0.4-0.9-0.6-1.7-0.6-2.6c0-0.9-0.1-1.9-0.1-3V29h2v24.6c0,1.1,0,2,0,2.7c0,0.7,0.2,1.3,0.5,2c0.6,1.2,1.5,1.9,2.7,2.1
		s2.9,0.2,4.9-0.1V62.2z"/>
</g>
<g>
	<g>
		<defs>
			<rect id="SVGID_31_" x="24.1" y="13.4" width="55.5" height="55.5"/>
		</defs>
		<defs>
			<path id="SVGID_32_" d="M48.7,39.8c-4.2,0-7.7-3.4-7.7-7.7c0-4.1,3.2-7.5,7.3-7.7c0.4,4.3,4,7.7,8.4,7.7l5,0v-1.6
				c0-3-1.4-5.7-3.7-7.4c2.2-1.5,3.7-4,3.7-6.9v-2.7h-4.5c-4.5,0-8.2,3.4-8.8,7.7h-0.1v0H48c-6.4,0-12.4,2.5-16.9,7
				c-4.5,4.5-7,10.6-7,17c0,8.3,4.2,15.8,11.2,20.2l6.2,3.6l11.4,0c8.2,0,26.7-6.7,26.7-14.9v-3.2l-1.2-1.6l1.2-1.7v-7.6L48.7,39.8
				L48.7,39.8z"/>
		</defs>
		<clipPath id="SVGID_1_">
			<use xlink:href="#SVGID_31_"  style="overflow:visible;"/>
		</clipPath>
		<clipPath id="SVGID_2_" class="st0">
			<use xlink:href="#SVGID_32_"  style="overflow:visible;"/>
		</clipPath>
		<rect x="23.6" y="12.9" class="st1" width="56.6" height="56.6"/>
	</g>
	<g>
		<defs>
			<rect id="SVGID_35_" x="24.1" y="13.4" width="55.5" height="55.5"/>
		</defs>
		<defs>
			<path id="SVGID_36_" d="M41.3,69h-7.2v-3.5c0-6.7,5.4-12.2,12.1-12.2h7.2v3.5C53.4,63.5,48,69,41.3,69L41.3,69z"/>
		</defs>
		<clipPath id="SVGID_3_">
			<use xlink:href="#SVGID_35_"  style="overflow:visible;"/>
		</clipPath>
		<clipPath id="SVGID_4_" class="st2">
			<use xlink:href="#SVGID_36_"  style="overflow:visible;"/>
		</clipPath>
		<rect x="33.5" y="52.8" class="st3" width="20.4" height="16.7"/>
	</g>
	<g>
		<defs>
			<rect id="SVGID_39_" x="62.2" y="47.7" width="17.5" height="3.1"/>
		</defs>
		<clipPath id="SVGID_5_">
			<use xlink:href="#SVGID_39_"  style="overflow:visible;"/>
		</clipPath>
		<rect x="61.6" y="47.2" class="st4" width="18.5" height="4.2"/>
	</g>
	<g>
		<defs>
			<rect id="SVGID_41_" x="24.1" y="13.4" width="55.5" height="55.5"/>
		</defs>
		<defs>
			<path id="SVGID_42_" d="M62.4,54.6c0,7.9-6.3,14.3-14,14.3h17.2c7.7,0,14-6.4,14-14.3H62.4L62.4,54.6z"/>
		</defs>
		<clipPath id="SVGID_6_">
			<use xlink:href="#SVGID_41_"  style="overflow:visible;"/>
		</clipPath>
		<clipPath id="SVGID_7_" class="st5">
			<use xlink:href="#SVGID_42_"  style="overflow:visible;"/>
		</clipPath>
		<rect x="47.9" y="54.1" class="st6" width="32.3" height="15.4"/>
	</g>
	<g>
		<defs>
			<rect id="SVGID_45_" x="24.1" y="13.4" width="55.5" height="55.5"/>
		</defs>
		<defs>
			<path id="SVGID_46_" d="M62.2,54.6c0,4.1-1.7,7.7-4.4,10.3v4h7.6c7.8,0,14.1-6.4,14.2-14.3H62.2L62.2,54.6z"/>
		</defs>
		<clipPath id="SVGID_8_">
			<use xlink:href="#SVGID_45_"  style="overflow:visible;"/>
		</clipPath>
		<clipPath id="SVGID_9_" class="st7">
			<use xlink:href="#SVGID_46_"  style="overflow:visible;"/>
		</clipPath>
		<rect x="57.3" y="54.1" class="st8" width="22.9" height="15.4"/>
	</g>
	<g>
		<defs>
			<rect id="SVGID_49_" x="24.1" y="13.4" width="55.5" height="55.5"/>
		</defs>
		<defs>
			<path id="SVGID_50_" d="M57.5,50.8c0.9,0,1.6-0.7,1.6-1.6s-0.7-1.6-1.6-1.6s-1.6,0.7-1.6,1.6S56.6,50.8,57.5,50.8L57.5,50.8z"/>
		</defs>
		<clipPath id="SVGID_10_">
			<use xlink:href="#SVGID_49_"  style="overflow:visible;"/>
		</clipPath>
		<clipPath id="SVGID_11_" class="st9">
			<use xlink:href="#SVGID_50_"  style="overflow:visible;"/>
		</clipPath>
		<rect x="55.3" y="47.2" class="st10" width="4.2" height="4.2"/>
	</g>
	<g>
		<defs>
			<rect id="SVGID_53_" x="24.1" y="13.4" width="55.5" height="55.5"/>
		</defs>
		<defs>
			<path id="SVGID_54_" d="M68.5,54.6C68.4,62.5,60.6,69,52.8,69h7.6c7.8,0,14.1-6.4,14.2-14.3H68.5L68.5,54.6z"/>
		</defs>
		<clipPath id="SVGID_12_">
			<use xlink:href="#SVGID_53_"  style="overflow:visible;"/>
		</clipPath>
		<clipPath id="SVGID_13_" class="st11">
			<use xlink:href="#SVGID_54_"  style="overflow:visible;"/>
		</clipPath>
		<rect x="52.3" y="54.1" class="st12" width="22.9" height="15.4"/>
	</g>
	<g>
		<defs>
			<rect id="SVGID_57_" x="24.1" y="13.4" width="55.5" height="55.5"/>
		</defs>
		<defs>
			<path id="SVGID_58_" d="M68.4,54.6c0,6.1-4.8,11.4-10.6,13.4V69h2.5c7.9,0,14.3-6.4,14.3-14.3H68.4L68.4,54.6L68.4,54.6z"/>
		</defs>
		<clipPath id="SVGID_14_">
			<use xlink:href="#SVGID_57_"  style="overflow:visible;"/>
		</clipPath>
		<clipPath id="SVGID_15_" class="st13">
			<use xlink:href="#SVGID_58_"  style="overflow:visible;"/>
		</clipPath>
		<rect x="57.3" y="54.1" class="st14" width="17.9" height="15.4"/>
	</g>
</g>
</svg>
