<?xml version="1.0" encoding="UTF-8"?>
<svg width="254px" height="59px" viewBox="0 0 254 59" version="1.1" xmlns="http://www.w3.org/2000/svg" xmlns:xlink="http://www.w3.org/1999/xlink">
    <title>formosa_head_logo</title>
    <g id="formosa_head_logo" stroke="none" stroke-width="1" fill="none" fill-rule="evenodd">
        <path d="M8.37890625,53 L8.37890625,33.1367188 L24.7851562,33.1367188 L24.7851562,29.9726562 L8.37890625,29.9726562 L8.37890625,13.5078125 L27.2460938,13.5078125 L27.2460938,10.34375 L5.0390625,10.34375 L5.0390625,53 L8.37890625,53 Z M43.5351562,53.5859375 C45.2539062,53.5859375 46.8212891,53.2636719 48.2373047,52.6191406 C49.6533203,51.9746094 50.8691406,51.0322266 51.8847656,49.7919922 C52.9003906,48.5517578 53.6865234,47.0136719 54.2431641,45.1777344 C54.7998047,43.3417969 55.078125,41.2226562 55.078125,38.8203125 L55.078125,38.8203125 L55.078125,35.5390625 C55.078125,33.1367188 54.7998047,31.0175781 54.2431641,29.1816406 C53.6865234,27.3457031 52.9003906,25.7978516 51.8847656,24.5380859 C50.8691406,23.2783203 49.6484375,22.3261719 48.2226562,21.6816406 C46.796875,21.0371094 45.2148438,20.7148438 43.4765625,20.7148438 C41.7578125,20.7148438 40.1904297,21.0371094 38.7744141,21.6816406 C37.3583984,22.3261719 36.1425781,23.2783203 35.1269531,24.5380859 C34.1113281,25.7978516 33.3203125,27.3457031 32.7539062,29.1816406 C32.1875,31.0175781 31.9042969,33.1367188 31.9042969,35.5390625 L31.9042969,35.5390625 L31.9042969,38.8203125 C31.9042969,41.2226562 32.1875,43.3417969 32.7539062,45.1777344 C33.3203125,47.0136719 34.1113281,48.5517578 35.1269531,49.7919922 C36.1425781,51.0322266 37.3632812,51.9746094 38.7890625,52.6191406 C40.2148438,53.2636719 41.796875,53.5859375 43.5351562,53.5859375 Z M43.5351562,50.5683594 C42.2070312,50.5683594 41.0253906,50.2949219 39.9902344,49.7480469 C38.9550781,49.2011719 38.0810547,48.4199219 37.3681641,47.4042969 C36.6552734,46.3886719 36.1132812,45.1582031 35.7421875,43.7128906 C35.3710938,42.2675781 35.1855469,40.6367188 35.1855469,38.8203125 L35.1855469,38.8203125 L35.1855469,35.5390625 C35.1855469,33.7617188 35.3710938,32.1455078 35.7421875,30.6904297 C36.1132812,29.2353516 36.6552734,27.9951172 37.3681641,26.9697266 C38.0810547,25.9443359 38.9501953,25.1533203 39.9755859,24.5966797 C41.0009766,24.0400391 42.1679688,23.7617188 43.4765625,23.7617188 C44.8046875,23.7617188 45.9863281,24.0400391 47.0214844,24.5966797 C48.0566406,25.1533203 48.9306641,25.9443359 49.6435547,26.9697266 C50.3564453,27.9951172 50.8984375,29.2353516 51.2695312,30.6904297 C51.640625,32.1455078 51.8261719,33.7617188 51.8261719,35.5390625 L51.8261719,35.5390625 L51.8261719,38.8203125 C51.8261719,40.6367188 51.6552734,42.2675781 51.3134766,43.7128906 C50.9716797,45.1582031 50.4589844,46.3886719 49.7753906,47.4042969 C49.0917969,48.4199219 48.2324219,49.2011719 47.1972656,49.7480469 C46.1621094,50.2949219 44.9414062,50.5683594 43.5351562,50.5683594 Z M65.8300781,53 L65.8300781,31.1152344 C66.0644531,30.0996094 66.3916016,29.1621094 66.8115234,28.3027344 C67.2314453,27.4433594 67.734375,26.7060547 68.3203125,26.0908203 C68.90625,25.4755859 69.5849609,24.9970703 70.3564453,24.6552734 C71.1279297,24.3134766 71.9921875,24.1425781 72.9492188,24.1425781 C73.3398438,24.1425781 73.6962891,24.1621094 74.0185547,24.2011719 C74.3408203,24.2402344 74.6679688,24.2890625 75,24.3476562 L75,24.3476562 L75.0585938,21.0957031 C74.8828125,20.9980469 74.5996094,20.9101562 74.2089844,20.8320312 C73.8183594,20.7539062 73.4472656,20.7148438 73.0957031,20.7148438 C71.3574219,20.7148438 69.8925781,21.1884766 68.7011719,22.1357422 C67.5097656,23.0830078 66.5527344,24.3867188 65.8300781,26.046875 L65.8300781,26.046875 L65.7714844,21.3007812 L62.578125,21.3007812 L62.578125,53 L65.8300781,53 Z M83.8476562,53 L83.8476562,30.9394531 C84.0820312,30.0214844 84.4042969,29.1328125 84.8144531,28.2734375 C85.2246094,27.4140625 85.7324219,26.6572266 86.3378906,26.0029297 C86.9433594,25.3486328 87.65625,24.8212891 88.4765625,24.4208984 C89.296875,24.0205078 90.234375,23.8203125 91.2890625,23.8203125 C92.2265625,23.8203125 93.0859375,23.9570312 93.8671875,24.2304688 C94.6484375,24.5039062 95.3173828,24.9580078 95.8740234,25.5927734 C96.4306641,26.2275391 96.8603516,27.0722656 97.1630859,28.1269531 C97.4658203,29.1816406 97.6171875,30.4902344 97.6171875,32.0527344 L97.6171875,32.0527344 L97.6171875,53 L100.898438,53 L100.898438,31.90625 C100.976562,30.9882812 101.186523,30.0507812 101.52832,29.09375 C101.870117,28.1367188 102.353516,27.2724609 102.978516,26.5009766 C103.603516,25.7294922 104.365234,25.0947266 105.263672,24.5966797 C106.162109,24.0986328 107.197266,23.8398438 108.369141,23.8203125 C109.306641,23.8203125 110.166016,23.9472656 110.947266,24.2011719 C111.728516,24.4550781 112.397461,24.9091797 112.954102,25.5634766 C113.510742,26.2177734 113.94043,27.0917969 114.243164,28.1855469 C114.545898,29.2792969 114.697266,30.65625 114.697266,32.3164062 L114.697266,32.3164062 L114.697266,53 L117.949219,53 L117.949219,32.3457031 C117.949219,30.2949219 117.753906,28.5371094 117.363281,27.0722656 C116.972656,25.6074219 116.401367,24.4013672 115.649414,23.4541016 C114.897461,22.5068359 113.979492,21.8134766 112.895508,21.3740234 C111.811523,20.9345703 110.576172,20.7148438 109.189453,20.7148438 C108.134766,20.7148438 107.158203,20.8613281 106.259766,21.1542969 C105.361328,21.4472656 104.53125,21.8476562 103.769531,22.3554688 C103.007812,22.8632812 102.329102,23.4785156 101.733398,24.2011719 C101.137695,24.9238281 100.625,25.7050781 100.195312,26.5449219 C99.5703125,24.5136719 98.5693359,23.0341797 97.1923828,22.1064453 C95.8154297,21.1787109 94.1796875,20.7148438 92.2851562,20.7148438 C90.3515625,20.7148438 88.6767578,21.1982422 87.2607422,22.1650391 C85.8447266,23.1318359 84.6875,24.4257812 83.7890625,26.046875 L83.7890625,26.046875 L83.7011719,21.3007812 L80.5957031,21.3007812 L80.5957031,53 L83.8476562,53 Z M136.845703,53.5859375 C138.564453,53.5859375 140.131836,53.2636719 141.547852,52.6191406 C142.963867,51.9746094 144.179688,51.0322266 145.195312,49.7919922 C146.210938,48.5517578 146.99707,47.0136719 147.553711,45.1777344 C148.110352,43.3417969 148.388672,41.2226562 148.388672,38.8203125 L148.388672,38.8203125 L148.388672,35.5390625 C148.388672,33.1367188 148.110352,31.0175781 147.553711,29.1816406 C146.99707,27.3457031 146.210938,25.7978516 145.195312,24.5380859 C144.179688,23.2783203 142.958984,22.3261719 141.533203,21.6816406 C140.107422,21.0371094 138.525391,20.7148438 136.787109,20.7148438 C135.068359,20.7148438 133.500977,21.0371094 132.084961,21.6816406 C130.668945,22.3261719 129.453125,23.2783203 128.4375,24.5380859 C127.421875,25.7978516 126.630859,27.3457031 126.064453,29.1816406 C125.498047,31.0175781 125.214844,33.1367188 125.214844,35.5390625 L125.214844,35.5390625 L125.214844,38.8203125 C125.214844,41.2226562 125.498047,43.3417969 126.064453,45.1777344 C126.630859,47.0136719 127.421875,48.5517578 128.4375,49.7919922 C129.453125,51.0322266 130.673828,51.9746094 132.099609,52.6191406 C133.525391,53.2636719 135.107422,53.5859375 136.845703,53.5859375 Z M136.845703,50.5683594 C135.517578,50.5683594 134.335938,50.2949219 133.300781,49.7480469 C132.265625,49.2011719 131.391602,48.4199219 130.678711,47.4042969 C129.96582,46.3886719 129.423828,45.1582031 129.052734,43.7128906 C128.681641,42.2675781 128.496094,40.6367188 128.496094,38.8203125 L128.496094,38.8203125 L128.496094,35.5390625 C128.496094,33.7617188 128.681641,32.1455078 129.052734,30.6904297 C129.423828,29.2353516 129.96582,27.9951172 130.678711,26.9697266 C131.391602,25.9443359 132.260742,25.1533203 133.286133,24.5966797 C134.311523,24.0400391 135.478516,23.7617188 136.787109,23.7617188 C138.115234,23.7617188 139.296875,24.0400391 140.332031,24.5966797 C141.367188,25.1533203 142.241211,25.9443359 142.954102,26.9697266 C143.666992,27.9951172 144.208984,29.2353516 144.580078,30.6904297 C144.951172,32.1455078 145.136719,33.7617188 145.136719,35.5390625 L145.136719,35.5390625 L145.136719,38.8203125 C145.136719,40.6367188 144.96582,42.2675781 144.624023,43.7128906 C144.282227,45.1582031 143.769531,46.3886719 143.085938,47.4042969 C142.402344,48.4199219 141.542969,49.2011719 140.507812,49.7480469 C139.472656,50.2949219 138.251953,50.5683594 136.845703,50.5683594 Z M165.117188,53.5859375 C166.601562,53.5859375 167.954102,53.3857422 169.174805,52.9853516 C170.395508,52.5849609 171.44043,52.0136719 172.30957,51.2714844 C173.178711,50.5292969 173.847656,49.6308594 174.316406,48.5761719 C174.785156,47.5214844 175.019531,46.3398438 175.019531,45.03125 C175.019531,43.7617188 174.799805,42.6679688 174.360352,41.75 C173.920898,40.8320312 173.295898,40.0068359 172.485352,39.2744141 C171.674805,38.5419922 170.683594,37.8730469 169.511719,37.2675781 C168.339844,36.6621094 167.021484,36.0371094 165.556641,35.3925781 C164.169922,34.7285156 163.037109,34.1474609 162.158203,33.6494141 C161.279297,33.1513672 160.581055,32.6679688 160.063477,32.1992188 C159.545898,31.7304688 159.189453,31.2470703 158.994141,30.7490234 C158.798828,30.2509766 158.701172,29.6796875 158.701172,29.0351562 C158.701172,28.390625 158.818359,27.7509766 159.052734,27.1162109 C159.287109,26.4814453 159.658203,25.9150391 160.166016,25.4169922 C160.673828,24.9189453 161.318359,24.5185547 162.099609,24.2158203 C162.880859,23.9130859 163.828125,23.7617188 164.941406,23.7617188 C166.015625,23.7617188 166.962891,23.9326172 167.783203,24.2744141 C168.603516,24.6162109 169.296875,25.0751953 169.863281,25.6513672 C170.429688,26.2275391 170.859375,26.8916016 171.152344,27.6435547 C171.445312,28.3955078 171.591797,29.1816406 171.591797,30.0019531 L171.591797,30.0019531 L174.84375,30.0019531 C174.84375,28.6542969 174.619141,27.4091797 174.169922,26.2666016 C173.720703,25.1240234 173.071289,24.1425781 172.22168,23.3222656 C171.37207,22.5019531 170.332031,21.8623047 169.101562,21.4033203 C167.871094,20.9443359 166.484375,20.7148438 164.941406,20.7148438 C163.496094,20.7148438 162.1875,20.9345703 161.015625,21.3740234 C159.84375,21.8134766 158.847656,22.4140625 158.027344,23.1757812 C157.207031,23.9375 156.577148,24.8310547 156.137695,25.8564453 C155.698242,26.8818359 155.478516,27.9804688 155.478516,29.1523438 C155.478516,30.34375 155.683594,31.3740234 156.09375,32.2431641 C156.503906,33.1123047 157.094727,33.8935547 157.866211,34.5869141 C158.637695,35.2802734 159.589844,35.9248047 160.722656,36.5205078 C161.855469,37.1162109 163.144531,37.7363281 164.589844,38.3808594 C165.9375,39.0058594 167.06543,39.5917969 167.973633,40.1386719 C168.881836,40.6855469 169.614258,41.2226562 170.170898,41.75 C170.727539,42.2773438 171.12793,42.8242188 171.37207,43.390625 C171.616211,43.9570312 171.738281,44.5625 171.738281,45.2070312 C171.738281,45.9492188 171.59668,46.6474609 171.313477,47.3017578 C171.030273,47.9560547 170.610352,48.5224609 170.053711,49.0009766 C169.49707,49.4794922 168.803711,49.8603516 167.973633,50.1435547 C167.143555,50.4267578 166.191406,50.5683594 165.117188,50.5683594 C164.296875,50.5683594 163.466797,50.4804688 162.626953,50.3046875 C161.787109,50.1289062 161.025391,49.8066406 160.341797,49.3378906 C159.658203,48.8691406 159.086914,48.234375 158.62793,47.4335938 C158.168945,46.6328125 157.910156,45.6074219 157.851562,44.3574219 L157.851562,44.3574219 L154.570312,44.3574219 C154.570312,45.6074219 154.799805,46.7890625 155.258789,47.9023438 C155.717773,49.015625 156.391602,49.9921875 157.280273,50.8320312 C158.168945,51.671875 159.267578,52.3408203 160.576172,52.8388672 C161.884766,53.3369141 163.398438,53.5859375 165.117188,53.5859375 Z M190.078125,53.5859375 C191.113281,53.5859375 192.080078,53.4492188 192.978516,53.1757812 C193.876953,52.9023438 194.692383,52.5361328 195.424805,52.0771484 C196.157227,51.6181641 196.806641,51.0908203 197.373047,50.4951172 C197.939453,49.8994141 198.427734,49.2695312 198.837891,48.6054688 C198.876953,49.4257812 198.945312,50.2314453 199.042969,51.0224609 C199.140625,51.8134766 199.267578,52.4726562 199.423828,53 L199.423828,53 L202.880859,53 L202.880859,52.6484375 C202.744141,52.2773438 202.62207,51.8427734 202.514648,51.3447266 C202.407227,50.8466797 202.319336,50.3193359 202.250977,49.7626953 C202.182617,49.2060547 202.128906,48.6347656 202.089844,48.0488281 C202.050781,47.4628906 202.03125,46.8964844 202.03125,46.3496094 L202.03125,46.3496094 L202.03125,30.1777344 C202.03125,28.4589844 201.791992,26.9990234 201.313477,25.7978516 C200.834961,24.5966797 200.166016,23.6201172 199.306641,22.8681641 C198.447266,22.1162109 197.426758,21.5693359 196.245117,21.2275391 C195.063477,20.8857422 193.759766,20.7148438 192.333984,20.7148438 C190.791016,20.7148438 189.384766,20.96875 188.115234,21.4765625 C186.845703,21.984375 185.761719,22.6679688 184.863281,23.5273438 C183.964844,24.3867188 183.271484,25.3779297 182.783203,26.5009766 C182.294922,27.6240234 182.050781,28.8007812 182.050781,30.03125 L182.050781,30.03125 L185.302734,30.0605469 C185.302734,29.1425781 185.46875,28.2978516 185.800781,27.5263672 C186.132812,26.7548828 186.601562,26.0908203 187.207031,25.5341797 C187.8125,24.9775391 188.540039,24.5429688 189.389648,24.2304688 C190.239258,23.9179688 191.171875,23.7617188 192.1875,23.7617188 C194.355469,23.7617188 196.000977,24.2548828 197.124023,25.2412109 C198.24707,26.2275391 198.808594,27.8535156 198.808594,30.1191406 L198.808594,30.1191406 L198.808594,34.5429688 L193.447266,34.5429688 C191.455078,34.5429688 189.707031,34.796875 188.203125,35.3046875 C186.699219,35.8125 185.444336,36.515625 184.438477,37.4140625 C183.432617,38.3125 182.675781,39.3818359 182.167969,40.6220703 C181.660156,41.8623047 181.40625,43.2148438 181.40625,44.6796875 C181.40625,46.1640625 181.611328,47.4628906 182.021484,48.5761719 C182.431641,49.6894531 183.017578,50.6171875 183.779297,51.359375 C184.541016,52.1015625 185.454102,52.6582031 186.518555,53.0292969 C187.583008,53.4003906 188.769531,53.5859375 190.078125,53.5859375 Z M190.488281,50.4511719 C188.671875,50.4511719 187.250977,49.9677734 186.225586,49.0009766 C185.200195,48.0341797 184.6875,46.5058594 184.6875,44.4160156 C184.6875,42.2285156 185.458984,40.4902344 187.001953,39.2011719 C188.544922,37.9121094 190.849609,37.2675781 193.916016,37.2675781 L193.916016,37.2675781 L198.808594,37.2675781 L198.808594,44.9726562 C198.496094,45.734375 198.081055,46.4472656 197.563477,47.1113281 C197.045898,47.7753906 196.435547,48.3564453 195.732422,48.8544922 C195.029297,49.3525391 194.233398,49.7431641 193.344727,50.0263672 C192.456055,50.3095703 191.503906,50.4511719 190.488281,50.4511719 Z M214.160156,53 L214.160156,31.1152344 C214.394531,30.0996094 214.72168,29.1621094 215.141602,28.3027344 C215.561523,27.4433594 216.064453,26.7060547 216.650391,26.0908203 C217.236328,25.4755859 217.915039,24.9970703 218.686523,24.6552734 C219.458008,24.3134766 220.322266,24.1425781 221.279297,24.1425781 C221.669922,24.1425781 222.026367,24.1621094 222.348633,24.2011719 C222.670898,24.2402344 222.998047,24.2890625 223.330078,24.3476562 L223.330078,24.3476562 L223.388672,21.0957031 C223.212891,20.9980469 222.929688,20.9101562 222.539062,20.8320312 C222.148438,20.7539062 221.777344,20.7148438 221.425781,20.7148438 C219.6875,20.7148438 218.222656,21.1884766 217.03125,22.1357422 C215.839844,23.0830078 214.882812,24.3867188 214.160156,26.046875 L214.160156,26.046875 L214.101562,21.3007812 L210.908203,21.3007812 L210.908203,53 L214.160156,53 Z M238.007812,53.5859375 C238.632812,53.5859375 239.233398,53.5419922 239.80957,53.4541016 C240.385742,53.3662109 240.849609,53.2441406 241.201172,53.0878906 L241.201172,53.0878906 L241.113281,50.1582031 C240.800781,50.2167969 240.439453,50.2802734 240.029297,50.3486328 C239.619141,50.4169922 239.199219,50.4511719 238.769531,50.4511719 C238.320312,50.4511719 237.895508,50.3876953 237.495117,50.2607422 C237.094727,50.1337891 236.738281,49.8847656 236.425781,49.5136719 C236.113281,49.1425781 235.864258,48.6201172 235.678711,47.9462891 C235.493164,47.2724609 235.400391,46.3886719 235.400391,45.2949219 L235.400391,45.2949219 L235.400391,24.2304688 L240.820312,24.2304688 L240.820312,21.3007812 L235.400391,21.3007812 L235.400391,13.2148438 L232.148438,13.2148438 L232.148438,21.3007812 L227.255859,21.3007812 L227.255859,24.2304688 L232.148438,24.2304688 L232.148438,45.265625 C232.148438,46.8476562 232.294922,48.1708984 232.587891,49.2353516 C232.880859,50.2998047 233.291016,51.1542969 233.818359,51.7988281 C234.345703,52.4433594 234.96582,52.9023438 235.678711,53.1757812 C236.391602,53.4492188 237.167969,53.5859375 238.007812,53.5859375 Z" id="Formosart" fill="#FFFFFF" fill-rule="nonzero"></path>
    </g>
</svg>