<?xml version="1.0" encoding="UTF-8"?>
<svg width="254px" height="50px" viewBox="0 0 254 50" version="1.1" xmlns="http://www.w3.org/2000/svg" xmlns:xlink="http://www.w3.org/1999/xlink">
    <title>formosa_logo</title>
    <g id="formosa_logo" stroke="none" stroke-width="1" fill="none" fill-rule="evenodd">
        <g id="whale" transform="translate(0.000000, 4.000000)">
            <path d="M19.4680234,20.8906591 C16.1223047,20.8906591 13.4004062,18.1562417 13.4004062,14.7952409 C13.4004062,11.5282535 15.9701953,8.85685696 19.1843438,8.70698802 C19.4915703,12.1217724 22.3555234,14.8068954 25.8334141,14.8068954 L29.8187656,14.8068091 L29.8187656,13.5123766 C29.8187656,11.1059269 28.6694375,8.96468317 26.8939688,7.61137359 C28.6547422,6.43935708 29.8187656,4.43201118 29.8187656,2.15591989 L29.8187656,0 L26.2180703,0 C22.6573359,0 19.7052969,2.66138222 19.2254219,6.10767709 L19.1555547,6.10767709 L19.1555547,6.11078498 L18.9388203,6.11078498 C13.8801094,6.11078498 9.12407031,8.08981463 5.54700781,11.6832159 C1.96994531,15.2767034 0,20.0543801 0,25.1362837 C0,31.7016827 3.32071094,37.6835769 8.88292969,41.1378141 L13.8326719,44 L22.8306719,43.9808347 C29.3199844,43.9808347 44,38.6773219 44,32.1583685 L44,29.5925536 L43.0107734,28.328423 L44,26.9686387 L44,20.9497088 L19.4680234,20.8906591 Z" id="Path" fill="#08AB65" fill-rule="nonzero"></path>
            <path d="M13.655263,44 L7.91011236,44 L7.91011236,41.262617 C7.91011236,35.9484395 12.1995331,31.6404494 17.4908044,31.6404494 L23.2359551,31.6404494 L23.2359551,34.3778324 C23.2359551,39.69201 18.9465343,44 13.655263,44 Z" id="Path" fill="#17F596" fill-rule="nonzero"></path>
            <polygon id="Path" fill="#08AB65" fill-rule="nonzero" points="30.1573034 27.1910112 44 27.1910112 44 29.6629213 30.1573034 29.6629213"></polygon>
            <path d="M30.381315,32.6292135 C30.34475,38.9054899 25.3796259,44 19.2808989,44 L32.8995838,44 C38.9983108,44 43.9634349,38.9054899 44,32.6292135 L30.381315,32.6292135 Z" id="Path" fill="#A5FFD9" fill-rule="nonzero"></path>
            <path d="M30.2034935,32.6292135 C30.1843635,35.8622645 28.8400511,38.7813868 26.6966292,40.8524855 L26.6966292,44 L32.7546437,44 C38.9330029,44 43.9629575,38.9054899 44,32.6292135 L30.2034935,32.6292135 Z" id="Path" fill="#A5FFD9" fill-rule="nonzero"></path>
            <circle id="Oval" fill="#FFFFFF" cx="26.4494382" cy="28.4269663" r="1.23595506"></circle>
            <path d="M35.1622047,32.6292135 C35.1166335,38.9054899 28.9328065,44 22.741573,44 L28.7763134,44 C34.9674597,44 40.0078247,38.9054899 40.0449438,32.6292135 L35.1622047,32.6292135 Z" id="Path" fill="#FFFFFF" fill-rule="nonzero"></path>
            <path d="M35.1164463,32.6292135 C35.0807389,37.5036082 31.3076301,41.6645258 26.6966292,43.2804195 L26.6966292,44 L28.670913,44 C34.9199678,44 40.0074775,38.9055296 40.0449438,32.6292135 L35.1164463,32.6292135 L35.1164463,32.6292135 Z" id="Path" fill="#FFFFFF" fill-rule="nonzero"></path>
        </g>
        <text id="Formosa" font-family="RobotoCondensed-Light, Roboto Condensed" font-size="60" font-style="condensed" font-weight="300" line-spacing="80" fill="#FFFFFF">
            <tspan x="47" y="42">Formosa</tspan>
        </text>
    </g>
</svg>