<svg id="Layer_1" data-name="Layer 1" xmlns="http://www.w3.org/2000/svg" xmlns:xlink="http://www.w3.org/1999/xlink" viewBox="0 0 245 59"><defs><style>.cls-1,.cls-2,.cls-3{fill:none;}.cls-2{clip-path:url(#clip-path);}.cls-3{clip-path:url(#clip-path-2);clip-rule:evenodd;}.cls-4{clip-path:url(#clip-path-8);}.cls-5{fill:#00a964;}.cls-6{clip-path:url(#clip-path-9);}.cls-7{fill:#1af495;}.cls-8{clip-path:url(#clip-path-10);}.cls-9{clip-path:url(#clip-path-11);}.cls-10{fill:#a4fdd8;}.cls-11{clip-path:url(#clip-path-12);}.cls-12{clip-path:url(#clip-path-13);}.cls-13{fill:#fff;}.cls-14{clip-path:url(#clip-path-14);}.cls-15{clip-path:url(#clip-path-15);}</style><clipPath id="clip-path"><rect id="SVGID" class="cls-1" x="1.57" y="5.52" width="46.83" height="46.83"/></clipPath><clipPath id="clip-path-2"><rect id="SVGID-2" data-name="SVGID" class="cls-1" x="1.57" y="5.52" width="46.83" height="46.83"/></clipPath><clipPath id="clip-path-8"><path id="SVGID-8" data-name="SVGID" class="cls-2" d="M22.29,27.75a6.49,6.49,0,0,1-.31-13,7.13,7.13,0,0,0,7.08,6.49H33.3V19.9a7.88,7.88,0,0,0-3.11-6.28A7,7,0,0,0,33.3,7.81V5.52H29.47A7.53,7.53,0,0,0,22,12h-.31A20.2,20.2,0,0,0,1.57,32.27,19.93,19.93,0,0,0,11,49.3l5.27,3,9.57,0c6.91,0,22.53-5.64,22.53-12.58V37l-1-1.35,1-1.44V27.81l-26.1-.06Z"/></clipPath><clipPath id="clip-path-9"><path id="SVGID-9" data-name="SVGID" class="cls-2" d="M16.08,52.34H10V49.43A10.22,10.22,0,0,1,20.16,39.17h6.1v2.92A10.22,10.22,0,0,1,16.08,52.34Z"/></clipPath><clipPath id="clip-path-10"><rect id="SVGID-10" data-name="SVGID" class="cls-1" x="33.67" y="34.42" width="14.72" height="2.65"/></clipPath><clipPath id="clip-path-11"><path id="SVGID-11" data-name="SVGID" class="cls-2" d="M33.88,40.27A12,12,0,0,1,22.05,52.34H36.56A12,12,0,0,0,48.39,40.27Z"/></clipPath><clipPath id="clip-path-12"><path id="SVGID-12" data-name="SVGID" class="cls-2" d="M33.74,40.27A12.2,12.2,0,0,1,30,49v3.34h6.44A12.06,12.06,0,0,0,48.39,40.27Z"/></clipPath><clipPath id="clip-path-13"><path id="SVGID-13" data-name="SVGID" class="cls-3" d="M29.69,37.07a1.33,1.33,0,1,0-1.33-1.33,1.33,1.33,0,0,0,1.33,1.33Z"/></clipPath><clipPath id="clip-path-14"><path id="SVGID-14" data-name="SVGID" class="cls-2" d="M39,40.27c0,6.66-6.62,12.07-13.2,12.07h6.41a12.08,12.08,0,0,0,12-12.07Z"/></clipPath><clipPath id="clip-path-15"><path id="SVGID-15" data-name="SVGID" class="cls-2" d="M39,40.27c0,5.18-4,9.59-8.94,11.31v.76h2.1A12.13,12.13,0,0,0,44.19,40.27Z"/></clipPath></defs><path d="M58.75,46.64V17.39H75v1.7H60.46V31.16H72.57v1.71H60.46V46.64Z"/><path d="M87.07,47.25a9.69,9.69,0,0,1-5.48-1.48,9.3,9.3,0,0,1-3.39-4.11,14.65,14.65,0,0,1-1.16-6,14.45,14.45,0,0,1,1.18-6.05,9.09,9.09,0,0,1,3.42-4,11,11,0,0,1,10.94,0A9.18,9.18,0,0,1,96,29.64a14.62,14.62,0,0,1,1.15,6A14.89,14.89,0,0,1,96,41.71a9.24,9.24,0,0,1-3.4,4.08A9.87,9.87,0,0,1,87.07,47.25Zm0-1.71a7.17,7.17,0,0,0,6.18-2.75,11.77,11.77,0,0,0,2-7.16,11.51,11.51,0,0,0-2-7.16,7.28,7.28,0,0,0-6.17-2.67,7.9,7.9,0,0,0-4.6,1.26,7.55,7.55,0,0,0-2.71,3.47,13.5,13.5,0,0,0-.89,5.1A11.5,11.5,0,0,0,81,42.82,7.22,7.22,0,0,0,87.07,45.54Z"/><path d="M101.78,46.64V24.7h1.59v5.24l-.53-.69a8.27,8.27,0,0,1,.87-1.67,7.73,7.73,0,0,1,1-1.25A5.9,5.9,0,0,1,106.87,25a8.33,8.33,0,0,1,2.47-.52,6.05,6.05,0,0,1,2.19.23v1.63a8.11,8.11,0,0,0-2.88-.12,5.09,5.09,0,0,0-2.85,1.42,6,6,0,0,0-1.63,2.47,11.4,11.4,0,0,0-.58,2.9c-.07,1-.1,1.94-.1,2.83V46.64Z"/><path d="M115.59,46.64V24.7h1.59v4.47h.12V46.64Zm13,0,0-14.83a6.29,6.29,0,0,0-1.58-4.51,5.8,5.8,0,0,0-8.22.08,6.72,6.72,0,0,0-1.58,4.67l-1.5-.65a7.45,7.45,0,0,1,1-3.76,6.84,6.84,0,0,1,2.63-2.6,7.71,7.71,0,0,1,3.85-.95,8,8,0,0,1,3.48.78,6.2,6.2,0,0,1,2.63,2.43,8,8,0,0,1,1,4.23l0,15.11Zm13,0,0-15.11a5.78,5.78,0,0,0-1.61-4.32,5.44,5.44,0,0,0-4-1.58,6.54,6.54,0,0,0-2.63.59,5.16,5.16,0,0,0-2.23,2,7,7,0,0,0-.91,3.84h-1.5a8.08,8.08,0,0,1,.84-4.2,6.81,6.81,0,0,1,2.65-2.77,7.64,7.64,0,0,1,3.9-1,6.82,6.82,0,0,1,7.15,7.31l0,15.24Z"/><path d="M157.69,47.25a9.7,9.7,0,0,1-5.49-1.48,9.3,9.3,0,0,1-3.39-4.11,14.81,14.81,0,0,1-1.16-6,14.45,14.45,0,0,1,1.18-6.05,9.21,9.21,0,0,1,3.42-4,11,11,0,0,1,10.94,0,9.27,9.27,0,0,1,3.39,4.08,14.78,14.78,0,0,1,1.14,6,14.72,14.72,0,0,1-1.16,6.08,9.17,9.17,0,0,1-3.4,4.08A9.83,9.83,0,0,1,157.69,47.25Zm0-1.71c2.76,0,4.82-.91,6.17-2.75a11.71,11.71,0,0,0,2-7.16,11.51,11.51,0,0,0-2-7.16,7.26,7.26,0,0,0-6.16-2.67,7.88,7.88,0,0,0-4.6,1.26,7.5,7.5,0,0,0-2.72,3.47,13.69,13.69,0,0,0-.89,5.1,11.5,11.5,0,0,0,2.08,7.19A7.23,7.23,0,0,0,157.69,45.54Z"/><path d="M180.4,47.21a11.34,11.34,0,0,1-6.18-1.56,6.49,6.49,0,0,1-3-4.29l1.74-.33a5.39,5.39,0,0,0,2.57,3.25,9.37,9.37,0,0,0,4.95,1.22,7.84,7.84,0,0,0,4.74-1.28,4.07,4.07,0,0,0,1.76-3.47,3.38,3.38,0,0,0-.53-2,4.56,4.56,0,0,0-2.06-1.39A42.56,42.56,0,0,0,179.83,36,32.14,32.14,0,0,1,175,34.3a5.94,5.94,0,0,1-2.43-1.81,4.18,4.18,0,0,1-.7-2.47,4.94,4.94,0,0,1,1-3.09,6.8,6.8,0,0,1,2.87-2.09,11,11,0,0,1,4.22-.75,11.4,11.4,0,0,1,4.36.8,7.92,7.92,0,0,1,3.13,2.24,5.94,5.94,0,0,1,1.37,3.3l-1.75.32a5.28,5.28,0,0,0-2.34-3.62,8.5,8.5,0,0,0-4.89-1.33,7.71,7.71,0,0,0-4.48,1.11,3.52,3.52,0,0,0-1.74,3,2.81,2.81,0,0,0,.59,1.78,5.26,5.26,0,0,0,2.05,1.35,29,29,0,0,0,4.07,1.26A31.06,31.06,0,0,1,185.45,36,6.06,6.06,0,0,1,188,38a5.08,5.08,0,0,1,.74,2.82,5.55,5.55,0,0,1-2.24,4.68A9.92,9.92,0,0,1,180.4,47.21Z"/><path d="M191.45,46.64l10.64-29.25h1.83l10.65,29.25h-1.83L202.38,18.16h1.22L193.28,46.64Zm4.06-7.6V37.42h15V39Z"/><path d="M218.43,46.64V24.7H220v5.24l-.53-.69a7.83,7.83,0,0,1,.88-1.67,7.71,7.71,0,0,1,1-1.25A6,6,0,0,1,223.52,25a8.26,8.26,0,0,1,2.46-.52,6.11,6.11,0,0,1,2.2.23v1.63a8.16,8.16,0,0,0-2.89-.12,5.09,5.09,0,0,0-2.84,1.42,6,6,0,0,0-1.64,2.47,11.38,11.38,0,0,0-.57,2.9c-.07,1-.11,1.94-.11,2.83V46.64Z"/><path d="M229.8,26.41V24.7h13.78v1.71Zm13.78,20.23a12,12,0,0,1-3.25.27,6.68,6.68,0,0,1-2.87-.77,4.27,4.27,0,0,1-1.89-2.06A6.37,6.37,0,0,1,235,41.9c0-.74-.06-1.58-.06-2.53V18.61h1.71V39.37c0,1,0,1.71,0,2.29a3.91,3.91,0,0,0,.42,1.65,3.24,3.24,0,0,0,2.31,1.8,11.55,11.55,0,0,0,4.15-.1Z"/><g class="cls-4"><rect class="cls-5" x="1.11" y="5.06" width="47.74" height="47.74"/></g><g class="cls-6"><rect class="cls-7" x="9.52" y="38.72" width="17.19" height="14.08"/></g><g class="cls-8"><rect class="cls-5" x="33.21" y="33.96" width="15.64" height="3.57"/></g><g class="cls-9"><rect class="cls-10" x="21.6" y="39.81" width="27.25" height="12.99"/></g><g class="cls-11"><rect class="cls-10" x="29.55" y="39.81" width="19.3" height="12.99"/></g><g class="cls-12"><rect class="cls-13" x="27.91" y="33.96" width="3.57" height="3.57"/></g><g class="cls-14"><rect class="cls-13" x="25.35" y="39.81" width="19.3" height="12.99"/></g><g class="cls-15"><rect class="cls-13" x="29.55" y="39.81" width="15.09" height="12.99"/></g></svg>