<svg width="170" height="170" viewBox="0 0 170 170" fill="none" xmlns="http://www.w3.org/2000/svg">
<rect width="170" height="170" fill="#E3E5EC"/>
<path d="M115.636 109.671C115.708 109.178 115.326 108.736 114.827 108.736H74.2375C73.739 108.736 73.3568 109.178 73.4292 109.671L75.0416 120.648C75.2772 122.252 76.6534 123.441 78.2747 123.441H110.79C112.412 123.441 113.788 122.252 114.023 120.648L115.636 109.671Z" fill="#CFD2DA"/>
<path d="M54.3012 111.39C54.2083 111.751 53.8828 112.003 53.5101 112.003H32.1497C31.0672 112.003 30.2839 110.97 30.5767 109.928L35.0622 93.9635C35.4583 92.5538 36.7439 91.5797 38.2082 91.5797H55.1875C57.3231 91.5797 58.8847 93.5945 58.3521 95.6625L54.3012 111.39Z" fill="#8F95A8"/>
<path d="M54.3012 54.6132C54.2083 54.2523 53.8828 54 53.5101 54H32.1497C31.0672 54 30.2839 55.0337 30.5767 56.0759L35.0622 72.0399C35.4583 73.4496 36.7439 74.4237 38.2082 74.4237H55.1875C57.3231 74.4237 58.8847 72.4089 58.3521 70.3409L54.3012 54.6132Z" fill="#8F95A8"/>
<path d="M25.5 83.0016C25.5 98.5676 56.5277 111.186 100.659 111.186C122.737 111.186 146 101.835 146 83.0016C146 64.1678 122.737 54.8169 100.659 54.8169C56.5277 54.8169 25.5 67.4356 25.5 83.0016Z" fill="#B5BAC7"/>
<path fill-rule="evenodd" clip-rule="evenodd" d="M34.3893 90.3957C31.4336 87.6259 30.4017 85.1269 30.4017 83.0016C30.4017 80.8763 31.4336 78.3773 34.3893 75.6076C37.3682 72.8161 42 70.0639 48.2885 67.6475C60.839 62.8249 78.9928 59.7186 100.659 59.7186C111.107 59.7186 121.581 61.9474 129.256 66.1467C136.879 70.3175 141.098 75.9857 141.098 83.0016C141.098 90.0176 136.879 95.6858 129.256 99.8566C121.581 104.056 111.107 106.285 100.659 106.285C78.9928 106.285 60.839 103.178 48.2885 98.3557C42 95.9393 37.3682 93.1872 34.3893 90.3957ZM100.659 111.186C56.5277 111.186 25.5 98.5676 25.5 83.0016C25.5 67.4356 56.5277 54.8169 100.659 54.8169C122.737 54.8169 146 64.1678 146 83.0016C146 101.835 122.737 111.186 100.659 111.186Z" fill="#B5BAC7"/>
<path d="M25.5 83.0017C25.5 89.9951 56.5277 95.6644 100.659 95.6644C122.737 95.6644 146 91.4633 146 83.0017C146 74.5401 122.737 70.339 100.659 70.339C56.5277 70.339 25.5 76.0083 25.5 83.0017Z" fill="#CFD2DA"/>
<path d="M102.701 116.905C102.701 118.71 104.164 120.173 105.969 120.173C107.773 120.173 109.236 118.71 109.236 116.905C109.236 115.1 107.773 113.637 105.969 113.637C104.164 113.637 102.701 115.1 102.701 116.905Z" fill="#B5BAC7"/>
<path d="M91.2652 116.905C91.2652 118.71 92.7282 120.173 94.533 120.173C96.3377 120.173 97.8008 118.71 97.8008 116.905C97.8008 115.1 96.3377 113.637 94.533 113.637C92.7282 113.637 91.2652 115.1 91.2652 116.905Z" fill="#B5BAC7"/>
<path d="M79.8277 116.905C79.8277 118.71 81.2907 120.173 83.0955 120.173C84.9002 120.173 86.3633 118.71 86.3633 116.905C86.3633 115.1 84.9002 113.637 83.0955 113.637C81.2907 113.637 79.8277 115.1 79.8277 116.905Z" fill="#B5BAC7"/>
<path fill-rule="evenodd" clip-rule="evenodd" d="M129.414 105.278C126.928 98.1771 125.576 90.543 125.576 82.5932C125.576 74.9048 126.841 67.5118 129.173 60.6106C139.064 65.2613 146 72.7178 146 83.0015C146 93.2014 139.177 100.62 129.414 105.278Z" fill="#8F95A8"/>
</svg>
