<svg xmlns="http://www.w3.org/2000/svg" width="283" height="19" viewBox="0 0 283 19">
  <g id="Group_5" data-name="Group 5" transform="translate(-203 -285)">
    <g id="Ellipse_1" data-name="Ellipse 1" transform="translate(203 285)" fill="none" stroke="#707070" stroke-width="1">
      <circle cx="9.5" cy="9.5" r="9.5" stroke="none"/>
      <circle cx="9.5" cy="9.5" r="9" fill="none"/>
    </g>
    <g id="Ellipse_1-2" data-name="Ellipse 1" transform="translate(269 285)" fill="none" stroke="#707070" stroke-width="1">
      <circle cx="9.5" cy="9.5" r="9.5" stroke="none"/>
      <circle cx="9.5" cy="9.5" r="9" fill="none"/>
    </g>
    <g id="Path_1" data-name="Path 1" transform="translate(335 285)" fill="none">
      <path d="M9.5,0A9.5,9.5,0,1,1,0,9.5,9.5,9.5,0,0,1,9.5,0Z" stroke="none"/>
      <path d="M 9.5 1 C 4.813079833984375 1 1 4.813079833984375 1 9.5 C 1 14.18692016601563 4.813079833984375 18 9.5 18 C 14.18692016601563 18 18 14.18692016601563 18 9.5 C 18 4.813079833984375 14.18692016601563 1 9.5 1 M 9.5 0 C 14.74670028686523 0 19 4.253299713134766 19 9.5 C 19 14.74670028686523 14.74670028686523 19 9.5 19 C 4.253299713134766 19 0 14.74670028686523 0 9.5 C 0 4.253299713134766 4.253299713134766 0 9.5 0 Z" stroke="none" fill="#707070"/>
    </g>
    <g id="Path_2" data-name="Path 2" transform="translate(401 285)" fill="none">
      <path d="M9.5,0A9.5,9.5,0,1,1,0,9.5,9.5,9.5,0,0,1,9.5,0Z" stroke="none"/>
      <path d="M 9.5 1 C 4.813079833984375 1 1 4.813079833984375 1 9.5 C 1 14.18692016601563 4.813079833984375 18 9.5 18 C 14.18692016601563 18 18 14.18692016601563 18 9.5 C 18 4.813079833984375 14.18692016601563 1 9.5 1 M 9.5 0 C 14.74670028686523 0 19 4.253299713134766 19 9.5 C 19 14.74670028686523 14.74670028686523 19 9.5 19 C 4.253299713134766 19 0 14.74670028686523 0 9.5 C 0 4.253299713134766 4.253299713134766 0 9.5 0 Z" stroke="none" fill="#707070"/>
    </g>
    <circle id="Ellipse_1-3" data-name="Ellipse 1" cx="9.5" cy="9.5" r="9.5" transform="translate(467 285)" fill="#00ff90"/>
  </g>
</svg>
