<svg xmlns="http://www.w3.org/2000/svg" xmlns:xlink="http://www.w3.org/1999/xlink" viewBox="0 0 16 16">
  <defs>
    <clipPath id="clip-back">
      <rect width="16" height="16"/>
    </clipPath>
  </defs>
  <g id="back" clip-path="url(#clip-back)">
    <g id="Group_3548" data-name="Group 3548" transform="translate(2 3)">
      <g id="Group_3513" data-name="Group 3513" transform="translate(-1 -1)">
        <path id="_26b8c1aa6ef58754ea885e5698bca240" data-name="26b8c1aa6ef58754ea885e5698bca240" d="M11.694,7.16a.872.872,0,0,1-.619-.256L6.285,2.112,1.494,6.9A.875.875,0,0,1,.256,5.666L5.666.256A.875.875,0,0,1,6.9.256l5.41,5.41a.875.875,0,0,1-.619,1.494Z" transform="translate(0 12.569) rotate(-90)"/>
        <path id="Path_73" data-name="Path 73" d="M83.422,8.75H71.945a.875.875,0,0,1,0-1.75H83.422a.875.875,0,0,1,0,1.75Z" transform="translate(-70.297 -1.59)"/>
      </g>
    </g>
  </g>
</svg>
