<svg xmlns="http://www.w3.org/2000/svg" xmlns:xlink="http://www.w3.org/1999/xlink" viewBox="0 0 16 16">
  <defs>
    <clipPath id="clip-banner-creator">
      <rect width="16" height="16"/>
    </clipPath>
  </defs>
  <g id="banner-creator" clip-path="url(#clip-banner-creator)">
    <path id="Union_29" data-name="Union 29" d="M1965.392-361a2.394,2.394,0,0,1-2.392-2.392v-9.216a2.394,2.394,0,0,1,2.392-2.392h9.216a2.4,2.4,0,0,1,2.392,2.392v9.216a2.4,2.4,0,0,1-2.392,2.392Zm-1.459-11.608v9.216a1.46,1.46,0,0,0,1.459,1.459h9.216a1.46,1.46,0,0,0,1.459-1.459v-9.216a1.46,1.46,0,0,0-1.459-1.459h-9.216A1.46,1.46,0,0,0,1963.933-372.608Zm7.074,9.592a.6.6,0,0,1-.6-.6.6.6,0,0,1,.6-.6h1.958a.6.6,0,0,1,.6.6.6.6,0,0,1-.6.6Zm-3.907-.084a2,2,0,0,1-2-2v-.2a2,2,0,0,1,2-2h.2a2,2,0,0,1,2,2v.2a2,2,0,0,1-2,2Zm-.8-2.2v.2a.8.8,0,0,0,.8.8h.2a.8.8,0,0,0,.8-.8v-.2a.8.8,0,0,0-.8-.8h-.2A.8.8,0,0,0,1966.3-365.3Zm4.707.7a.6.6,0,0,1-.6-.6.6.6,0,0,1,.6-.6h3.278a.6.6,0,0,1,.6.6.6.6,0,0,1-.6.6Zm0-1.584a.6.6,0,0,1-.6-.6.6.6,0,0,1,.6-.6h3.278a.6.6,0,0,1,.6.6.6.6,0,0,1-.6.6ZM1967.1-368.7a2,2,0,0,1-2-2v-.2a2,2,0,0,1,2-2h5.8a2,2,0,0,1,2,2v.2a2,2,0,0,1-2,2Zm-.8-2.2v.2a.8.8,0,0,0,.8.8h5.8a.8.8,0,0,0,.8-.8v-.2a.8.8,0,0,0-.8-.8h-5.8A.8.8,0,0,0,1966.3-370.9Z" transform="translate(-1962 376)" fill="#383838"/>
  </g>
</svg>
