<svg xmlns="http://www.w3.org/2000/svg" xmlns:xlink="http://www.w3.org/1999/xlink" viewBox="0 0 16 16">
  <defs>
    <clipPath id="clip-bell">
      <rect width="16" height="16"/>
    </clipPath>
  </defs>
  <g id="bell" clip-path="url(#clip-bell)">
    <path id="notification_icon" data-name="notification icon" d="M16.762,12.418a.544.544,0,0,1-.257-.485v-1.9a4.9,4.9,0,0,0-2.922-4.5,1.753,1.753,0,0,0-3.466,0,4.676,4.676,0,0,0-1.525.988A4.629,4.629,0,0,0,7.153,9.864v2.069a.544.544,0,0,1-.257.485,1.753,1.753,0,0,0-.912,1.829A1.806,1.806,0,0,0,7.8,15.709H9.491a2.338,2.338,0,0,0,4.676,0h1.689a1.806,1.806,0,0,0,1.818-1.461,1.753,1.753,0,0,0-.912-1.829Zm-4.933,4.46a1.169,1.169,0,0,1-1.169-1.169H13A1.169,1.169,0,0,1,11.829,16.878Zm4.027-2.338H7.8a.637.637,0,0,1-.649-.479.584.584,0,0,1,.3-.62,1.713,1.713,0,0,0,.871-1.508V9.864A3.507,3.507,0,0,1,9.386,7.345a3.279,3.279,0,0,1,.953-.649,3.419,3.419,0,0,1,1.49-.339h.111a3.32,3.32,0,0,1,1.374.351,3.723,3.723,0,0,1,2.022,3.326v1.9a1.713,1.713,0,0,0,.865,1.508.584.584,0,0,1,.3.614.637.637,0,0,1-.649.485Z" transform="translate(-3.962 -3.047)"/>
  </g>
</svg>
