<svg class="svg-icon" style="width: 1em; height: 1em;vertical-align: middle;fill: currentColor;overflow: hidden;" viewBox="0 0 1024 1024" version="1.1" xmlns="http://www.w3.org/2000/svg"><path d="M393.813333 750.506667v235.946666H293.546667V286.72c0-61.866667 18.346667-110.506667 54.613333-146.773333C384 103.68 433.92 85.333333 495.36 85.333333c59.306667 0 104.96 14.506667 139.093333 42.666667 33.706667 29.013333 50.346667 69.12 50.346667 119.893333 0 34.986667-11.093333 67.84-33.28 98.133334-22.186667 30.293333-50.773333 51.2-86.186667 62.72v1.706666c53.333333 8.533333 94.72 27.733333 122.88 58.88 28.16 30.293333 42.24 69.12 42.24 116.906667 0 56.32-19.626667 102.4-58.453333 137.813333-39.253333 35.413333-90.453333 52.906667-154.453333 52.906667-45.226667 0-86.613333-8.96-123.733334-26.453333m63.573334-291.84V376.746667c37.12-4.693333 67.413333-18.346667 91.733333-41.386667 23.893333-23.466667 35.84-49.493333 35.84-79.36 0-58.88-30.293333-88.746667-90.026667-88.746667-32.426667 0-57.6 10.24-75.093333 31.146667-17.493333 20.906667-26.026667 49.92-26.026667 87.893333v375.04c38.826667 22.613333 76.8 33.706667 113.493334 33.706667 35.84 0 64-9.386667 84.053333-27.733333 20.053333-18.773333 29.866667-45.226667 29.866667-78.933334 0-76.373333-54.613333-119.04-163.84-129.706666z" fill="" /></svg>