<svg width="20" height="20" viewBox="0 0 20 20" fill="none" xmlns="http://www.w3.org/2000/svg">
<g clip-path="url(#clip0_2984_959)">
<path fill-rule="evenodd" clip-rule="evenodd" d="M11.0556 2.04188C10.7481 0.998135 9.27064 0.998135 8.96314 2.04188L8.84564 2.44063C8.74682 2.77557 8.57433 3.08415 8.3408 3.34379C8.10727 3.60342 7.81862 3.80753 7.496 3.94116C7.17337 4.07478 6.82494 4.13455 6.47622 4.11608C6.1275 4.0976 5.78734 4.00135 5.48063 3.83438L5.11564 3.63438C4.16063 3.11563 3.11563 4.15938 3.63563 5.11564L3.83438 5.48063C4.00135 5.78734 4.0976 6.1275 4.11608 6.47622C4.13455 6.82494 4.07478 7.17337 3.94116 7.496C3.80753 7.81862 3.60342 8.10727 3.34379 8.3408C3.08415 8.57433 2.77557 8.74682 2.44063 8.84564L2.04188 8.96314C0.998135 9.27064 0.998135 10.7481 2.04188 11.0556L2.44063 11.1731C2.77574 11.2719 3.08449 11.4444 3.34426 11.678C3.60402 11.9117 3.80821 12.2004 3.94186 12.5232C4.07551 12.846 4.13522 13.1946 4.11662 13.5435C4.09803 13.8924 4.00159 14.2326 3.83438 14.5394L3.63438 14.9031C3.11563 15.8581 4.15938 16.9031 5.11564 16.3831L5.48063 16.1844C5.78742 16.0174 6.12767 15.9212 6.47645 15.9028C6.82524 15.8844 7.17372 15.9443 7.49637 16.0781C7.81901 16.2118 8.10764 16.4161 8.34111 16.6759C8.57457 16.9356 8.74696 17.2443 8.84564 17.5794L8.96314 17.9769C9.27064 19.0206 10.7481 19.0206 11.0556 17.9769L11.1731 17.5781C11.2719 17.243 11.4444 16.9343 11.678 16.6745C11.9117 16.4147 12.2004 16.2106 12.5232 16.0769C12.846 15.9433 13.1946 15.8836 13.5435 15.9021C13.8924 15.9207 14.2326 16.0172 14.5394 16.1844L14.9031 16.3844C15.8581 16.9031 16.9031 15.8594 16.3831 14.9031L16.1844 14.5394C16.0172 14.2326 15.9208 13.8922 15.9023 13.5433C15.8838 13.1943 15.9436 12.8457 16.0774 12.5229C16.2111 12.2001 16.4155 11.9113 16.6754 11.6777C16.9353 11.4442 17.2442 11.2718 17.5794 11.1731L17.9769 11.0556C19.0206 10.7481 19.0206 9.27064 17.9769 8.96314L17.5781 8.84564C17.2432 8.74682 16.9346 8.57433 16.675 8.3408C16.4154 8.10727 16.2112 7.81862 16.0776 7.496C15.944 7.17337 15.8842 6.82494 15.9027 6.47622C15.9212 6.1275 16.0174 5.78734 16.1844 5.48063L16.3844 5.11564C16.9031 4.16063 15.8594 3.11563 14.9031 3.63563L14.5394 3.83438C14.2326 4.00182 13.8922 4.09845 13.5432 4.11717C13.1942 4.13589 12.8454 4.07623 12.5224 3.94256C12.1995 3.8089 11.9106 3.60463 11.6769 3.34473C11.4432 3.08484 11.2706 2.77592 11.1719 2.44063L11.0544 2.04188H11.0556ZM7.76439 1.68813C8.42314 -0.549365 11.5956 -0.549365 12.2544 1.68813L12.3719 2.08688C12.4179 2.24308 12.4983 2.38699 12.6071 2.50808C12.716 2.62917 12.8505 2.72437 13.001 2.7867C13.1514 2.84903 13.3138 2.8769 13.4764 2.86828C13.639 2.85966 13.7976 2.81477 13.9406 2.73688L14.3056 2.53689C16.3556 1.42189 18.5981 3.66314 17.4806 5.71314L17.2819 6.07814C17.204 6.22113 17.1591 6.37973 17.1505 6.54233C17.1419 6.70492 17.1697 6.86739 17.2321 7.01781C17.2944 7.16824 17.3896 7.30281 17.5107 7.41166C17.6318 7.52051 17.7757 7.60088 17.9319 7.64689L18.3306 7.76439C20.5681 8.42314 20.5681 11.5956 18.3306 12.2544L17.9319 12.3719C17.7757 12.4179 17.6318 12.4983 17.5107 12.6071C17.3896 12.716 17.2944 12.8505 17.2321 13.001C17.1697 13.1514 17.1419 13.3138 17.1505 13.4764C17.1591 13.639 17.204 13.7976 17.2819 13.9406L17.4819 14.3056C18.5981 16.3556 16.3544 18.5981 14.3056 17.4806L13.9406 17.2819C13.7976 17.204 13.639 17.1591 13.4764 17.1505C13.3138 17.1419 13.1514 17.1697 13.001 17.2321C12.8505 17.2944 12.716 17.3896 12.6071 17.5107C12.4983 17.6318 12.4179 17.7757 12.3719 17.9319L12.2544 18.3306C11.5956 20.5681 8.42314 20.5681 7.76439 18.3306L7.64689 17.9319C7.60088 17.7757 7.52051 17.6318 7.41166 17.5107C7.30281 17.3896 7.16824 17.2944 7.01781 17.2321C6.86739 17.1697 6.70492 17.1419 6.54233 17.1505C6.37973 17.1591 6.22113 17.204 6.07814 17.2819L5.71314 17.4819C3.66314 18.5981 1.42188 16.3544 2.53814 14.3056L2.73688 13.9406C2.81477 13.7976 2.85966 13.639 2.86828 13.4764C2.8769 13.3138 2.84903 13.1514 2.7867 13.001C2.72437 12.8505 2.62917 12.716 2.50808 12.6071C2.38699 12.4983 2.24308 12.4179 2.08688 12.3719L1.68813 12.2544C-0.549365 11.5956 -0.549365 8.42314 1.68813 7.76439L2.08688 7.64689C2.24308 7.60088 2.38699 7.52051 2.50808 7.41166C2.62917 7.30281 2.72437 7.16824 2.7867 7.01781C2.84903 6.86739 2.8769 6.70492 2.86828 6.54233C2.85966 6.37973 2.81477 6.22113 2.73688 6.07814L2.53689 5.71314C1.42189 3.66314 3.66439 1.42188 5.71314 2.53814L6.07814 2.73688C6.22113 2.81477 6.37973 2.85966 6.54233 2.86828C6.70492 2.8769 6.86739 2.84903 7.01781 2.7867C7.16824 2.72437 7.30281 2.62917 7.41166 2.50808C7.52051 2.38699 7.60088 2.24308 7.64689 2.08688L7.76439 1.68813V1.68813Z" fill="#262E42"/>
<path fill-rule="evenodd" clip-rule="evenodd" d="M9.99988 7.19251C9.25529 7.19251 8.54119 7.48829 8.01468 8.0148C7.48817 8.54131 7.19238 9.25541 7.19238 10C7.19238 10.7446 7.48817 11.4587 8.01468 11.9852C8.54119 12.5117 9.25529 12.8075 9.99988 12.8075C10.7445 12.8075 11.4586 12.5117 11.9851 11.9852C12.5116 11.4587 12.8074 10.7446 12.8074 10C12.8074 9.25541 12.5116 8.54131 11.9851 8.0148C11.4586 7.48829 10.7445 7.19251 9.99988 7.19251ZM5.94238 10C5.94238 9.46717 6.04733 8.93955 6.25124 8.44727C6.45515 7.95499 6.75402 7.50769 7.1308 7.13092C7.50757 6.75415 7.95487 6.45527 8.44714 6.25136C8.93942 6.04746 9.46704 5.9425 9.99988 5.9425C10.5327 5.9425 11.0603 6.04746 11.5526 6.25136C12.0449 6.45527 12.4922 6.75415 12.869 7.13092C13.2457 7.50769 13.5446 7.95499 13.7485 8.44727C13.9524 8.93955 14.0574 9.46717 14.0574 10C14.0574 11.0761 13.6299 12.1082 12.869 12.8691C12.108 13.63 11.076 14.0575 9.99988 14.0575C8.92377 14.0575 7.89173 13.63 7.1308 12.8691C6.36987 12.1082 5.94238 11.0761 5.94238 10Z" fill="#262E42"/>
</g>
<defs>
<clipPath id="clip0_2984_959">
<rect width="20" height="20" fill="white"/>
</clipPath>
</defs>
</svg>
