<svg xmlns="http://www.w3.org/2000/svg" xmlns:xlink="http://www.w3.org/1999/xlink" viewBox="0 0 16 16">
  <defs>
    <clipPath id="clip-comments">
      <rect width="16" height="16"/>
    </clipPath>
  </defs>
  <g id="comments" clip-path="url(#clip-comments)">
    <path id="Union_16" data-name="Union 16" d="M117.738-611.936a.8.8,0,0,1-.434-.71v-2.183a5.43,5.43,0,0,1-2.3-4.332c0-3.222,3.136-5.838,7-5.838s7,2.616,7,5.838-3.136,5.839-7,5.839a8.285,8.285,0,0,1-1.456-.121L118.57-612a.764.764,0,0,1-.468.156A.924.924,0,0,1,117.738-611.936Zm-1.438-7.225a4.247,4.247,0,0,0,2.027,3.466.64.64,0,0,1,.277.537v1.542l1.438-1.04a.642.642,0,0,1,.5-.1,6.832,6.832,0,0,0,1.473.157c3.154,0,5.718-2.045,5.718-4.54,0-2.513-2.564-4.558-5.718-4.558S116.3-621.656,116.3-619.161Zm7.4.052a.988.988,0,0,1,.988-.987.987.987,0,0,1,.987.987.988.988,0,0,1-.987.988A.989.989,0,0,1,123.7-619.109Zm-2.65,0a.987.987,0,0,1,.987-.987.987.987,0,0,1,.987.987.988.988,0,0,1-.987.988A.988.988,0,0,1,121.047-619.109Zm-2.651,0a.987.987,0,0,1,.988-.987.987.987,0,0,1,.987.987.988.988,0,0,1-.987.988A.988.988,0,0,1,118.4-619.109Z" transform="translate(-114 626)"/>
  </g>
</svg>
