<svg xmlns="http://www.w3.org/2000/svg" xmlns:xlink="http://www.w3.org/1999/xlink" viewBox="0 0 16 16">
  <defs>
    <clipPath id="clip-comment">
      <rect width="16" height="16"/>
    </clipPath>
  </defs>
  <g id="comment" clip-path="url(#clip-comment)">
    <path id="Union_20" data-name="Union 20" d="M3.72,14.667a.676.676,0,0,1-.293-.067.667.667,0,0,1-.373-.6V11.334H1.886A1.84,1.84,0,0,1,0,9.554V1.78A1.84,1.84,0,0,1,1.886,0H14.113A1.84,1.84,0,0,1,16,1.78V9.554a1.84,1.84,0,0,1-1.887,1.78H8.227L4.134,14.527a.669.669,0,0,1-.41.14ZM3.72,10a.667.667,0,0,1,.667.667v2L7.593,10.14A.664.664,0,0,1,8,10h6.113a.52.52,0,0,0,.553-.447V1.78a.52.52,0,0,0-.553-.446H1.886a.522.522,0,0,0-.554.446V9.554A.522.522,0,0,0,1.886,10Zm.851-1.378c-.315,0-.572-.358-.572-.8s.257-.8.572-.8h6.857c.316,0,.571.358.571.8s-.256.8-.571.8Zm0-4c-.315,0-.572-.358-.572-.8s.257-.8.572-.8h6.857c.316,0,.571.358.571.8s-.256.8-.571.8Z" transform="translate(0 1)"/>
  </g>
</svg>
