<svg xmlns="http://www.w3.org/2000/svg" xmlns:xlink="http://www.w3.org/1999/xlink" viewBox="0 0 16 16">
  <defs>
    <clipPath id="clip-cross">
      <rect width="16" height="16"/>
    </clipPath>
  </defs>
  <g id="cross" clip-path="url(#clip-cross)">
    <path id="Union_14" data-name="Union 14" d="M-432.639-308.362a1.233,1.233,0,0,1,0-1.745l4.893-4.893-4.893-4.893a1.235,1.235,0,0,1,0-1.745,1.235,1.235,0,0,1,1.746,0l4.893,4.893,4.893-4.893a1.233,1.233,0,0,1,1.745,0,1.233,1.233,0,0,1,0,1.745L-424.255-315l4.893,4.893a1.229,1.229,0,0,1,.361.873,1.229,1.229,0,0,1-.361.872,1.233,1.233,0,0,1-1.745,0L-426-313.255l-4.893,4.893a1.233,1.233,0,0,1-.873.362A1.232,1.232,0,0,1-432.639-308.362Z" transform="translate(434 323)"/>
  </g>
</svg>
