<svg xmlns="http://www.w3.org/2000/svg" xmlns:xlink="http://www.w3.org/1999/xlink" viewBox="0 0 16 16">
  <defs>
    <clipPath id="clip-dashboard">
      <rect width="16" height="16"/>
    </clipPath>
  </defs>
  <g id="dashboard" clip-path="url(#clip-dashboard)">
    <path id="Union_31" data-name="Union 31" d="M1991.767-360.8a.434.434,0,0,1-.434-.433v-4.333a.435.435,0,0,1,.434-.434h6a.434.434,0,0,1,.433.434v4.333a.434.434,0,0,1-.433.433Zm.433-.867h5.134v-3.467H1992.2Zm-7.766.867a.434.434,0,0,1-.434-.433V-368.9a.434.434,0,0,1,.434-.433h6a.434.434,0,0,1,.433.433v7.667a.434.434,0,0,1-.433.433Zm.433-.867H1990v-6.8h-5.134Zm6.9-4.8a.435.435,0,0,1-.434-.434v-7.666a.435.435,0,0,1,.434-.434h6a.434.434,0,0,1,.433.434v7.666a.434.434,0,0,1-.433.434Zm.433-.867h5.134v-6.8H1992.2Zm-7.766-2.467a.434.434,0,0,1-.434-.433v-4.333a.434.434,0,0,1,.434-.434h6a.434.434,0,0,1,.433.434v4.333a.434.434,0,0,1-.433.433Zm.433-.867H1990v-3.467h-5.134Z" transform="translate(-1983.1 375.9)"/>
  </g>
</svg>
