<svg xmlns="http://www.w3.org/2000/svg" xmlns:xlink="http://www.w3.org/1999/xlink" viewBox="0 0 16 16">
  <defs>
    <clipPath id="clip-delete">
      <rect width="16" height="16"/>
    </clipPath>
  </defs>
  <g id="delete" clip-path="url(#clip-delete)">
    <path id="_9e491b825fd38ccd137b61e93df1c153" data-name="9e491b825fd38ccd137b61e93df1c153" d="M15.965,4.537H12.639V4.118a1.584,1.584,0,0,0-1.581-1.583H9.186a1.584,1.584,0,0,0-1.58,1.583v.419H4.28a.52.52,0,1,0,0,1.04h.64l.434,8.947a2.112,2.112,0,0,0,2.111,2.012h5.313a2.112,2.112,0,0,0,2.111-2.012l.434-8.944h.641a.52.52,0,1,0,0-1.04ZM8.646,4.118a.544.544,0,0,1,.541-.543h1.871a.544.544,0,0,1,.541.543v.419H8.646Zm5.205,10.354a1.073,1.073,0,0,1-1.073,1.022H7.465a1.073,1.073,0,0,1-1.073-1.022L5.964,5.577h8.322ZM11.844,9.547l-.988.988.988.988a.52.52,0,1,1-.735.735l-.988-.988-.988.988a.52.52,0,1,1-.735-.735l.988-.988L8.4,9.547a.52.52,0,0,1,.735-.735l.988.988.988-.988a.52.52,0,1,1,.735.735Z" transform="translate(-2.16 -1.535)"/>
  </g>
</svg>
