<svg xmlns="http://www.w3.org/2000/svg" xmlns:xlink="http://www.w3.org/1999/xlink" viewBox="0 0 16 16">
  <defs>
    <clipPath id="clip-download">
      <rect width="16" height="16"/>
    </clipPath>
  </defs>
  <g id="download" clip-path="url(#clip-download)">
    <path id="a98e9939e5a4288ebbb40242e2309aee" d="M13.4,9.2a.6.6,0,0,0-.6.6v2.4a.6.6,0,0,1-.6.6H3.8a.6.6,0,0,1-.6-.6V9.8A.6.6,0,0,0,2,9.8v2.4A1.8,1.8,0,0,0,3.8,14h8.4A1.8,1.8,0,0,0,14,12.2V9.8A.6.6,0,0,0,13.4,9.2ZM7.574,10.226a.6.6,0,0,0,.2.126.564.564,0,0,0,.456,0,.6.6,0,0,0,.2-.126l2.4-2.4a.6.6,0,0,0-.852-.852L8.6,8.354V2.6a.6.6,0,1,0-1.2,0V8.354L6.026,6.974a.6.6,0,0,0-.852.852Z"/>
  </g>
</svg>
