<svg xmlns="http://www.w3.org/2000/svg" xmlns:xlink="http://www.w3.org/1999/xlink" viewBox="0 0 16 16">
  <defs>
    <clipPath id="clip-dropout">
      <rect width="16" height="16"/>
    </clipPath>
  </defs>
  <g id="dropout" clip-path="url(#clip-dropout)">
    <path id="Union_22" data-name="Union 22" d="M1.885,11.846a1.814,1.814,0,0,1-1.329-.555A1.814,1.814,0,0,1,0,9.962V1.885A1.812,1.812,0,0,1,.555.555,1.812,1.812,0,0,1,1.885,0H4.577A1.813,1.813,0,0,1,5.906.555a1.812,1.812,0,0,1,.555,1.329v.269h5.654a1.813,1.813,0,0,1,1.329.555A1.813,1.813,0,0,1,14,4.038V9.962a1.9,1.9,0,0,1-1.885,1.884ZM1.313,1.313a.778.778,0,0,0-.236.572V9.962a.8.8,0,0,0,.808.807H12.115a.8.8,0,0,0,.807-.807V4.038a.8.8,0,0,0-.807-.808H6.192a.8.8,0,0,1-.807-.807V1.885a.805.805,0,0,0-.808-.808H1.885A.778.778,0,0,0,1.313,1.313Zm2.71,5.869A2.913,2.913,0,1,1,6.936,10.1,2.917,2.917,0,0,1,4.023,7.182Zm.915,0a2.008,2.008,0,0,0,1.14,1.805,1.984,1.984,0,0,0,.858.193,2,2,0,0,0,1.052-.3L5.237,6.13A2,2,0,0,0,4.938,7.181Zm.947-1.7L8.635,8.233A2,2,0,0,0,5.885,5.482Z" transform="translate(1 2)"/>
  </g>
</svg>
