<svg width="24" height="24" viewBox="0 0 24 24" fill="none" xmlns="http://www.w3.org/2000/svg">
<path fill-rule="evenodd" clip-rule="evenodd" d="M16.9402 1.93948C17.2215 1.65828 17.603 1.50031 18.0007 1.50031C18.3985 1.50031 18.7799 1.65828 19.0612 1.93948L22.0612 4.93948C22.3424 5.22078 22.5004 5.60224 22.5004 5.99998C22.5004 6.39773 22.3424 6.77919 22.0612 7.06048L8.56123 20.5605C8.39701 20.7252 8.19674 20.8495 7.97623 20.9235L3.47623 22.4235C3.21185 22.512 2.92803 22.5251 2.65663 22.4613C2.38523 22.3974 2.13698 22.2592 1.93976 22.0622C1.74254 21.8651 1.60414 21.617 1.5401 21.3456C1.47607 21.0743 1.48892 20.7904 1.57723 20.526L3.07723 16.026C3.15103 15.8049 3.27531 15.6041 3.44023 15.4395L16.9402 1.93948ZM18.0007 2.99998L21.0007 5.99998L7.50073 19.5L3.00073 21L4.50073 16.5L18.0007 2.99998Z" fill="#56BDF4"/>
<path fill-rule="evenodd" clip-rule="evenodd" d="M18.219 9.53099L14.469 5.78099L15.531 4.71899L19.281 8.46899L18.2205 9.53099H18.219ZM4.5 15V15.75C4.5 15.9489 4.57902 16.1397 4.71967 16.2803C4.86032 16.421 5.05109 16.5 5.25 16.5H6V17.25C6 17.4489 6.07902 17.6397 6.21967 17.7803C6.36032 17.921 6.55109 18 6.75 18H7.5V18.75C7.5 18.9489 7.57902 19.1397 7.71967 19.2803C7.86032 19.421 8.05109 19.5 8.25 19.5H9V17.25C9 17.0511 8.92098 16.8603 8.78033 16.7197C8.63968 16.579 8.44891 16.5 8.25 16.5H7.5V15.75C7.5 15.5511 7.42098 15.3603 7.28033 15.2197C7.13968 15.079 6.94891 15 6.75 15H4.5Z" fill="#56BDF4"/>
</svg>
