<svg xmlns="http://www.w3.org/2000/svg" xmlns:xlink="http://www.w3.org/1999/xlink" viewBox="0 0 16 16">
  <defs>
    <clipPath id="clip-edit">
      <rect width="16" height="16"/>
    </clipPath>
  </defs>
  <g id="edit" clip-path="url(#clip-edit)">
    <path id="c308e481ae1ba4ddb1fdbf90dec2e7d1" d="M17.982,10.292v5.36a2.33,2.33,0,0,1-2.33,2.33H6.33A2.33,2.33,0,0,1,4,15.651V6.33A2.33,2.33,0,0,1,6.33,4h5.36a.583.583,0,0,1,0,1.165H6.33A1.165,1.165,0,0,0,5.165,6.33v9.321A1.165,1.165,0,0,0,6.33,16.817h9.321a1.165,1.165,0,0,0,1.165-1.165v-5.36a.583.583,0,1,1,1.165,0ZM9.243,9.511l5.063-5.057a1.573,1.573,0,0,1,2.185,0l1.054,1.054a1.538,1.538,0,0,1,0,2.185l-.88.886h0l-4.194,4.16a2.33,2.33,0,0,1-1.649.682h-.047L9.15,13.385a.583.583,0,0,1-.583-.583l-.035-1.625a2.365,2.365,0,0,1,.711-1.666Zm5.395-3.763,1.124,1.124a.664.664,0,0,0,.944,0,.39.39,0,0,0,0-.542L15.651,5.276a.39.39,0,0,0-.542,0ZM9.709,11.183v1.066h1.066a1.218,1.218,0,0,0,.845-.344l2.942-2.913a1.165,1.165,0,0,0,0-1.649l-.746-.769-3.763,3.758A1.165,1.165,0,0,0,9.709,11.183Z" transform="translate(-3 -3)"/>
  </g>
</svg>
