<svg xmlns="http://www.w3.org/2000/svg" xmlns:xlink="http://www.w3.org/1999/xlink" viewBox="0 0 16 16">
  <defs>
    <clipPath id="clip-invite-email">
      <rect width="16" height="16"/>
    </clipPath>
  </defs>
  <g id="invite-email" clip-path="url(#clip-invite-email)">
    <g id="eb4156b763c108837c99db61dda20fe6" transform="translate(-7.1 -10.8)">
      <g id="Icon-Envelope" transform="translate(8.1 13.8)">
        <path id="Fill-3" d="M-55.834-214.545l-.555-.555-5.144,5.144a1.694,1.694,0,0,1-2.367,0l-5.144-5.115-.555.555,3.829,3.829-3.829,3.829.555.555,3.829-3.829.76.76a2.436,2.436,0,0,0,1.724.731,2.436,2.436,0,0,0,1.724-.731l.76-.76,3.829,3.829.555-.555-3.829-3.829,3.858-3.858" transform="translate(69.688 216.006)"/>
        <path id="Fill-4" d="M-57.128-207.5H-68.672A1.235,1.235,0,0,1-69.9-208.73v-8.242a1.235,1.235,0,0,1,1.228-1.228h11.545a1.235,1.235,0,0,1,1.228,1.228v8.242a1.235,1.235,0,0,1-1.228,1.228ZM-68.7-217.411a.4.4,0,0,0-.409.409v8.242a.4.4,0,0,0,.409.409h11.545a.4.4,0,0,0,.409-.409V-217a.4.4,0,0,0-.409-.409Z" transform="translate(69.9 218.2)"/>
      </g>
    </g>
  </g>
</svg>
