<svg xmlns="http://www.w3.org/2000/svg" xmlns:xlink="http://www.w3.org/1999/xlink" viewBox="0 0 16 16">
  <defs>
    <clipPath id="clip-expand">
      <rect width="16" height="16"/>
    </clipPath>
  </defs>
  <g id="expand" clip-path="url(#clip-expand)">
    <path id="Union_30" data-name="Union 30" d="M2030.939-411.541l-2.787-2.788a.515.515,0,0,1-.152-.366.518.518,0,0,1,.152-.366l2.787-2.787a.518.518,0,0,1,.732,0,.516.516,0,0,1,.152.366.516.516,0,0,1-.152.366l-1.9,1.9h3.948a.518.518,0,0,1,.518.518.518.518,0,0,1-.518.518h-3.948l1.9,1.9a.518.518,0,0,1,0,.732.516.516,0,0,1-.366.152A.516.516,0,0,1,2030.939-411.541Zm7.39,0a.518.518,0,0,1,0-.732l1.9-1.9h-3.948a.518.518,0,0,1-.518-.518.518.518,0,0,1,.518-.517h3.948l-1.9-1.9a.518.518,0,0,1,0-.732.518.518,0,0,1,.732,0l2.787,2.787a.518.518,0,0,1,.152.366.518.518,0,0,1-.152.366l-2.787,2.787a.516.516,0,0,1-.366.152A.516.516,0,0,1,2038.329-411.542Z" transform="translate(-2027 423)"/>
  </g>
</svg>
