<svg xmlns="http://www.w3.org/2000/svg" xmlns:xlink="http://www.w3.org/1999/xlink" viewBox="0 0 16 16">
  <defs>
    <clipPath id="clip-file">
      <rect width="16" height="16"/>
    </clipPath>
  </defs>
  <g id="file" clip-path="url(#clip-file)">
    <path id="_227c519ddc017215ad31de6ade0fcd2f" data-name="227c519ddc017215ad31de6ade0fcd2f" d="M7.15,6.9h1.4a.35.35,0,0,0,0-.7H7.15a.35.35,0,1,0,0,.7Zm8.023-.485A.35.35,0,0,0,15.1,6.3L10.9,2.1A.352.352,0,0,0,10.65,2H6.1A2.1,2.1,0,0,0,4,4.1v9.8A2.1,2.1,0,0,0,6.1,16h7a2.1,2.1,0,0,0,2.1-2.1V6.55A.349.349,0,0,0,15.173,6.415ZM11,3.195,14.005,6.2H11.933A.934.934,0,0,1,11,5.267ZM14.5,13.9a1.4,1.4,0,0,1-1.4,1.4h-7a1.4,1.4,0,0,1-1.4-1.4V4.1A1.4,1.4,0,0,1,6.1,2.7h4.2V5.267A1.635,1.635,0,0,0,11.933,6.9H14.5ZM6.8,9.35a.35.35,0,0,0,.35.35h4.9a.35.35,0,1,0,0-.7H7.15A.35.35,0,0,0,6.8,9.35Zm5.25,2.45H7.15a.35.35,0,1,0,0,.7h4.9a.35.35,0,1,0,0-.7Z" transform="translate(-2 -1)"/>
  </g>
</svg>
