<svg xmlns="http://www.w3.org/2000/svg" xmlns:xlink="http://www.w3.org/1999/xlink" viewBox="0 0 16 16">
  <defs>
    <clipPath id="clip-file-manager">
      <rect width="16" height="16"/>
    </clipPath>
  </defs>
  <g id="file-manager" clip-path="url(#clip-file-manager)">
    <path id="Union_11" data-name="Union 11" d="M-2728.254-2189.726v-.657a1.721,1.721,0,0,1-.185-.075l-.456.45a.532.532,0,0,1-.432.22.544.544,0,0,1-.1-.009.533.533,0,0,1-.422-.408.533.533,0,0,1,.2-.54l.457-.457a1.768,1.768,0,0,1-.075-.185h-.657a.535.535,0,0,1-.534-.534.534.534,0,0,1,.534-.534h.657a1.747,1.747,0,0,1,.075-.185l-.465-.465a.535.535,0,0,1,0-.755.534.534,0,0,1,.378-.156.534.534,0,0,1,.378.156l.448.467a1.536,1.536,0,0,1,.183-.074v-.657a.534.534,0,0,1,.533-.534.535.535,0,0,1,.534.534v.655a1.705,1.705,0,0,1,.184.075l.47-.474a.53.53,0,0,1,.378-.157.531.531,0,0,1,.378.156.532.532,0,0,1,.156.377.533.533,0,0,1-.156.378l-.465.465a1.573,1.573,0,0,1,.075.184h.651a.535.535,0,0,1,.534.534.534.534,0,0,1-.534.534l-.638-.006a1.609,1.609,0,0,1-.075.184l.465.464a.532.532,0,0,1,.157.378.53.53,0,0,1-.157.377.528.528,0,0,1-.377.156.527.527,0,0,1-.377-.156l-.465-.464a1.76,1.76,0,0,1-.185.074v.663a.534.534,0,0,1-.534.533A.534.534,0,0,1-2728.254-2189.726Zm-.038-2.211a.563.563,0,0,0,.562.562.563.563,0,0,0,.563-.562.563.563,0,0,0-.563-.563A.563.563,0,0,0-2728.293-2191.937Zm-8.6,2.737a2.112,2.112,0,0,1-2.1-2.107v-7.58a2.1,2.1,0,0,1,.614-1.492,2.1,2.1,0,0,1,1.491-.62h2.41a2.121,2.121,0,0,1,1.305.454l1.735,1.369a1.047,1.047,0,0,0,.647.224h3.69a2.113,2.113,0,0,1,2.108,2.107v2.117a.535.535,0,0,1-.534.534.535.535,0,0,1-.534-.534v-.229a1.043,1.043,0,0,0-1.04-1.04h-6.622a1.043,1.043,0,0,0-1.04,1.04v3.631a2.123,2.123,0,0,1-.285,1.059h4.519a.534.534,0,0,1,.533.533.534.534,0,0,1-.533.534Zm-1.036-9.687v7.579a1.045,1.045,0,0,0,1.038,1.041,1.063,1.063,0,0,0,1.058-1.059v-3.631a2.1,2.1,0,0,1,.616-1.493,2.093,2.093,0,0,1,1.491-.62h6.622a2.109,2.109,0,0,1,1.04.275v-.051a1.043,1.043,0,0,0-1.04-1.04h-3.688a2.126,2.126,0,0,1-1.3-.447l-1.735-1.37a1.043,1.043,0,0,0-.646-.224h-2.416A1.044,1.044,0,0,0-2737.932-2198.887Z" transform="translate(2740 2203)"/>
  </g>
</svg>
