<svg width="20" height="20" viewBox="0 0 20 20" fill="none" xmlns="http://www.w3.org/2000/svg">
<path d="M5 1.25H11.25V2.5H5C4.66848 2.5 4.35054 2.6317 4.11612 2.86612C3.8817 3.10054 3.75 3.41848 3.75 3.75V16.25C3.75 16.5815 3.8817 16.8995 4.11612 17.1339C4.35054 17.3683 4.66848 17.5 5 17.5H15C15.3315 17.5 15.6495 17.3683 15.8839 17.1339C16.1183 16.8995 16.25 16.5815 16.25 16.25V7.5H17.5V16.25C17.5 16.913 17.2366 17.5489 16.7678 18.0178C16.2989 18.4866 15.663 18.75 15 18.75H5C4.33696 18.75 3.70107 18.4866 3.23223 18.0178C2.76339 17.5489 2.5 16.913 2.5 16.25V3.75C2.5 3.08696 2.76339 2.45107 3.23223 1.98223C3.70107 1.51339 4.33696 1.25 5 1.25V1.25Z" fill="#262E42"/>
<path d="M11.25 5.625V1.25L17.5 7.5H13.125C12.6277 7.5 12.1508 7.30246 11.7992 6.95083C11.4475 6.59919 11.25 6.12228 11.25 5.625Z" fill="#262E42"/>
<path fill-rule="evenodd" clip-rule="evenodd" d="M6.25 14.375C6.25 14.2092 6.31585 14.0503 6.43306 13.9331C6.55027 13.8158 6.70924 13.75 6.875 13.75H9.375C9.54076 13.75 9.69973 13.8158 9.81694 13.9331C9.93415 14.0503 10 14.2092 10 14.375C10 14.5408 9.93415 14.6997 9.81694 14.8169C9.69973 14.9342 9.54076 15 9.375 15H6.875C6.70924 15 6.55027 14.9342 6.43306 14.8169C6.31585 14.6997 6.25 14.5408 6.25 14.375ZM6.25 11.875C6.25 11.7092 6.31585 11.5503 6.43306 11.4331C6.55027 11.3158 6.70924 11.25 6.875 11.25H13.125C13.2908 11.25 13.4497 11.3158 13.5669 11.4331C13.6842 11.5503 13.75 11.7092 13.75 11.875C13.75 12.0408 13.6842 12.1997 13.5669 12.3169C13.4497 12.4342 13.2908 12.5 13.125 12.5H6.875C6.70924 12.5 6.55027 12.4342 6.43306 12.3169C6.31585 12.1997 6.25 12.0408 6.25 11.875ZM6.25 9.375C6.25 9.20924 6.31585 9.05027 6.43306 8.93306C6.55027 8.81585 6.70924 8.75 6.875 8.75H13.125C13.2908 8.75 13.4497 8.81585 13.5669 8.93306C13.6842 9.05027 13.75 9.20924 13.75 9.375C13.75 9.54076 13.6842 9.69973 13.5669 9.81694C13.4497 9.93415 13.2908 10 13.125 10H6.875C6.70924 10 6.55027 9.93415 6.43306 9.81694C6.31585 9.69973 6.25 9.54076 6.25 9.375Z" fill="#262E42"/>
</svg>
