<svg xmlns="http://www.w3.org/2000/svg" xmlns:xlink="http://www.w3.org/1999/xlink" viewBox="0 0 16 16">
  <defs>
    <clipPath id="clip-filter">
      <rect width="16" height="16"/>
    </clipPath>
  </defs>
  <g id="filter" clip-path="url(#clip-filter)">
    <g id="ddd623a35fec0dd28a3e3c8b4b5bef2f" transform="translate(1 2)">
      <path id="Path_714" data-name="Path 714" d="M6,7H2.5a.5.5,0,0,1,0-1H6A.5.5,0,0,0,6,7Zm10-.5a.5.5,0,0,1-.5.5H6A.5.5,0,0,0,6,6h9.5A.5.5,0,0,1,16,6.5Zm-4,5H2.5a.5.5,0,0,1,0-1H12a.5.5,0,0,0,0,1Zm4-.5a.5.5,0,0,1-.5.5H12a.5.5,0,0,0,0-1h3.5A.5.5,0,0,1,16,11ZM6,16H2.5a.5.5,0,1,1,0-1H6a.5.5,0,1,0,0,1Zm10-.5a.5.5,0,0,1-.5.5H6a.5.5,0,1,0,0-1h9.5A.5.5,0,0,1,16,15.5Z" transform="translate(-2 -5.012)"/>
      <path id="Path_715" data-name="Path 715" d="M9.865,23.5A1,1,0,1,0,10,24,1,1,0,0,0,9.865,23.5ZM8.5,24a.5.5,0,1,1,.5.5A.5.5,0,0,1,8.5,24Z" transform="translate(-5 -13.513)"/>
      <path id="Path_716" data-name="Path 716" d="M9.91,19a1.5,1.5,0,0,0-2.82,0,1.435,1.435,0,0,0,0,1,1.5,1.5,0,0,0,2.82,0A1.435,1.435,0,0,0,9.91,19ZM9,19.5a.5.5,0,1,1-.5-.5A.5.5,0,0,1,9,19.5Zm6.365-5a1,1,0,1,0,.135.5A1,1,0,0,0,15.365,14.5ZM14,15a.5.5,0,1,1,.5.5A.5.5,0,0,1,14,15Z" transform="translate(-4.5 -9.013)"/>
      <path id="Path_717" data-name="Path 717" d="M16.41,10a1.5,1.5,0,0,0-2.82,0,1.435,1.435,0,0,0,0,1,1.5,1.5,0,0,0,2.82,0A1.435,1.435,0,0,0,16.41,10Zm-.91.5A.5.5,0,1,1,15,10,.5.5,0,0,1,15.5,10.5Zm-5.635-5A1,1,0,1,0,10,6,1,1,0,0,0,9.865,5.5ZM8.5,6a.5.5,0,1,1,.5.5A.5.5,0,0,1,8.5,6Z" transform="translate(-5 -4.513)"/>
      <path id="Path_718" data-name="Path 718" d="M9.91,5.012a1.5,1.5,0,0,0-2.82,0,1.435,1.435,0,0,0,0,1,1.5,1.5,0,0,0,2.82,0A1.435,1.435,0,0,0,9.91,5.012Zm-.91.5a.5.5,0,1,1-.5-.5A.5.5,0,0,1,9,5.512Z" transform="translate(-4.5 -4.024)"/>
    </g>
  </g>
</svg>
