<svg width="20" height="19" viewBox="0 0 20 19" fill="none" xmlns="http://www.w3.org/2000/svg">
<path fill-rule="evenodd" clip-rule="evenodd" d="M10.0021 3.43408L9.10581 2.51283C7.00207 0.350334 3.14457 1.09658 1.75207 3.81533C1.09832 5.09408 0.950816 6.94033 2.14457 9.29658C3.29457 11.5653 5.68707 14.2828 10.0021 17.2428C14.3171 14.2828 16.7083 11.5653 17.8596 9.29658C19.0533 6.93908 18.9071 5.09408 18.2521 3.81533C16.8596 1.09658 13.0021 0.349084 10.8983 2.51158L10.0021 3.43408ZM10.0021 18.7491C-9.16418 6.08408 4.10082 -3.80092 9.78207 1.42783C9.85707 1.49658 9.93081 1.56783 10.0021 1.64158C10.0726 1.5679 10.146 1.49701 10.2221 1.42908C15.9021 -3.80342 29.1683 6.08283 10.0021 18.7491Z" fill="#262E42"/>
</svg>
