<svg xmlns="http://www.w3.org/2000/svg" xmlns:xlink="http://www.w3.org/1999/xlink" viewBox="0 0 16 16">
  <defs>
    <clipPath id="clip-hourglass">
      <rect width="16" height="16"/>
    </clipPath>
  </defs>
  <g id="hourglass" clip-path="url(#clip-hourglass)">
    <g id="_54c7ce9a49902b59c451cc32390932f5" data-name="54c7ce9a49902b59c451cc32390932f5" transform="translate(-0.7 0)">
      <path id="Path_723" data-name="Path 723" d="M13.818,2.273a.636.636,0,1,0,0-1.273H3.636a.636.636,0,0,0,0,1.273H4.3c.093,1.168.473,3.659,2.033,5.091-1.645,1.6-1.98,4.922-2.047,6.364H3.636a.636.636,0,0,0,0,1.273H13.818a.636.636,0,1,0,0-1.273h-.654c-.067-1.441-.4-4.764-2.047-6.364,1.56-1.433,1.94-3.924,2.033-5.091ZM9.733,6.807a.636.636,0,0,0,.022,1.124c1.551.781,2.036,4.016,2.135,5.8H5.565c.1-1.782.584-5.014,2.135-5.8a.636.636,0,0,0,.022-1.124c-1.616-.9-2.032-3.361-2.139-4.535h6.29c-.108,1.173-.524,3.638-2.139,4.535Z"/>
      <path id="Path_724" data-name="Path 724" d="M9,15.291v2.164h3.818V15.291c0-.764-1.909-2.291-1.909-2.291S9,14.527,9,15.291Z" transform="translate(-2.182 -4.364)"/>
    </g>
  </g>
</svg>
