<svg xmlns="http://www.w3.org/2000/svg" xmlns:xlink="http://www.w3.org/1999/xlink" viewBox="0 0 16 16">
  <defs>
    <clipPath id="clip-journey">
      <rect width="16" height="16"/>
    </clipPath>
  </defs>
  <g id="journey" clip-path="url(#clip-journey)">
    <path id="Union_17" data-name="Union 17" d="M494.647-329.969l-4.48-1.793-4.481,1.793a.5.5,0,0,1-.466-.05.5.5,0,0,1-.22-.414v-11.2a.5.5,0,0,1,.314-.464l4.667-1.867a.5.5,0,0,1,.372,0l4.481,1.792,4.481-1.792A.489.489,0,0,1,499.5-344a.5.5,0,0,1,.28.086.5.5,0,0,1,.221.414v11.2a.5.5,0,0,1-.315.464l-4.667,1.867a.5.5,0,0,1-.186.036A.5.5,0,0,1,494.647-329.969Zm-4.295-2.8,4.481,1.792L499-332.638v-10.123l-3.981,1.592a.489.489,0,0,1-.185.036.5.5,0,0,1-.186-.036l-4.48-1.792L486-341.294v10.122l3.981-1.592a.5.5,0,0,1,.186-.036A.5.5,0,0,1,490.352-332.764Zm-3.486-1.4A1.435,1.435,0,0,1,488.3-335.6a1.435,1.435,0,0,1,1.343.933H495.3a.9.9,0,0,0,.9-.9.9.9,0,0,0-.9-.9h-2.8a1.9,1.9,0,0,1-1.9-1.9,1.9,1.9,0,0,1,1.9-1.9h2.857a1.436,1.436,0,0,1,1.344-.933,1.434,1.434,0,0,1,1.433,1.433,1.434,1.434,0,0,1-1.433,1.434,1.436,1.436,0,0,1-1.344-.933H492.5a.9.9,0,0,0-.9.9.9.9,0,0,0,.9.9h2.8a1.9,1.9,0,0,1,1.9,1.9,1.9,1.9,0,0,1-1.9,1.9h-5.656a1.435,1.435,0,0,1-1.343.933A1.434,1.434,0,0,1,486.867-334.166Zm1,0a.434.434,0,0,0,.434.433.434.434,0,0,0,.433-.433.434.434,0,0,0-.433-.434A.434.434,0,0,0,487.867-334.166Zm8.4-5.6a.434.434,0,0,0,.434.434.434.434,0,0,0,.433-.434.434.434,0,0,0-.433-.433A.434.434,0,0,0,496.266-339.767Z" transform="translate(-484.5 345)"/>
  </g>
</svg>
