<svg xmlns="http://www.w3.org/2000/svg" xmlns:xlink="http://www.w3.org/1999/xlink" width="16" height="16" viewBox="0 0 16 16">
  <defs>
    <clipPath id="clip-lectures">
      <rect width="16" height="16"/>
    </clipPath>
  </defs>
  <g id="lectures" clip-path="url(#clip-lectures)">
    <g id="Book" transform="translate(-4.5 1)">
      <path id="Path_624" data-name="Path 624" d="M17.739,25H9.461A1.481,1.481,0,0,1,8,23.543v-.183A1.481,1.481,0,0,1,9.461,21.9h8.278Z" transform="translate(-0.391 -11.613)" fill="#ffb800"/>
      <path id="Path_625" data-name="Path 625" d="M17.348,5H8.826A1.831,1.831,0,0,0,7,6.826v10.1A2.052,2.052,0,0,0,9.07,19h8.278a.575.575,0,0,0,.609-.609V5.609A.61.61,0,0,0,17.348,5ZM8.826,6.217h7.913v8.522H9.07a2.148,2.148,0,0,0-.852.183v-8.1A.61.61,0,0,1,8.826,6.217Zm7.913,11.565H9.07a.832.832,0,0,1-.852-.852v-.183A.871.871,0,0,1,9.07,15.9h7.67v1.887Z" transform="translate(0 -5)" fill="#2f326a"/>
      <path id="Path_626" data-name="Path 626" d="M11.609,10.217h4.87a.609.609,0,1,0,0-1.217h-4.87a.609.609,0,1,0,0,1.217Z" transform="translate(-1.565 -6.565)" fill="#2f326a"/>
    </g>
  </g>
</svg>
