<svg xmlns="http://www.w3.org/2000/svg" xmlns:xlink="http://www.w3.org/1999/xlink" viewBox="0 0 16 16">
  <defs>
    <clipPath id="clip-confirm-bactch">
      <rect width="16" height="16"/>
    </clipPath>
  </defs>
  <g id="confirm-bactch" clip-path="url(#clip-confirm-bactch)">
    <path id="Union_18" data-name="Union 18" d="M144.666-728A2.669,2.669,0,0,1,142-730.667v-10.666A2.67,2.67,0,0,1,144.666-744h7.467a2.67,2.67,0,0,1,2.666,2.667v10.666A2.669,2.669,0,0,1,152.133-728Zm-1.6-13.333v10.666a1.6,1.6,0,0,0,1.6,1.6h7.467a1.6,1.6,0,0,0,1.6-1.6v-10.666a1.6,1.6,0,0,0-1.6-1.6H151.6v.534a1.6,1.6,0,0,1-1.6,1.6h-3.2a1.6,1.6,0,0,1-1.6-1.6v-.534h-.534A1.6,1.6,0,0,0,143.067-741.333Zm3.2-1.067a.533.533,0,0,0,.533.533H150a.533.533,0,0,0,.533-.533v-.534h-4.266Zm.681,9.31-1.674-1.674a.872.872,0,0,1,.562-1.43.869.869,0,0,1,.622.245l1.083,1.082,2.759-2.758a1.277,1.277,0,0,1,.622-.245.863.863,0,0,1,.589,1.4l-.028.029-3.35,3.351a.707.707,0,0,1-.226.16.858.858,0,0,1-.375.09A.838.838,0,0,1,146.948-733.089Z" transform="translate(-140.5 744)"/>
  </g>
</svg>
