<svg width="36" height="36" viewBox="0 0 36 36" fill="none" xmlns="http://www.w3.org/2000/svg">
<path fill-rule="evenodd" clip-rule="evenodd" d="M23.0314 8.469C23.1012 8.53867 23.1566 8.62143 23.1944 8.71255C23.2322 8.80367 23.2517 8.90135 23.2517 9C23.2517 9.09865 23.2322 9.19633 23.1944 9.28745C23.1566 9.37857 23.1012 9.46133 23.0314 9.531L14.5609 18L23.0314 26.469C23.1722 26.6098 23.2513 26.8008 23.2513 27C23.2513 27.1992 23.1722 27.3902 23.0314 27.531C22.8905 27.6718 22.6995 27.7509 22.5004 27.7509C22.3012 27.7509 22.1102 27.6718 21.9694 27.531L12.9694 18.531C12.8995 18.4613 12.8441 18.3786 12.8063 18.2874C12.7685 18.1963 12.749 18.0986 12.749 18C12.749 17.9013 12.7685 17.8037 12.8063 17.7125C12.8441 17.6214 12.8995 17.5387 12.9694 17.469L21.9694 8.469C22.039 8.39915 22.1218 8.34374 22.2129 8.30593C22.304 8.26812 22.4017 8.24866 22.5004 8.24866C22.599 8.24866 22.6967 8.26812 22.7878 8.30593C22.8789 8.34374 22.9617 8.39915 23.0314 8.469Z" fill="#333333"/>
<path d="M18 35C8.61116 35 1 27.3888 1 18H-1C-1 28.4934 7.50659 37 18 37V35ZM35 18C35 27.3888 27.3888 35 18 35V37C28.4934 37 37 28.4934 37 18H35ZM18 1C27.3888 1 35 8.61116 35 18H37C37 7.50659 28.4934 -1 18 -1V1ZM18 -1C7.50659 -1 -1 7.50659 -1 18H1C1 8.61116 8.61116 1 18 1V-1Z" fill="#333333"/>
</svg>
