<svg xmlns="http://www.w3.org/2000/svg" xmlns:xlink="http://www.w3.org/1999/xlink" width="280" height="9" viewBox="0 0 280 9">
  <defs>
    <clipPath id="clip-path">
      <rect id="Rectangle_1142" data-name="Rectangle 1142" width="279.954" height="7" fill="#2bbd7e"/>
    </clipPath>
    <clipPath id="clip-path-2">
      <rect width="303.974" height="9.769" fill="none"/>
    </clipPath>
  </defs>
  <g id="Group_3872" data-name="Group 3872" transform="translate(-805 -192)">
    <path id="Path_737" data-name="Path 737" d="M5247,3151.727h279" transform="translate(-4441 -2951.727)" fill="none" stroke="#2bbf6d" stroke-width="2"/>
    <g id="Mask_Group_15" data-name="Mask Group 15" transform="translate(805 192)" clip-path="url(#clip-path)">
      <rect id="Rectangle_1141" data-name="Rectangle 1141" width="279.954" height="7" fill="#2bbd7e"/>
      <g id="Repeat_Grid_27" data-name="Repeat Grid 27" transform="translate(-20.681 -2.016)" clip-path="url(#clip-path-2)">
        <g transform="translate(-178.261 -48.441)">
          <path id="Path_738" data-name="Path 738" d="M191.662,51,181.55,60.716" transform="translate(-4.684 -2.543)" fill="none" stroke="#fff" stroke-width="2"/>
        </g>
        <g transform="translate(-173.261 -48.441)">
          <path id="Path_739" data-name="Path 739" d="M191.662,51,181.55,60.716" transform="translate(-4.684 -2.543)" fill="none" stroke="#fff" stroke-width="2"/>
        </g>
        <g transform="translate(-168.261 -48.441)">
          <path id="Path_740" data-name="Path 740" d="M191.662,51,181.55,60.716" transform="translate(-4.684 -2.543)" fill="none" stroke="#fff" stroke-width="2"/>
        </g>
        <g transform="translate(-163.261 -48.441)">
          <path id="Path_741" data-name="Path 741" d="M191.662,51,181.55,60.716" transform="translate(-4.684 -2.543)" fill="none" stroke="#fff" stroke-width="2"/>
        </g>
        <g transform="translate(-158.261 -48.441)">
          <path id="Path_742" data-name="Path 742" d="M191.662,51,181.55,60.716" transform="translate(-4.684 -2.543)" fill="none" stroke="#fff" stroke-width="2"/>
        </g>
        <g transform="translate(-153.261 -48.441)">
          <path id="Path_743" data-name="Path 743" d="M191.662,51,181.55,60.716" transform="translate(-4.684 -2.543)" fill="none" stroke="#fff" stroke-width="2"/>
        </g>
        <g transform="translate(-148.261 -48.441)">
          <path id="Path_744" data-name="Path 744" d="M191.662,51,181.55,60.716" transform="translate(-4.684 -2.543)" fill="none" stroke="#fff" stroke-width="2"/>
        </g>
        <g transform="translate(-143.261 -48.441)">
          <path id="Path_745" data-name="Path 745" d="M191.662,51,181.55,60.716" transform="translate(-4.684 -2.543)" fill="none" stroke="#fff" stroke-width="2"/>
        </g>
        <g transform="translate(-138.261 -48.441)">
          <path id="Path_746" data-name="Path 746" d="M191.662,51,181.55,60.716" transform="translate(-4.684 -2.543)" fill="none" stroke="#fff" stroke-width="2"/>
        </g>
        <g transform="translate(-133.261 -48.441)">
          <path id="Path_747" data-name="Path 747" d="M191.662,51,181.55,60.716" transform="translate(-4.684 -2.543)" fill="none" stroke="#fff" stroke-width="2"/>
        </g>
        <g transform="translate(-128.261 -48.441)">
          <path id="Path_748" data-name="Path 748" d="M191.662,51,181.55,60.716" transform="translate(-4.684 -2.543)" fill="none" stroke="#fff" stroke-width="2"/>
        </g>
        <g transform="translate(-123.261 -48.441)">
          <path id="Path_749" data-name="Path 749" d="M191.662,51,181.55,60.716" transform="translate(-4.684 -2.543)" fill="none" stroke="#fff" stroke-width="2"/>
        </g>
        <g transform="translate(-118.261 -48.441)">
          <path id="Path_750" data-name="Path 750" d="M191.662,51,181.55,60.716" transform="translate(-4.684 -2.543)" fill="none" stroke="#fff" stroke-width="2"/>
        </g>
        <g transform="translate(-113.261 -48.441)">
          <path id="Path_751" data-name="Path 751" d="M191.662,51,181.55,60.716" transform="translate(-4.684 -2.543)" fill="none" stroke="#fff" stroke-width="2"/>
        </g>
        <g transform="translate(-108.261 -48.441)">
          <path id="Path_752" data-name="Path 752" d="M191.662,51,181.55,60.716" transform="translate(-4.684 -2.543)" fill="none" stroke="#fff" stroke-width="2"/>
        </g>
        <g transform="translate(-103.261 -48.441)">
          <path id="Path_753" data-name="Path 753" d="M191.662,51,181.55,60.716" transform="translate(-4.684 -2.543)" fill="none" stroke="#fff" stroke-width="2"/>
        </g>
        <g transform="translate(-98.261 -48.441)">
          <path id="Path_753-2" data-name="Path 753" d="M191.662,51,181.55,60.716" transform="translate(-4.684 -2.543)" fill="none" stroke="#fff" stroke-width="2"/>
        </g>
        <g transform="translate(-93.261 -48.441)">
          <path id="Path_753-3" data-name="Path 753" d="M191.662,51,181.55,60.716" transform="translate(-4.684 -2.543)" fill="none" stroke="#fff" stroke-width="2"/>
        </g>
        <g transform="translate(-88.261 -48.441)">
          <path id="Path_753-4" data-name="Path 753" d="M191.662,51,181.55,60.716" transform="translate(-4.684 -2.543)" fill="none" stroke="#fff" stroke-width="2"/>
        </g>
        <g transform="translate(-83.261 -48.441)">
          <path id="Path_753-5" data-name="Path 753" d="M191.662,51,181.55,60.716" transform="translate(-4.684 -2.543)" fill="none" stroke="#fff" stroke-width="2"/>
        </g>
        <g transform="translate(-78.261 -48.441)">
          <path id="Path_753-6" data-name="Path 753" d="M191.662,51,181.55,60.716" transform="translate(-4.684 -2.543)" fill="none" stroke="#fff" stroke-width="2"/>
        </g>
        <g transform="translate(-73.261 -48.441)">
          <path id="Path_753-7" data-name="Path 753" d="M191.662,51,181.55,60.716" transform="translate(-4.684 -2.543)" fill="none" stroke="#fff" stroke-width="2"/>
        </g>
        <g transform="translate(-68.261 -48.441)">
          <path id="Path_753-8" data-name="Path 753" d="M191.662,51,181.55,60.716" transform="translate(-4.684 -2.543)" fill="none" stroke="#fff" stroke-width="2"/>
        </g>
        <g transform="translate(-63.261 -48.441)">
          <path id="Path_753-9" data-name="Path 753" d="M191.662,51,181.55,60.716" transform="translate(-4.684 -2.543)" fill="none" stroke="#fff" stroke-width="2"/>
        </g>
        <g transform="translate(-58.261 -48.441)">
          <path id="Path_753-10" data-name="Path 753" d="M191.662,51,181.55,60.716" transform="translate(-4.684 -2.543)" fill="none" stroke="#fff" stroke-width="2"/>
        </g>
        <g transform="translate(-53.261 -48.441)">
          <path id="Path_753-11" data-name="Path 753" d="M191.662,51,181.55,60.716" transform="translate(-4.684 -2.543)" fill="none" stroke="#fff" stroke-width="2"/>
        </g>
        <g transform="translate(-48.261 -48.441)">
          <path id="Path_753-12" data-name="Path 753" d="M191.662,51,181.55,60.716" transform="translate(-4.684 -2.543)" fill="none" stroke="#fff" stroke-width="2"/>
        </g>
        <g transform="translate(-43.261 -48.441)">
          <path id="Path_753-13" data-name="Path 753" d="M191.662,51,181.55,60.716" transform="translate(-4.684 -2.543)" fill="none" stroke="#fff" stroke-width="2"/>
        </g>
        <g transform="translate(-38.261 -48.441)">
          <path id="Path_753-14" data-name="Path 753" d="M191.662,51,181.55,60.716" transform="translate(-4.684 -2.543)" fill="none" stroke="#fff" stroke-width="2"/>
        </g>
        <g transform="translate(-33.261 -48.441)">
          <path id="Path_753-15" data-name="Path 753" d="M191.662,51,181.55,60.716" transform="translate(-4.684 -2.543)" fill="none" stroke="#fff" stroke-width="2"/>
        </g>
        <g transform="translate(-28.261 -48.441)">
          <path id="Path_753-16" data-name="Path 753" d="M191.662,51,181.55,60.716" transform="translate(-4.684 -2.543)" fill="none" stroke="#fff" stroke-width="2"/>
        </g>
        <g transform="translate(-23.261 -48.441)">
          <path id="Path_753-17" data-name="Path 753" d="M191.662,51,181.55,60.716" transform="translate(-4.684 -2.543)" fill="none" stroke="#fff" stroke-width="2"/>
        </g>
        <g transform="translate(-18.261 -48.441)">
          <path id="Path_753-18" data-name="Path 753" d="M191.662,51,181.55,60.716" transform="translate(-4.684 -2.543)" fill="none" stroke="#fff" stroke-width="2"/>
        </g>
        <g transform="translate(-13.261 -48.441)">
          <path id="Path_753-19" data-name="Path 753" d="M191.662,51,181.55,60.716" transform="translate(-4.684 -2.543)" fill="none" stroke="#fff" stroke-width="2"/>
        </g>
        <g transform="translate(-8.261 -48.441)">
          <path id="Path_753-20" data-name="Path 753" d="M191.662,51,181.55,60.716" transform="translate(-4.684 -2.543)" fill="none" stroke="#fff" stroke-width="2"/>
        </g>
        <g transform="translate(-3.261 -48.441)">
          <path id="Path_753-21" data-name="Path 753" d="M191.662,51,181.55,60.716" transform="translate(-4.684 -2.543)" fill="none" stroke="#fff" stroke-width="2"/>
        </g>
        <g transform="translate(1.739 -48.441)">
          <path id="Path_753-22" data-name="Path 753" d="M191.662,51,181.55,60.716" transform="translate(-4.684 -2.543)" fill="none" stroke="#fff" stroke-width="2"/>
        </g>
        <g transform="translate(6.739 -48.441)">
          <path id="Path_753-23" data-name="Path 753" d="M191.662,51,181.55,60.716" transform="translate(-4.684 -2.543)" fill="none" stroke="#fff" stroke-width="2"/>
        </g>
        <g transform="translate(11.739 -48.441)">
          <path id="Path_753-24" data-name="Path 753" d="M191.662,51,181.55,60.716" transform="translate(-4.684 -2.543)" fill="none" stroke="#fff" stroke-width="2"/>
        </g>
        <g transform="translate(16.739 -48.441)">
          <path id="Path_753-25" data-name="Path 753" d="M191.662,51,181.55,60.716" transform="translate(-4.684 -2.543)" fill="none" stroke="#fff" stroke-width="2"/>
        </g>
        <g transform="translate(21.739 -48.441)">
          <path id="Path_753-26" data-name="Path 753" d="M191.662,51,181.55,60.716" transform="translate(-4.684 -2.543)" fill="none" stroke="#fff" stroke-width="2"/>
        </g>
        <g transform="translate(26.739 -48.441)">
          <path id="Path_753-27" data-name="Path 753" d="M191.662,51,181.55,60.716" transform="translate(-4.684 -2.543)" fill="none" stroke="#fff" stroke-width="2"/>
        </g>
        <g transform="translate(31.739 -48.441)">
          <path id="Path_753-28" data-name="Path 753" d="M191.662,51,181.55,60.716" transform="translate(-4.684 -2.543)" fill="none" stroke="#fff" stroke-width="2"/>
        </g>
        <g transform="translate(36.739 -48.441)">
          <path id="Path_753-29" data-name="Path 753" d="M191.662,51,181.55,60.716" transform="translate(-4.684 -2.543)" fill="none" stroke="#fff" stroke-width="2"/>
        </g>
        <g transform="translate(41.739 -48.441)">
          <path id="Path_753-30" data-name="Path 753" d="M191.662,51,181.55,60.716" transform="translate(-4.684 -2.543)" fill="none" stroke="#fff" stroke-width="2"/>
        </g>
        <g transform="translate(46.739 -48.441)">
          <path id="Path_753-31" data-name="Path 753" d="M191.662,51,181.55,60.716" transform="translate(-4.684 -2.543)" fill="none" stroke="#fff" stroke-width="2"/>
        </g>
        <g transform="translate(51.739 -48.441)">
          <path id="Path_753-32" data-name="Path 753" d="M191.662,51,181.55,60.716" transform="translate(-4.684 -2.543)" fill="none" stroke="#fff" stroke-width="2"/>
        </g>
        <g transform="translate(56.739 -48.441)">
          <path id="Path_753-33" data-name="Path 753" d="M191.662,51,181.55,60.716" transform="translate(-4.684 -2.543)" fill="none" stroke="#fff" stroke-width="2"/>
        </g>
        <g transform="translate(61.739 -48.441)">
          <path id="Path_753-34" data-name="Path 753" d="M191.662,51,181.55,60.716" transform="translate(-4.684 -2.543)" fill="none" stroke="#fff" stroke-width="2"/>
        </g>
        <g transform="translate(66.739 -48.441)">
          <path id="Path_753-35" data-name="Path 753" d="M191.662,51,181.55,60.716" transform="translate(-4.684 -2.543)" fill="none" stroke="#fff" stroke-width="2"/>
        </g>
        <g transform="translate(71.739 -48.441)">
          <path id="Path_753-36" data-name="Path 753" d="M191.662,51,181.55,60.716" transform="translate(-4.684 -2.543)" fill="none" stroke="#fff" stroke-width="2"/>
        </g>
        <g transform="translate(76.739 -48.441)">
          <path id="Path_753-37" data-name="Path 753" d="M191.662,51,181.55,60.716" transform="translate(-4.684 -2.543)" fill="none" stroke="#fff" stroke-width="2"/>
        </g>
        <g transform="translate(81.739 -48.441)">
          <path id="Path_753-38" data-name="Path 753" d="M191.662,51,181.55,60.716" transform="translate(-4.684 -2.543)" fill="none" stroke="#fff" stroke-width="2"/>
        </g>
        <g transform="translate(86.739 -48.441)">
          <path id="Path_753-39" data-name="Path 753" d="M191.662,51,181.55,60.716" transform="translate(-4.684 -2.543)" fill="none" stroke="#fff" stroke-width="2"/>
        </g>
        <g transform="translate(91.739 -48.441)">
          <path id="Path_753-40" data-name="Path 753" d="M191.662,51,181.55,60.716" transform="translate(-4.684 -2.543)" fill="none" stroke="#fff" stroke-width="2"/>
        </g>
        <g transform="translate(96.739 -48.441)">
          <path id="Path_753-41" data-name="Path 753" d="M191.662,51,181.55,60.716" transform="translate(-4.684 -2.543)" fill="none" stroke="#fff" stroke-width="2"/>
        </g>
        <g transform="translate(101.739 -48.441)">
          <path id="Path_753-42" data-name="Path 753" d="M191.662,51,181.55,60.716" transform="translate(-4.684 -2.543)" fill="none" stroke="#fff" stroke-width="2"/>
        </g>
        <g transform="translate(106.739 -48.441)">
          <path id="Path_753-43" data-name="Path 753" d="M191.662,51,181.55,60.716" transform="translate(-4.684 -2.543)" fill="none" stroke="#fff" stroke-width="2"/>
        </g>
        <g transform="translate(111.739 -48.441)">
          <path id="Path_753-44" data-name="Path 753" d="M191.662,51,181.55,60.716" transform="translate(-4.684 -2.543)" fill="none" stroke="#fff" stroke-width="2"/>
        </g>
        <g transform="translate(116.739 -48.441)">
          <path id="Path_753-45" data-name="Path 753" d="M191.662,51,181.55,60.716" transform="translate(-4.684 -2.543)" fill="none" stroke="#fff" stroke-width="2"/>
        </g>
        <g transform="translate(121.739 -48.441)">
          <path id="Path_753-46" data-name="Path 753" d="M191.662,51,181.55,60.716" transform="translate(-4.684 -2.543)" fill="none" stroke="#fff" stroke-width="2"/>
        </g>
      </g>
    </g>
  </g>
</svg>
