<svg xmlns="http://www.w3.org/2000/svg" xmlns:xlink="http://www.w3.org/1999/xlink" viewBox="0 0 16 16">
  <defs>
    <clipPath id="clip-link">
      <rect width="16" height="16"/>
    </clipPath>
  </defs>
  <g id="link" clip-path="url(#clip-link)">
    <path id="Union_19" data-name="Union 19" d="M.979,14.974a3.442,3.442,0,0,1,.041-4.851L5.011,6.179a2.87,2.87,0,0,1,.269-.233V5.94l.175-.126a3.4,3.4,0,0,1,4.376.406,3.091,3.091,0,0,1,.832,1.408L9.59,8.707a1.872,1.872,0,0,1-.188.161A2.056,2.056,0,0,0,5.9,7.174L4.731,8.346,2,11.092A2.075,2.075,0,0,0,2,14.02a2.058,2.058,0,0,0,2.914,0l2.66-2.672a3.77,3.77,0,0,0,.826.1,3.893,3.893,0,0,0,1.22-.2L5.8,15.019a3.4,3.4,0,0,1-4.823-.045ZM7.75,10.693A3.336,3.336,0,0,1,6.169,9.78a3.418,3.418,0,0,1-.826-1.414L6.411,7.294A1.753,1.753,0,0,1,6.6,7.133a2.086,2.086,0,0,0,.588,1.694,2.047,2.047,0,0,0,1.459.6,1.948,1.948,0,0,0,.7-.122,2,2,0,0,0,.76-.482l1.247-1.256.009,0,0,0L14,4.905a2.065,2.065,0,1,0-2.913-2.928L8.423,4.651a3.812,3.812,0,0,0-2.048.108L10.2.981A3.385,3.385,0,0,1,12.587,0h.03a3.383,3.383,0,0,1,2.4,1.022,3.446,3.446,0,0,1-.042,4.855L10.992,9.819a3.2,3.2,0,0,1-.445.364A3.331,3.331,0,0,1,8.6,10.8,3.382,3.382,0,0,1,7.75,10.693Z" transform="translate(0)"/>
  </g>
</svg>
