<svg width="20" height="20" viewBox="0 0 20 20" fill="none" xmlns="http://www.w3.org/2000/svg">
<path fill-rule="evenodd" clip-rule="evenodd" d="M3.3475 14.8675C3.47725 14.9977 3.57667 15.155 3.63868 15.3281C3.70069 15.5011 3.72376 15.6857 3.70625 15.8687C3.6184 16.7157 3.45185 17.5527 3.20875 18.3687C4.9525 17.965 6.0175 17.4975 6.50125 17.2525C6.77563 17.1135 7.09161 17.0806 7.38875 17.16C8.24054 17.3871 9.11846 17.5014 10 17.5C14.995 17.5 18.75 13.9913 18.75 10C18.75 6.01 14.995 2.5 10 2.5C5.005 2.5 1.25 6.01 1.25 10C1.25 11.835 2.02125 13.5375 3.3475 14.8675ZM2.73125 19.7487C2.43509 19.8075 2.13796 19.8612 1.84 19.91C1.59 19.95 1.4 19.69 1.49875 19.4575C1.60974 19.1957 1.71147 18.9302 1.80375 18.6612L1.8075 18.6488C2.1175 17.7487 2.37 16.7138 2.4625 15.75C0.92875 14.2125 0 12.2 0 10C0 5.1675 4.4775 1.25 10 1.25C15.5225 1.25 20 5.1675 20 10C20 14.8325 15.5225 18.75 10 18.75C9.00956 18.7513 8.02323 18.6227 7.06625 18.3675C6.41625 18.6963 5.0175 19.295 2.73125 19.7487Z" fill="#262E42"/>
<path d="M6.25 10C6.25 10.3315 6.1183 10.6495 5.88388 10.8839C5.64946 11.1183 5.33152 11.25 5 11.25C4.66848 11.25 4.35054 11.1183 4.11612 10.8839C3.8817 10.6495 3.75 10.3315 3.75 10C3.75 9.66848 3.8817 9.35054 4.11612 9.11612C4.35054 8.8817 4.66848 8.75 5 8.75C5.33152 8.75 5.64946 8.8817 5.88388 9.11612C6.1183 9.35054 6.25 9.66848 6.25 10ZM11.25 10C11.25 10.3315 11.1183 10.6495 10.8839 10.8839C10.6495 11.1183 10.3315 11.25 10 11.25C9.66848 11.25 9.35054 11.1183 9.11612 10.8839C8.8817 10.6495 8.75 10.3315 8.75 10C8.75 9.66848 8.8817 9.35054 9.11612 9.11612C9.35054 8.8817 9.66848 8.75 10 8.75C10.3315 8.75 10.6495 8.8817 10.8839 9.11612C11.1183 9.35054 11.25 9.66848 11.25 10ZM16.25 10C16.25 10.3315 16.1183 10.6495 15.8839 10.8839C15.6495 11.1183 15.3315 11.25 15 11.25C14.6685 11.25 14.3505 11.1183 14.1161 10.8839C13.8817 10.6495 13.75 10.3315 13.75 10C13.75 9.66848 13.8817 9.35054 14.1161 9.11612C14.3505 8.8817 14.6685 8.75 15 8.75C15.3315 8.75 15.6495 8.8817 15.8839 9.11612C16.1183 9.35054 16.25 9.66848 16.25 10Z" fill="#262E42"/>
</svg>
