<svg width="22" height="24" viewBox="0 0 22 24" fill="none" xmlns="http://www.w3.org/2000/svg">
<path d="M11 24.0003C11.7956 24.0003 12.5587 23.6843 13.1213 23.1217C13.6839 22.559 14 21.796 14 21.0003H8C8 21.796 8.31607 22.559 8.87868 23.1217C9.44129 23.6843 10.2044 24.0003 11 24.0003ZM12.4925 1.64884C12.5134 1.44027 12.4904 1.22962 12.4249 1.0305C12.3595 0.831366 12.253 0.64817 12.1124 0.492723C11.9717 0.337275 11.8001 0.213028 11.6085 0.127993C11.4169 0.0429577 11.2096 -0.000976563 11 -0.000976562C10.7904 -0.000976563 10.5831 0.0429577 10.3915 0.127993C10.1999 0.213028 10.0283 0.337275 9.88763 0.492723C9.74701 0.64817 9.64052 0.831366 9.57505 1.0305C9.50958 1.22962 9.48656 1.44027 9.5075 1.64884C7.81208 1.99369 6.28793 2.91388 5.19315 4.25359C4.09836 5.5933 3.50022 7.2702 3.5 9.00034C3.5 10.6473 2.75 18.0003 0.5 19.5003H21.5C19.25 18.0003 18.5 10.6473 18.5 9.00034C18.5 5.37034 15.92 2.34034 12.4925 1.64884Z" fill="#353535"/>
</svg>
