<svg xmlns="http://www.w3.org/2000/svg" xmlns:xlink="http://www.w3.org/1999/xlink" viewBox="0 0 16 16">
  <defs>
    <clipPath id="clip-no-avatar">
      <rect width="16" height="16"/>
    </clipPath>
  </defs>
  <g id="no-avatar" clip-path="url(#clip-no-avatar)">
    <path id="fccd64d7547f815c4db5edd2d58b14f7" d="M15.208,5.842a.777.777,0,0,0-.777.777v4.846l-1.15-1.15a2.168,2.168,0,0,0-3.053,0l-.544.552L7.757,8.932a2.168,2.168,0,0,0-3.053,0l-1.15,1.158V5.731a.777.777,0,0,1,.777-.777h8.545a.777.777,0,1,0,0-1.554H4.331A2.331,2.331,0,0,0,2,5.731v9.494a2.168,2.168,0,0,0,2.16,2.16h9.665a2.237,2.237,0,0,0,.622-.093h0A2.129,2.129,0,0,0,16,15.232V6.619a.777.777,0,0,0-.792-.777ZM4.331,15.831a.777.777,0,0,1-.777-.777V12.28L5.8,10.035a.606.606,0,0,1,.855,0l5.8,5.8Zm10.1-.777a.777.777,0,0,1-.14.42l-3.512-3.527.552-.544a.6.6,0,0,1,.855,0l2.245,2.261Z" transform="translate(-1 -2.4)"/>
  </g>
</svg>
