<svg width="121" height="121" viewBox="0 0 121 121" fill="none" xmlns="http://www.w3.org/2000/svg">
<path fill-rule="evenodd" clip-rule="evenodd" d="M85.0133 10.5L87.4438 25.4304L101.333 25.4304V106.5C101.333 108.709 99.5425 110.5 97.3333 110.5H22C19.7909 110.5 18 108.709 18 106.5V14.5C18 12.2909 19.7909 10.5 22 10.5H85.0133Z" fill="#E3E5EC"/>
<rect x="29.8047" y="28.5557" width="47.2222" height="2.77778" rx="1.38889" fill="#B5BAC7"/>
<rect x="29.8047" y="39.667" width="61.1111" height="2.77778" rx="1.38889" fill="#B5BAC7"/>
<rect x="29.8047" y="50.7773" width="39.5833" height="2.77778" rx="1.38889" fill="#B5BAC7"/>
<rect x="29.8047" y="73" width="49.3056" height="2.77778" rx="1.38889" fill="#B5BAC7"/>
<rect x="29.8047" y="61.8887" width="56.9444" height="2.77778" rx="1.38889" fill="#B5BAC7"/>
<rect x="29.8047" y="84.1113" width="61.1111" height="2.77778" rx="1.38889" fill="#B5BAC7"/>
<rect x="29.8047" y="95.2227" width="61.1111" height="2.77778" rx="1.38889" fill="#B5BAC7"/>
<path d="M85.1665 25.8156L85.0132 10.4995L101.332 25.4301L85.1665 25.8156Z" fill="#B5BAC7"/>
</svg>
