<svg width="121" height="121" viewBox="0 0 121 121" fill="none" xmlns="http://www.w3.org/2000/svg">
<g clip-path="url(#clip0_7164_17954)">
<path fill-rule="evenodd" clip-rule="evenodd" d="M95.2895 65.9652C100.336 62.3961 103.638 56.4651 103.638 49.7519C103.638 38.8432 94.9192 30 84.1642 30C73.4091 30 64.6905 38.8432 64.6905 49.7519C64.6905 56.5292 68.0558 62.5093 73.184 66.0668C58.7112 69.7216 48 82.8279 48 98.4359V104H120.887V98.4359C120.887 82.6795 109.971 69.4726 95.2895 65.9652Z" fill="#B5BAC7"/>
<path fill-rule="evenodd" clip-rule="evenodd" d="M48.2895 67.9652C53.3359 64.3961 56.6378 58.4651 56.6378 51.7519C56.6378 40.8432 47.9192 32 37.1642 32C26.4091 32 17.6905 40.8432 17.6905 51.7519C17.6905 58.5292 21.0558 64.5093 26.184 68.0668C11.7112 71.7216 1 84.8279 1 100.436V106H73.8872V100.436C73.8872 84.6795 62.9713 71.4726 48.2895 67.9652Z" fill="#B5BAC7"/>
<path fill-rule="evenodd" clip-rule="evenodd" d="M69.8042 72.6383C75.2257 68.8039 78.7731 62.4321 78.7731 55.2199C78.7731 43.5005 69.4064 34 57.852 34C46.2977 34 36.931 43.5005 36.931 55.2199C36.931 62.501 40.5464 68.9256 46.0558 72.7475C30.5074 76.6739 19 90.7543 19 107.522V113.5H97.3045V107.522C97.3045 90.5949 85.5773 76.4064 69.8042 72.6383Z" fill="#E3E5EC"/>
</g>
<defs>
<clipPath id="clip0_7164_17954">
<rect width="120" height="120" fill="white" transform="translate(0.5 0.5)"/>
</clipPath>
</defs>
</svg>
