<svg width="20" height="20" viewBox="0 0 20 20" fill="none" xmlns="http://www.w3.org/2000/svg">
<path fill-rule="evenodd" clip-rule="evenodd" d="M5.80752 2.05752C5.86558 1.99931 5.93454 1.95314 6.01048 1.92163C6.08641 1.89012 6.16781 1.8739 6.25002 1.8739C6.33223 1.8739 6.41363 1.89012 6.48956 1.92163C6.56549 1.95314 6.63446 1.99931 6.69252 2.05752L14.1925 9.55752C14.2507 9.61558 14.2969 9.68455 14.3284 9.76048C14.3599 9.83641 14.3761 9.91781 14.3761 10C14.3761 10.0822 14.3599 10.1636 14.3284 10.2396C14.2969 10.3155 14.2507 10.3845 14.1925 10.4425L6.69252 17.9425C6.57516 18.0599 6.41599 18.1258 6.25002 18.1258C6.08405 18.1258 5.92488 18.0599 5.80752 17.9425C5.69016 17.8252 5.62423 17.666 5.62423 17.5C5.62423 17.334 5.69016 17.1749 5.80752 17.0575L12.8663 10L5.80752 2.94252C5.74931 2.88446 5.70314 2.81549 5.67163 2.73956C5.64012 2.66363 5.6239 2.58223 5.6239 2.50002C5.6239 2.41781 5.64012 2.33641 5.67163 2.26048C5.70314 2.18455 5.74931 2.11558 5.80752 2.05752Z" fill="#69738C"/>
</svg>
