<svg width="20" height="20" viewBox="0 0 20 20" fill="none" xmlns="http://www.w3.org/2000/svg">
<path fill-rule="evenodd" clip-rule="evenodd" d="M14.1925 2.05752C14.2507 2.11558 14.2969 2.18455 14.3284 2.26048C14.3599 2.33641 14.3761 2.41781 14.3761 2.50002C14.3761 2.58223 14.3599 2.66363 14.3284 2.73956C14.2969 2.81549 14.2507 2.88446 14.1925 2.94252L7.13377 10L14.1925 17.0575C14.3099 17.1749 14.3758 17.334 14.3758 17.5C14.3758 17.666 14.3099 17.8252 14.1925 17.9425C14.0752 18.0599 13.916 18.1258 13.75 18.1258C13.584 18.1258 13.4249 18.0599 13.3075 17.9425L5.80752 10.4425C5.74931 10.3845 5.70314 10.3155 5.67163 10.2396C5.64012 10.1636 5.6239 10.0822 5.6239 10C5.6239 9.91781 5.64012 9.83641 5.67163 9.76048C5.70314 9.68455 5.74931 9.61558 5.80752 9.55752L13.3075 2.05752C13.3656 1.99931 13.4345 1.95314 13.5105 1.92163C13.5864 1.89012 13.6678 1.8739 13.75 1.8739C13.8322 1.8739 13.9136 1.89012 13.9896 1.92163C14.0655 1.95314 14.1345 1.99931 14.1925 2.05752V2.05752Z" fill="#E3E5EC"/>
</svg>
