<svg width="20" height="20" viewBox="0 0 20 20" fill="none" xmlns="http://www.w3.org/2000/svg">
<path fill-rule="evenodd" clip-rule="evenodd" d="M14.1169 1.61623C14.3513 1.38189 14.6692 1.25024 15.0006 1.25024C15.3321 1.25024 15.6499 1.38189 15.8844 1.61623L18.3844 4.11623C18.6187 4.35064 18.7503 4.66852 18.7503 4.99998C18.7503 5.33143 18.6187 5.64932 18.3844 5.88373L7.13436 17.1337C6.99751 17.271 6.83061 17.3746 6.64686 17.4362L2.89686 18.6862C2.67654 18.76 2.44003 18.7709 2.21386 18.7177C1.98769 18.6645 1.78082 18.5494 1.61647 18.3851C1.45211 18.2209 1.33678 18.0141 1.28342 17.788C1.23005 17.5619 1.24077 17.3254 1.31436 17.105L2.56436 13.355C2.62586 13.1708 2.72943 13.0034 2.86686 12.8662L14.1169 1.61623ZM15.0006 2.49998L17.5006 4.99998L6.25061 16.25L2.50061 17.5L3.75061 13.75L15.0006 2.49998Z" fill="#69738C"/>
<path fill-rule="evenodd" clip-rule="evenodd" d="M15.1825 7.9425L12.0575 4.8175L12.9425 3.9325L16.0675 7.0575L15.1838 7.9425H15.1825ZM3.75 12.5V13.125C3.75 13.2908 3.81585 13.4497 3.93306 13.5669C4.05027 13.6841 4.20924 13.75 4.375 13.75H5V14.375C5 14.5408 5.06585 14.6997 5.18306 14.8169C5.30027 14.9341 5.45924 15 5.625 15H6.25V15.625C6.25 15.7908 6.31585 15.9497 6.43306 16.0669C6.55027 16.1841 6.70924 16.25 6.875 16.25H7.5V14.375C7.5 14.2092 7.43415 14.0503 7.31694 13.9331C7.19973 13.8158 7.04076 13.75 6.875 13.75H6.25V13.125C6.25 12.9592 6.18415 12.8003 6.06694 12.6831C5.94973 12.5658 5.79076 12.5 5.625 12.5H3.75Z" fill="#69738C"/>
</svg>
