<svg xmlns="http://www.w3.org/2000/svg" xmlns:xlink="http://www.w3.org/1999/xlink" viewBox="0 0 16 16">
  <defs>
    <clipPath id="clip-personalities">
      <rect width="16" height="16"/>
    </clipPath>
  </defs>
  <g id="personalities" clip-path="url(#clip-personalities)">
    <path id="Union_28" data-name="Union 28" d="M7.309,10.3V1.888a1.889,1.889,0,0,1,3.657-.664l.1,0a2.058,2.058,0,0,1,1.987,2.546,1.866,1.866,0,0,1,.158,3.144,1.641,1.641,0,0,1-1.137,2.216,1.646,1.646,0,0,1,.015.215A1.556,1.556,0,0,1,10.537,10.9a1.6,1.6,0,0,1-.269-.023A1.535,1.535,0,0,1,7.309,10.3Zm.6,0a.933.933,0,0,0,1.846.192,1.478,1.478,0,0,0-.712-1.009.3.3,0,1,1,.3-.522,2.076,2.076,0,0,1,.981,1.306.916.916,0,0,0,.217.029.955.955,0,0,0,.954-.955.866.866,0,0,0-.029-.212,1.4,1.4,0,0,1-1.1-.99.294.294,0,0,1-.007-.063V7.4A.652.652,0,0,0,9.7,6.749a.3.3,0,0,1-.3-.3V4.482a1.16,1.16,0,0,1-.858-1.118V.779a1.289,1.289,0,0,0-.636,1.109V5.649a1.543,1.543,0,0,1,1.236,1.5V8.327a.3.3,0,0,1-.6,0V7.154a.939.939,0,0,0-.636-.886ZM10,6.186A1.249,1.249,0,0,1,10.954,7.4v.641c.111.407.666.513.761.529a1.041,1.041,0,0,0,1.02-1.039,1.019,1.019,0,0,0-.081-.4,1.792,1.792,0,0,1-.183.01,1.045,1.045,0,0,1-1.055-.653.3.3,0,0,1,.18-.384.306.306,0,0,1,.1-.018.3.3,0,0,1,.282.2c.062.171.222.257.476.257a1.329,1.329,0,0,0,.254-.027,1.265,1.265,0,0,0-.1-2.3H12.6a.988.988,0,0,0-.747.487.3.3,0,0,1-.24.119.3.3,0,0,1-.3-.258.3.3,0,0,1,.058-.222,1.643,1.643,0,0,1,1.1-.717,1.456,1.456,0,0,0-1.454-1.8A2.14,2.14,0,0,1,10,3.156a.3.3,0,0,1-.162.048.3.3,0,0,1-.293-.364.3.3,0,0,1,.131-.189,1.443,1.443,0,0,0,.77-1.066A1.293,1.293,0,0,0,9.2.6H9.145V3.363a.559.559,0,0,0,.558.558h.761a.3.3,0,0,1,0,.6H10ZM3.732,10.875a1.6,1.6,0,0,1-.269.023,1.554,1.554,0,0,1-1.54-1.77A1.641,1.641,0,0,1,.786,6.912,1.866,1.866,0,0,1,.944,3.767a2.058,2.058,0,0,1,1.99-2.546l.1,0a1.89,1.89,0,0,1,3.658.664V10.3a1.535,1.535,0,0,1-2.959.573Zm1.338-1.8A.3.3,0,0,1,5.1,9.3a.3.3,0,0,1-.141.181,1.491,1.491,0,0,0-.713,1.009A.933.933,0,0,0,6.091,10.3V6.268a.939.939,0,0,0-.636.886V8.53a.044.044,0,0,1,0,.009.041.041,0,0,1,0,.009.3.3,0,0,1-.3.3H3.748a.3.3,0,0,1-.3-.3V8.084a.618.618,0,0,1,.3-1.158.593.593,0,0,1,.091.006.618.618,0,0,1-.249-.244H2.484a1.1,1.1,0,0,1-.955.455,1.774,1.774,0,0,1-.183-.01,1.019,1.019,0,0,0-.081.4A1.039,1.039,0,0,0,2.3,8.572H2.75l-.171.414a.927.927,0,0,0-.07.357.956.956,0,0,0,.955.955.916.916,0,0,0,.217-.029,2.077,2.077,0,0,1,.98-1.306.3.3,0,0,1,.148-.04A.3.3,0,0,1,5.07,9.075Zm-.7-1.531a.616.616,0,0,1-.318.539v.164h.806V7.154a1.543,1.543,0,0,1,1.236-1.5V5.168H5.028a.652.652,0,1,1,.058-.6H6.091V2.415l-.346.47A.652.652,0,1,1,5.207,2.6l.819-1.115a1.287,1.287,0,0,0-2.476.1,1.443,1.443,0,0,0,.77,1.066.3.3,0,0,1-.162.553A.3.3,0,0,1,4,3.156,2.139,2.139,0,0,1,2.982,1.824a1.453,1.453,0,0,0-1.5,1.454,1.43,1.43,0,0,0,.042.347H2.767a.652.652,0,1,1,0,.6H1.374A1.264,1.264,0,0,0,1.29,6.517a1.261,1.261,0,0,0,.254.027c.254,0,.414-.087.475-.258l.005-.013,0-.005a.308.308,0,0,1,.258-.178h1.3A.617.617,0,1,1,4.129,7,.593.593,0,0,1,4.038,7,.62.62,0,0,1,4.366,7.544Z" transform="translate(1 2)"/>
  </g>
</svg>
