<svg xmlns="http://www.w3.org/2000/svg" viewBox="0 0 18.02 18">
  <path id="fccd64d7547f815c4db5edd2d58b14f7" d="M19,8a1,1,0,0,0-1,1v5.38L16.52,12.9a2.79,2.79,0,0,0-3.93,0l-.7.71L9.41,11.12a2.79,2.79,0,0,0-3.93,0L4,12.61V7A1,1,0,0,1,5,6H16a1,1,0,0,0,0-2H5A3,3,0,0,0,2,7V19.22A2.79,2.79,0,0,0,4.78,22H17.22a2.88,2.88,0,0,0,.8-.12h0a2.74,2.74,0,0,0,2-2.65V9A1,1,0,0,0,19,8ZM5,20a1,1,0,0,1-1-1V15.43l2.89-2.89a.78.78,0,0,1,1.1,0L15.46,20Zm13-1a1,1,0,0,1-.18.54L13.3,15l.71-.7a.77.77,0,0,1,1.1,0L18,17.21Z" transform="translate(-2 -4)" fill="#4bb486"/>
</svg>
