<svg xmlns="http://www.w3.org/2000/svg" xmlns:xlink="http://www.w3.org/1999/xlink" viewBox="0 0 16 16">
  <defs>
    <clipPath id="clip-pivot">
      <rect width="16" height="16"/>
    </clipPath>
  </defs>
  <g id="pivot" clip-path="url(#clip-pivot)">
    <g id="Remove_Folder" data-name="Remove Folder" transform="translate(1.25 1.25)">
      <g id="_Group_" data-name="&lt;Group&gt;" transform="translate(7.179 7.036)">
        <g id="_Group_2" data-name="&lt;Group&gt;">
          <g id="_Group_3" data-name="&lt;Group&gt;">
            <path id="_Path_" data-name="&lt;Path&gt;" d="M2.536-.75A3.286,3.286,0,1,1-.75,2.536,3.289,3.289,0,0,1,2.536-.75Zm0,5.714A2.429,2.429,0,1,0,.107,2.536,2.431,2.431,0,0,0,2.536,4.964Z" transform="translate(0.75 0.75)"/>
          </g>
          <path id="_Path_2" data-name="&lt;Path&gt;" d="M1.964.107H-.321A.429.429,0,0,1-.75-.321.429.429,0,0,1-.321-.75H1.964a.429.429,0,0,1,.429.429A.429.429,0,0,1,1.964.107Z" transform="translate(2.464 3.607)"/>
        </g>
      </g>
      <path id="Path_2127" data-name="Path 2127" d="M7.664,11.321H1.036A1.287,1.287,0,0,1-.25,10.036v-8A1.287,1.287,0,0,1,1.036.75H4.75a.429.429,0,0,1,.3.126L6.07,1.893h5.251a1.287,1.287,0,0,1,1.286,1.286V8.047a.429.429,0,1,1-.857,0V3.179a.429.429,0,0,0-.429-.429H5.893a.429.429,0,0,1-.3-.126L4.572,1.607H1.036a.429.429,0,0,0-.429.429v8a.429.429,0,0,0,.429.429H7.664a.429.429,0,1,1,0,.857Z"/>
    </g>
  </g>
</svg>
