<svg xmlns="http://www.w3.org/2000/svg" xmlns:xlink="http://www.w3.org/1999/xlink" viewBox="0 0 16 16">
  <defs>
    <clipPath id="clip-plus">
      <rect width="16" height="16"/>
    </clipPath>
  </defs>
  <g id="plus" clip-path="url(#clip-plus)">
    <path id="Union_15" data-name="Union 15" d="M-449.851-308.851v-5.3h-5.3A.852.852,0,0,1-456-315a.853.853,0,0,1,.851-.851h5.3v-5.3A.852.852,0,0,1-449-322a.853.853,0,0,1,.851.851v5.3h5.3A.853.853,0,0,1-442-315a.852.852,0,0,1-.851.85h-5.3v5.3A.853.853,0,0,1-449-308,.852.852,0,0,1-449.851-308.851Z" transform="translate(457 323)"/>
  </g>
</svg>
