<svg xmlns="http://www.w3.org/2000/svg" xmlns:xlink="http://www.w3.org/1999/xlink" viewBox="0 0 16 16">
  <defs>
    <clipPath id="clip-private">
      <rect width="16" height="16"/>
    </clipPath>
  </defs>
  <g id="private" clip-path="url(#clip-private)">
    <path id="Union_21" data-name="Union 21" d="M56.089-731.617l-3.935-3.935a2.446,2.446,0,0,1-2.888-.425,2.448,2.448,0,0,1-.425-2.889L44.9-742.8a.7.7,0,0,1,0-.992.7.7,0,0,1,.992,0l11.184,11.184a.7.7,0,0,1,.207.5.7.7,0,0,1-.207.5.7.7,0,0,1-.5.206A.7.7,0,0,1,56.089-731.617Zm-6.144-6.089a1.049,1.049,0,0,0,1.048,1.049l.042-.008-1.09-1.09Zm1.062,4.893c-4.118,0-6.473-3.781-6.913-4.544a.7.7,0,0,1,0-.7,11.111,11.111,0,0,1,2.006-2.538l1.02.986a9.6,9.6,0,0,0-1.566,1.9c.616.986,2.586,3.565,5.593,3.5a5.388,5.388,0,0,0,1.187-.175l1.1,1.1a6.614,6.614,0,0,1-2.257.468Zm3.823-2.992a9.555,9.555,0,0,0,1.6-1.9c-.622-.986-2.594-3.572-5.593-3.494a5.388,5.388,0,0,0-1.187.175l-1.105-1.1A6.653,6.653,0,0,1,50.8-742.6c4.173-.125,6.64,3.768,7.088,4.544a.7.7,0,0,1,.028.7,11.083,11.083,0,0,1-2.034,2.538Z" transform="translate(-43 746)"/>
  </g>
</svg>
