<svg xmlns="http://www.w3.org/2000/svg" xmlns:xlink="http://www.w3.org/1999/xlink" viewBox="0 0 16 16">
  <defs>
    <clipPath id="clip-profile">
      <rect width="16" height="16"/>
    </clipPath>
  </defs>
  <g id="profile" clip-path="url(#clip-profile)">
    <g id="fb7161475b9f59ae040223bf9f88f3f5">
      <path id="Path_94" data-name="Path 94" d="M12.608,1H3.392A2.394,2.394,0,0,0,1,3.392v9.217A2.394,2.394,0,0,0,3.392,15h9.217A2.394,2.394,0,0,0,15,12.608V3.392A2.394,2.394,0,0,0,12.608,1Zm1.458,11.608a1.46,1.46,0,0,1-1.458,1.458H3.392a1.46,1.46,0,0,1-1.458-1.458V3.392A1.46,1.46,0,0,1,3.392,1.933h9.217a1.46,1.46,0,0,1,1.458,1.458Z"/>
      <path id="Path_95" data-name="Path 95" d="M11.386,9.282A2.612,2.612,0,1,0,8.774,6.67,2.615,2.615,0,0,0,11.386,9.282Zm0-4.29A1.678,1.678,0,1,1,9.708,6.67,1.68,1.68,0,0,1,11.386,4.991Zm0,4.7a4.042,4.042,0,0,0-4.037,4.037v.21a1.187,1.187,0,0,0,1.186,1.186h5.7a1.187,1.187,0,0,0,1.186-1.186v-.21A4.042,4.042,0,0,0,11.386,9.691Zm3.1,4.247a.253.253,0,0,1-.252.253h-5.7a.253.253,0,0,1-.252-.253v-.21a3.1,3.1,0,0,1,6.208,0Z" transform="translate(-3.386 -1.631)"/>
    </g>
  </g>
</svg>
