<svg xmlns="http://www.w3.org/2000/svg" xmlns:xlink="http://www.w3.org/1999/xlink" viewBox="0 0 16 16">
  <defs>
    <clipPath id="clip-program">
      <rect width="16" height="16"/>
    </clipPath>
  </defs>
  <g id="program" clip-path="url(#clip-program)">
    <g id="_41fed6d25ef306380469a5c0abce90c5" data-name="41fed6d25ef306380469a5c0abce90c5" transform="translate(1 3)">
      <g id="Group_4583" data-name="Group 4583" transform="translate(0 0)">
        <g id="Group_4582" data-name="Group 4582">
          <path id="Path_2241" data-name="Path 2241" d="M57.849,193.118l.091-.049c.035-.019.1-.038-.043.016a.382.382,0,0,1,.064-.016l-.127.017a.7.7,0,0,0,.344-.086c.042-.029.084-.057.127-.085.1-.062.193-.119.291-.175.2-.112.4-.212.608-.307.1-.047.205-.093.308-.137.034-.015.215-.091.069-.03l.185-.077c.222-.091.445-.18.668-.27a26.66,26.66,0,0,0,2.811-1.342c.392-.214.782-.434,1.177-.644h-.484c.346.173.691.351,1.047.505q.258.112.521.211c.079.03.159.058.237.089l.061.025c-.147-.061-.062-.026-.03-.012l.154.07c.809.378,1.557.871,2.367,1.247.352.164.71.316,1.053.5a5.277,5.277,0,0,1,.519.316l.112.081c.024.018.1.08-.007-.007l.068.054c.094.076.184.155.271.238v-.678c.123-.1-.031.021-.061.043-.046.032-.092.063-.139.093-.1.065-.206.124-.312.18s-.2.1-.3.144l-.076.033c-.094.041.107-.044.012-.005-.06.025-.12.048-.18.071-.431.166-.875.3-1.312.449q-.369.129-.727.286c-.037.016-.216.1-.053.028l-.118.048c-.09.036-.181.071-.271.1-.386.145-.776.279-1.16.428a4.989,4.989,0,0,0-1.879,1.075l.581-.075c-.93-.466-1.83-.994-2.787-1.4-.267-.115-.537-.224-.812-.318-.055-.019-.111-.036-.166-.056l-.068-.026-.035-.014c-.063-.026.139.06.054.023-.256-.111-.5-.245-.748-.375-.6-.315-1.2-.624-1.806-.91a.489.489,0,0,0-.656.172.481.481,0,0,0,.172.656c.751.351,1.477.748,2.216,1.123a4.535,4.535,0,0,0,.723.311c.118.036.235.082.351.125l.174.068.087.035.058.024-.028-.012c.241.1.479.215.715.33.7.342,1.376.726,2.072,1.075a.487.487,0,0,0,.581-.075,2.063,2.063,0,0,1,.172-.163l.048-.039c.067-.053-.1.075-.031.024.04-.03.082-.059.123-.087a4.416,4.416,0,0,1,.5-.285c.088-.044.177-.085.266-.125l.138-.06c-.158.067.033-.013.072-.029.2-.08.395-.154.593-.227.368-.135.739-.262,1.1-.412.127-.052.25-.111.376-.165-.15.064.027-.01.063-.024l.179-.068c.216-.08.435-.152.654-.224.409-.134.814-.274,1.211-.442a4.84,4.84,0,0,0,1.105-.654.478.478,0,0,0,0-.678,5.525,5.525,0,0,0-1.2-.855c-.385-.2-.788-.368-1.18-.556-.8-.382-1.538-.878-2.349-1.236-.194-.085-.391-.157-.589-.233q-.1-.039-.2-.08l-.016-.007.066.028-.048-.021-.113-.05c-.157-.071-.312-.146-.466-.223l-.294-.146-.173-.086a.5.5,0,0,0-.369-.048.972.972,0,0,0-.193.09c-.923.5-1.831,1.015-2.78,1.462-.135.063-.271.124-.408.183-.029.013-.157.066-.016.007l-.105.044-.239.1c-.3.123-.606.243-.907.368a9.092,9.092,0,0,0-1.732.878l.242-.065a.9.9,0,0,0-.292.045,2.31,2.31,0,0,0-.258.123.482.482,0,0,0-.172.656.487.487,0,0,0,.656.172Z" transform="translate(-57.13 -189.042)" fill="#383838"/>
        </g>
      </g>
      <g id="Group_4585" data-name="Group 4585" transform="translate(0.409 3.091)">
        <g id="Group_4584" data-name="Group 4584" transform="translate(0 0)">
          <path id="Path_2242" data-name="Path 2242" d="M81.487,370.7a47.675,47.675,0,0,1,6.059.1.479.479,0,0,0,0-.958,47.674,47.674,0,0,0-6.059-.1.523.523,0,0,0-.339.14.479.479,0,0,0,0,.678.457.457,0,0,0,.339.14Z" transform="translate(-81.008 -369.647)" fill="#383838"/>
        </g>
      </g>
      <g id="Group_4587" data-name="Group 4587" transform="translate(0.075 5.443)">
        <g id="Group_4586" data-name="Group 4586" transform="translate(0)">
          <path id="Path_2243" data-name="Path 2243" d="M61.528,507.4a5.638,5.638,0,0,0-.027,1.138,4.44,4.44,0,0,1,.035.763l.017-.127c0,.012,0,.024-.006.035l0,.014a.4.4,0,0,1,.109-.187.487.487,0,0,0,0,.678.481.481,0,0,0,.678,0,1.283,1.283,0,0,0,.144-.986,5.94,5.94,0,0,1-.007-1.178l-.017.127,0-.024a.526.526,0,0,0-.048-.369.479.479,0,0,0-.656-.172.457.457,0,0,0-.22.286Z" transform="translate(-61.484 -507.047)" fill="#383838"/>
        </g>
      </g>
      <g id="Group_4589" data-name="Group 4589" transform="translate(2.246 4.723)">
        <g id="Group_4588" data-name="Group 4588" transform="translate(0 0)">
          <path id="Path_2244" data-name="Path 2244" d="M188.471,465.344a3.1,3.1,0,0,0-.131,1.1c0,.407.039.813.071,1.219.014.182.028.363.037.545q.005.111.006.222a.66.66,0,0,0,.281.492,3.7,3.7,0,0,0,1.2.678,6.585,6.585,0,0,0,2.441.348c.805-.02,1.611-.071,2.413-.146a6.836,6.836,0,0,0,1.173-.187,4.294,4.294,0,0,0,1.349-.633c.132-.093.259-.194.383-.3.189-.161.133-.448.132-.668,0-.266.016-.531.037-.8a13.925,13.925,0,0,0,.079-1.554c0-.031,0-.063,0-.094a.479.479,0,0,0-.958,0c.049.927-.149,1.846-.1,2.773l.14-.339q-.064.055-.13.107c.108-.086-.034.024-.059.042-.084.06-.17.116-.258.17s-.169.1-.256.141c-.042.021-.084.041-.127.061l-.05.022c-.093.041.107-.044.014-.006a4.609,4.609,0,0,1-.976.265l.127-.017c-.684.085-1.374.129-2.062.165a10.856,10.856,0,0,1-2.015-.015l.127.017a5.559,5.559,0,0,1-1.256-.316l-.069-.028c.142.058.054.023.023.009s-.089-.041-.133-.062c-.093-.045-.183-.1-.272-.149-.04-.024-.078-.05-.116-.076l-.056-.04c-.1-.071.071.057.008.006a2.011,2.011,0,0,1-.208-.194l.14.339a20.285,20.285,0,0,1-.085-2.616l-.017.127a1.655,1.655,0,0,1,.085-.363.481.481,0,0,0-.335-.59.489.489,0,0,0-.59.335Z" transform="translate(-188.34 -464.991)" fill="#383838"/>
        </g>
      </g>
    </g>
  </g>
</svg>
