<svg xmlns="http://www.w3.org/2000/svg" xmlns:xlink="http://www.w3.org/1999/xlink" viewBox="0 0 16 16">
  <defs>
    <clipPath id="clip-program-designer">
      <rect width="16" height="16"/>
    </clipPath>
  </defs>
  <g id="program-designer" clip-path="url(#clip-program-designer)">
    <g id="_75acfa607b4e7d2b9e1ac74fd7a6a344" data-name="75acfa607b4e7d2b9e1ac74fd7a6a344" transform="translate(1 1)">
      <path id="Path_2280" data-name="Path 2280" d="M1.437,10.646A.438.438,0,0,1,1,10.208V1.6A1.606,1.606,0,0,1,2.6,0H9.313a.438.438,0,0,1,0,.875H2.6a.73.73,0,0,0-.729.729v8.6A.438.438,0,0,1,1.437,10.646Z" transform="translate(0 0)"/>
      <path id="Path_2281" data-name="Path 2281" d="M4.792,16.25H2.458a1.458,1.458,0,1,1,0-2.917h8.167v-1.9a.438.438,0,0,1,.875,0v2.333a.438.438,0,0,1-.437.438h-8.6a.583.583,0,1,0,0,1.167H4.792a.438.438,0,0,1,0,.875Z" transform="translate(0 -4.583)"/>
      <path id="Path_2282" data-name="Path 2282" d="M10.063,14a.438.438,0,0,1-.291-.11L8.75,12.981l-1.022.908A.437.437,0,0,1,7,13.563V9.334a.438.438,0,0,1,.875,0v3.255l.584-.52a.437.437,0,0,1,.581,0l.585.52V9.334a.438.438,0,0,1,.875,0v4.229a.438.438,0,0,1-.258.4A.433.433,0,0,1,10.063,14ZM9.479,7.292a.438.438,0,0,1-.429-.523l.391-1.955a.436.436,0,0,1,.12-.223l4.3-4.3a.992.992,0,0,1,1.4,0l.782.782a.991.991,0,0,1,0,1.4l-4.3,4.3a.434.434,0,0,1-.223.12l-1.955.391A.474.474,0,0,1,9.479,7.292Zm1.955-.828h0ZM10.273,5.116,10.037,6.3l1.181-.236,4.207-4.206a.131.131,0,0,0,0-.163L14.642.909a.116.116,0,0,0-.163,0Z" transform="translate(-2.5 -0.001)"/>
      <path id="Path_2283" data-name="Path 2283" d="M15.542,17.917H12.188a.438.438,0,0,1,0-.875H15.1v-1.6a.437.437,0,0,1,.875,0v2.042A.438.438,0,0,1,15.542,17.917Z" transform="translate(-4.479 -6.25)"/>
    </g>
  </g>
</svg>
