<svg xmlns="http://www.w3.org/2000/svg" xmlns:xlink="http://www.w3.org/1999/xlink" viewBox="0 0 16 16">
  <defs>
    <clipPath id="clip-publish">
      <rect width="16" height="16"/>
    </clipPath>
  </defs>
  <g id="publish" clip-path="url(#clip-publish)">
    <path id="a93519b1973e5f28307eaa01fe696eb6" d="M128,140.5v-9a1.5,1.5,0,0,1,1.5-1.5h11a1.5,1.5,0,0,1,1.5,1.5v9a1.5,1.5,0,0,1-1.5,1.5h-11a1.5,1.5,0,0,1-1.5-1.5Zm13-6.5H129v6.5a.5.5,0,0,0,.5.5h11a.5.5,0,0,0,.5-.5Zm-6.5,3.206-.207.207a.5.5,0,1,1-.707-.707l1.061-1.06a.5.5,0,0,1,.707,0l1.06,1.06a.5.5,0,1,1-.707.707l-.207-.207V139a.5.5,0,0,1-1,0ZM141,133v-1.5a.5.5,0,0,0-.5-.5h-11a.5.5,0,0,0-.5.5V133Zm-3-1.5a.5.5,0,1,0,.5.5A.5.5,0,0,0,138,131.5Zm1.5,1h.5a.5.5,0,1,0,0-1h-.5a.5.5,0,1,0,0,1Z" transform="translate(-127 -128)" fill-rule="evenodd"/>
  </g>
</svg>
