<svg xmlns="http://www.w3.org/2000/svg" xmlns:xlink="http://www.w3.org/1999/xlink" viewBox="0 0 16 16">
  <defs>
    <clipPath id="clip-public-share">
      <rect width="16" height="16"/>
    </clipPath>
  </defs>
  <g id="public-share" clip-path="url(#clip-public-share)">
    <path id="_1b1eac07b1ecbb88c2b7f39013a906b0" data-name="1b1eac07b1ecbb88c2b7f39013a906b0" d="M15.682,7.65,13.24,5.15a1,1,0,0,0-1.14-.223,1.124,1.124,0,0,0-.639,1.03v.568c-3.568.148-5.752,1.892-6.328,5.064a1.149,1.149,0,0,0,.5,1.179,1,1,0,0,0,1.21-.11,6.719,6.719,0,0,1,4.619-1.576v.549a1.124,1.124,0,0,0,.639,1.03,1,1,0,0,0,1.139-.223l2.443-2.5a1.662,1.662,0,0,0,0-2.291Zm-.7,1.513-2.443,2.5-.067-.031V10.538A.523.523,0,0,0,11.968,10c-2.582,0-4.364.567-5.776,1.838l.326.411L6.126,11.8c.505-2.789,2.472-4.2,5.842-4.2a.523.523,0,0,0,.505-.538v-1.1l.069-.031,2.443,2.5a.534.534,0,0,1,0,.736Zm.288,3.955v1.728A2.09,2.09,0,0,1,13.251,17H4.16a2.09,2.09,0,0,1-2.02-2.154V5.154A2.09,2.09,0,0,1,4.16,3h7.161a.54.54,0,0,1,0,1.077H4.16A1.045,1.045,0,0,0,3.15,5.154v9.692a1.045,1.045,0,0,0,1.01,1.077h9.091a1.045,1.045,0,0,0,1.01-1.077V13.118a.506.506,0,1,1,1.01,0Z" transform="translate(-1.14 -2)"/>
  </g>
</svg>
