<svg width="120" height="120" viewBox="0 0 120 120" fill="none" xmlns="http://www.w3.org/2000/svg">
<ellipse cx="37.7378" cy="73.5803" rx="35.7378" ry="27.5803" fill="#B5BAC7"/>
<path d="M15.0829 109.594L17.6305 91.2227L30.9774 100.033L15.0829 109.594Z" fill="#B5BAC7"/>
<path d="M37.9641 80.032C35.0361 80.032 33.1401 77.368 33.1401 73.096C33.1401 68.944 35.0361 66.424 37.9641 66.424C40.8921 66.424 42.8121 68.944 42.8121 73.096C42.8121 77.368 40.8921 80.032 37.9641 80.032ZM43.5081 86.584C44.6601 86.584 45.6441 86.392 46.2201 86.128L45.6921 84.04C45.2121 84.184 44.5881 84.304 43.8201 84.304C42.0441 84.304 40.4121 83.632 39.6201 82.144C43.2441 81.376 45.6681 78.064 45.6681 73.096C45.6681 67.408 42.5001 64 37.9641 64C33.4281 64 30.2841 67.408 30.2841 73.096C30.2841 78.208 32.8281 81.568 36.6441 82.216C37.7241 84.736 40.0761 86.584 43.5081 86.584Z" fill="#E3E5EC"/>
<ellipse cx="37.84" cy="29.2026" rx="37.84" ry="29.2026" transform="matrix(-1 0 0 1 119.68 8)" fill="#E3E5EC"/>
<path d="M105.818 75.3347L103.12 55.8829L88.9881 65.2115L105.818 75.3347Z" fill="#E3E5EC"/>
<path d="M80.2472 35.4C80.8232 33.48 81.3752 31.536 81.8792 29.52H81.9992C82.5272 31.512 83.0552 33.48 83.6552 35.4L84.3512 37.776H79.5272L80.2472 35.4ZM74.5352 45H77.3672L78.8792 39.96H85.0232L86.5112 45H89.4632L83.6072 27.312H80.3912L74.5352 45Z" fill="#B5BAC7"/>
</svg>
