<svg xmlns="http://www.w3.org/2000/svg" width="56" height="61.712" viewBox="0 0 56 61.712">
  <g id="remove-file" transform="translate(266.499 -153.477)">
    <path id="doc" d="M37.525,57.855c-.069-.067-.138-.135-.205-.2a10.647,10.647,0,0,1,0-14.8A10.381,10.381,0,0,1,55,50a9.957,9.957,0,0,1-1.183,4.722,10.629,10.629,0,0,1-2.01,2.928,10.1,10.1,0,0,1-14.282.2ZM6.655,60.683A6.715,6.715,0,0,1,0,53.909V6.8A6.714,6.714,0,0,1,6.629,0H34.3a11.78,11.78,0,0,1,8.345,3.5,12.3,12.3,0,0,1,3.43,8.527c0,1.571-1.485,1.571-2.355,1.571h-4.3a6.715,6.715,0,0,1-6.656-6.776V3.14H6.655A3.6,3.6,0,0,0,3.072,6.757c0,.013,0,.029,0,.043V53.883A3.6,3.6,0,0,0,6.61,57.545H31.227a1.57,1.57,0,0,1,0,3.138ZM35.835,6.8a3.6,3.6,0,0,0,3.537,3.661h3.476a8.824,8.824,0,0,0-2.406-4.708A8.519,8.519,0,0,0,35.835,3.3ZM10.958,42.962a1.739,1.739,0,0,1,0-3.478H25.435a1.739,1.739,0,0,1,0,3.478ZM43,32.961v-13.6a1.536,1.536,0,0,1,3.073,0v13.6a1.536,1.536,0,1,1-3.073,0Zm-32.045-.432a1.739,1.739,0,0,1,0-3.478H27.4a1.739,1.739,0,0,1,0,3.478Zm0-11.3a1.739,1.739,0,0,1,0-3.478h19.75a1.739,1.739,0,0,1,0,3.478Z" transform="translate(-266 153.977)" fill="#28ad2d" stroke="rgba(0,0,0,0)" stroke-miterlimit="10" stroke-width="1"/>
    <path id="white-line" d="M4154.093,5228h-8.21a1,1,0,0,1,0-2h8.21a1,1,0,0,1,0,2Z" transform="translate(-4371.302 -5022.453)" fill="#fff"/>
  </g>
</svg>
