<svg width="36" height="36" viewBox="0 0 36 36" fill="none" xmlns="http://www.w3.org/2000/svg">
<path fill-rule="evenodd" clip-rule="evenodd" d="M12.9694 8.469C13.039 8.39915 13.1218 8.34374 13.2129 8.30593C13.304 8.26812 13.4017 8.24866 13.5004 8.24866C13.599 8.24866 13.6967 8.26812 13.7878 8.30593C13.8789 8.34374 13.9617 8.39915 14.0314 8.469L23.0314 17.469C23.1012 17.5387 23.1566 17.6214 23.1944 17.7125C23.2322 17.8037 23.2517 17.9013 23.2517 18C23.2517 18.0986 23.2322 18.1963 23.1944 18.2874C23.1566 18.3786 23.1012 18.4613 23.0314 18.531L14.0314 27.531C13.8905 27.6718 13.6995 27.7509 13.5004 27.7509C13.3012 27.7509 13.1102 27.6718 12.9694 27.531C12.8285 27.3902 12.7494 27.1992 12.7494 27C12.7494 26.8008 12.8285 26.6098 12.9694 26.469L21.4399 18L12.9694 9.531C12.8995 9.46133 12.8441 9.37857 12.8063 9.28745C12.7685 9.19633 12.749 9.09865 12.749 9C12.749 8.90135 12.7685 8.80367 12.8063 8.71255C12.8441 8.62143 12.8995 8.53867 12.9694 8.469Z" fill="#262E42"/>
<path d="M18 35C8.61116 35 1 27.3888 1 18H-1C-1 28.4934 7.50659 37 18 37V35ZM35 18C35 27.3888 27.3888 35 18 35V37C28.4934 37 37 28.4934 37 18H35ZM18 1C27.3888 1 35 8.61116 35 18H37C37 7.50659 28.4934 -1 18 -1V1ZM18 -1C7.50659 -1 -1 7.50659 -1 18H1C1 8.61116 8.61116 1 18 1V-1Z" fill="#262E42"/>
</svg>
