<svg xmlns="http://www.w3.org/2000/svg" xmlns:xlink="http://www.w3.org/1999/xlink" viewBox="0 0 16 16">
  <defs>
    <clipPath id="clip-schedule">
      <rect width="16" height="16"/>
    </clipPath>
  </defs>
  <g id="schedule" clip-path="url(#clip-schedule)">
    <path id="_33c8f712f39774bab3f9b28c59d4b083" data-name="33c8f712f39774bab3f9b28c59d4b083" d="M12.688,1.2h-1.2V1.094a1.094,1.094,0,1,0-2.187,0V1.2H4.7V1.094a1.094,1.094,0,1,0-2.187,0V1.2h-1.2A1.313,1.313,0,0,0,0,2.516v8.969A1.313,1.313,0,0,0,1.312,12.8H12.688A1.313,1.313,0,0,0,14,11.484V2.516A1.313,1.313,0,0,0,12.688,1.2Zm-2.516-.109a.219.219,0,0,1,.438,0V2.406a.219.219,0,0,1-.437,0Zm-6.781,0a.219.219,0,0,1,.438,0V2.406a.219.219,0,0,1-.437,0Zm9.734,10.391a.438.438,0,0,1-.437.438H1.313a.438.438,0,0,1-.437-.437V4.813h12.25Zm0-7.547H.875V2.516a.438.438,0,0,1,.438-.437h1.2v.328a1.094,1.094,0,0,0,2.188,0V2.078H9.3v.328a1.094,1.094,0,0,0,2.188,0V2.078h1.2a.438.438,0,0,1,.438.438Z" transform="translate(1 1.5)"/>
  </g>
</svg>
