<svg xmlns="http://www.w3.org/2000/svg" xmlns:xlink="http://www.w3.org/1999/xlink" viewBox="0 0 16 16">
  <defs>
    <clipPath id="clip-share">
      <rect width="16" height="16"/>
    </clipPath>
  </defs>
  <g id="share" clip-path="url(#clip-share)">
    <path id="Union_1" data-name="Union 1" d="M.482,12H-5.882A3.057,3.057,0,0,1-9,9.016V2.384A3.056,3.056,0,0,1-5.882-.6h3.755a.573.573,0,0,1,.573.573.573.573,0,0,1-.573.573H-5.882A1.911,1.911,0,0,0-7.855,2.384V9.016a1.911,1.911,0,0,0,1.973,1.838H.482A1.911,1.911,0,0,0,2.455,9.016V5.127a.573.573,0,0,1,1.145,0V9.016A3.057,3.057,0,0,1,.545,12ZM-4.595,7.6a.7.7,0,0,1,0-.99L2.61-.6H-.6a.7.7,0,0,1-.7-.7A.7.7,0,0,1-.6-2H4.3a.657.657,0,0,1,.266.057A.718.718,0,0,1,5-1.3V3.6a.7.7,0,1,1-1.4,0V.39L-3.605,7.6A.7.7,0,0,1-4.1,7.8.7.7,0,0,1-4.595,7.6Z" transform="translate(10.016 3.171)"/>
  </g>
</svg>
