<svg xmlns="http://www.w3.org/2000/svg" xmlns:xlink="http://www.w3.org/1999/xlink" viewBox="0 0 16 16">
  <defs>
    <clipPath id="clip-sidebar">
      <rect width="16" height="16"/>
    </clipPath>
  </defs>
  <g id="sidebar" clip-path="url(#clip-sidebar)">
    <path id="_4c968c3ff2b538ef2cc06dd7a390db77" data-name="4c968c3ff2b538ef2cc06dd7a390db77" d="M12.667,1H3.333A2.333,2.333,0,0,0,1,3.333v9.333A2.333,2.333,0,0,0,3.333,15h9.333A2.333,2.333,0,0,0,15,12.667V3.333A2.333,2.333,0,0,0,12.667,1ZM5.2,8.467H3.333a.467.467,0,1,1,0-.933H5.2a.467.467,0,0,1,0,.933Zm0-2.333H3.333a.467.467,0,1,1,0-.933H5.2a.467.467,0,0,1,0,.933ZM5.2,3.8H3.333a.467.467,0,1,1,0-.933H5.2a.467.467,0,0,1,0,.933Zm8.867,8.867a1.4,1.4,0,0,1-1.4,1.4H7.533V1.933h5.133a1.4,1.4,0,0,1,1.4,1.4Z"/>
  </g>
</svg>
