<svg width="16" height="16" viewBox="0 0 16 16" fill="none" xmlns="http://www.w3.org/2000/svg">
<g clip-path="url(#clip0_3543_13882)">
<path fill-rule="evenodd" clip-rule="evenodd" d="M8 15C9.85652 15 11.637 14.2625 12.9497 12.9497C14.2625 11.637 15 9.85652 15 8C15 6.14348 14.2625 4.36301 12.9497 3.05025C11.637 1.7375 9.85652 1 8 1C6.14348 1 4.36301 1.7375 3.05025 3.05025C1.7375 4.36301 1 6.14348 1 8C1 9.85652 1.7375 11.637 3.05025 12.9497C4.36301 14.2625 6.14348 15 8 15ZM8 16C10.1217 16 12.1566 15.1571 13.6569 13.6569C15.1571 12.1566 16 10.1217 16 8C16 5.87827 15.1571 3.84344 13.6569 2.34315C12.1566 0.842855 10.1217 0 8 0C5.87827 0 3.84344 0.842855 2.34315 2.34315C0.842855 3.84344 0 5.87827 0 8C0 10.1217 0.842855 12.1566 2.34315 13.6569C3.84344 15.1571 5.87827 16 8 16Z" fill="#77A614"/>
<path fill-rule="evenodd" clip-rule="evenodd" d="M12.3535 4.97982C12.5488 5.17508 12.5488 5.49167 12.3535 5.68693L7.0202 11.0203C6.82494 11.2155 6.50836 11.2155 6.31309 11.0203L3.97976 8.68693C3.7845 8.49167 3.7845 8.17508 3.97976 7.97982C4.17502 7.78456 4.4916 7.78456 4.68687 7.97982L6.66665 9.9596L11.6464 4.97982C11.8417 4.78456 12.1583 4.78456 12.3535 4.97982Z" fill="#77A614"/>
</g>
<defs>
<clipPath id="clip0_3543_13882">
<rect width="16" height="16" fill="white"/>
</clipPath>
</defs>
</svg>
