<svg xmlns="http://www.w3.org/2000/svg" xmlns:xlink="http://www.w3.org/1999/xlink" width="16" height="16" viewBox="0 0 16 16">
  <defs>
    <clipPath id="clip-unpublished">
      <rect width="16" height="16"/>
    </clipPath>
  </defs>
  <g id="unpublished" clip-path="url(#clip-unpublished)">
    <path id="Union_33" data-name="Union 33" d="M1986.126-489a2.129,2.129,0,0,1-2.126-2.126v-5.428a1.8,1.8,0,0,1,1.705-1.8v-1.681a2.974,2.974,0,0,1,2.97-2.97,2.947,2.947,0,0,1,2.1.87,2.947,2.947,0,0,1,.87,2.1v1.681a1.8,1.8,0,0,1,1.705,1.8v5.428a2.128,2.128,0,0,1-2.126,2.126Zm-.744-7.554v5.428a.745.745,0,0,0,.744.744h5.1a.745.745,0,0,0,.745-.744v-5.428a.416.416,0,0,0-.415-.415H1985.8A.416.416,0,0,0,1985.382-496.554Zm4.883-1.8v-1.678a1.578,1.578,0,0,0-.465-1.123,1.579,1.579,0,0,0-1.124-.466,1.592,1.592,0,0,0-1.589,1.589v1.678Z" transform="translate(-1981 504)"/>
  </g>
</svg>
