<svg xmlns="http://www.w3.org/2000/svg" xmlns:xlink="http://www.w3.org/1999/xlink" viewBox="0 0 16 16">
  <defs>
    <clipPath id="clip-upload-attach">
      <rect width="16" height="16"/>
    </clipPath>
  </defs>
  <g id="upload-attach" clip-path="url(#clip-upload-attach)">
    <path id="ca442871750875a0b8cd4c6b4960538d" d="M9.5,8.3a.724.724,0,0,0-.994,0L7.1,9.7A.7.7,0,0,0,8.1,10.7l.2-.21V12.3a.7.7,0,1,0,1.4,0V10.487l.2.21A.7.7,0,1,0,10.9,9.7Zm4.4-3.7H9.5L9.28,3.9A2.1,2.1,0,0,0,7.292,2.5H4.1A2.1,2.1,0,0,0,2,4.6v9.1a2.1,2.1,0,0,0,2.1,2.1h9.8A2.1,2.1,0,0,0,16,13.7v-7A2.1,2.1,0,0,0,13.9,4.6Zm.7,9.1a.7.7,0,0,1-.7.7H4.1a.7.7,0,0,1-.7-.7V4.6a.7.7,0,0,1,.7-.7H7.292a.7.7,0,0,1,.665.476l.378,1.148A.7.7,0,0,0,9,6h4.9a.7.7,0,0,1,.7.7Z" transform="translate(-1 -1.15)"/>
  </g>
</svg>
