<svg xmlns="http://www.w3.org/2000/svg" xmlns:xlink="http://www.w3.org/1999/xlink" viewBox="0 0 16 16">
  <defs>
    <clipPath id="clip-upload">
      <rect width="16" height="16"/>
    </clipPath>
  </defs>
  <g id="upload" clip-path="url(#clip-upload)">
    <path id="fccd64d7547f815c4db5edd2d58b14f7" d="M13.9,7.6a.7.7,0,0,0-.7.7v2.366L12.164,9.63a1.953,1.953,0,0,0-2.751,0l-.49.5L7.187,8.384a1.953,1.953,0,0,0-2.751,0L3.4,9.427V5.5a.7.7,0,0,1,.7-.7H9.7a.7.7,0,0,0,0-1.4H4.1A2.1,2.1,0,0,0,2,5.5v8.554A1.953,1.953,0,0,0,3.946,16h8.708a2.016,2.016,0,0,0,.56-.084h0a1.918,1.918,0,0,0,1.4-1.855V8.3a.7.7,0,0,0-.714-.7Zm-9.8,7a.7.7,0,0,1-.7-.7V11.4L5.423,9.378a.546.546,0,0,1,.77,0L11.422,14.6Zm9.1-.7a.7.7,0,0,1-.126.378L9.91,11.1l.5-.49a.539.539,0,0,1,.77,0L13.2,12.647ZM15.3,3.4h-.7V2.7a.7.7,0,0,0-1.4,0v.7h-.7a.7.7,0,0,0,0,1.4h.7v.7a.7.7,0,1,0,1.4,0V4.8h.7a.7.7,0,0,0,0-1.4Z" transform="translate(-1 -1)"/>
  </g>
</svg>
