<svg xmlns="http://www.w3.org/2000/svg" viewBox="0 0 54.802 60.708">
  <path id="upload-file" d="M37.319,57.649a10.645,10.645,0,0,1,0-14.8,10.058,10.058,0,0,1,14.487,0,10.645,10.645,0,0,1,0,14.8,10.1,10.1,0,0,1-14.487,0ZM43,55.452a1.536,1.536,0,1,0,3.072,0v-6.7l1.484,1.517a1.463,1.463,0,0,0,2.15,0,1.539,1.539,0,0,0,0-2.2l-4.1-4.185a1.39,1.39,0,0,0-1.076-.472,1.457,1.457,0,0,0-1.075.472l-4.1,4.185a1.54,1.54,0,0,0,0,2.2,1.463,1.463,0,0,0,2.15,0L43,48.756ZM6.655,60.683A6.716,6.716,0,0,1,0,53.882V6.8A6.715,6.715,0,0,1,6.655,0H34.3a11.779,11.779,0,0,1,8.345,3.5,12.3,12.3,0,0,1,3.43,8.527c0,1.57-1.485,1.57-2.355,1.57h-4.3a6.715,6.715,0,0,1-6.655-6.8V3.139H6.655A3.6,3.6,0,0,0,3.072,6.8V53.882a3.6,3.6,0,0,0,3.584,3.662H31.227a1.57,1.57,0,0,1,0,3.139ZM35.835,6.8a3.6,3.6,0,0,0,3.583,3.662h3.43a8.825,8.825,0,0,0-2.406-4.709A8.517,8.517,0,0,0,35.835,3.3ZM10.957,42.962a1.739,1.739,0,0,1,0-3.477H25.434a1.739,1.739,0,0,1,0,3.477ZM43,32.957v-13.6a1.536,1.536,0,1,1,3.072,0v13.6a1.536,1.536,0,1,1-3.072,0Zm-32.045-.428a1.739,1.739,0,0,1,0-3.478H27.4a1.739,1.739,0,0,1,0,3.478Zm0-11.3a1.739,1.739,0,0,1,0-3.477H30.705a1.739,1.739,0,0,1,0,3.477Z" transform="translate(0 -0.001)" fill="#d9d9d9"/>
</svg>
