<svg xmlns="http://www.w3.org/2000/svg" xmlns:xlink="http://www.w3.org/1999/xlink" viewBox="0 0 24 24">
  <defs>
    <clipPath id="clip-warning">
      <rect width="24" height="24"/>
    </clipPath>
  </defs>
  <g id="warning" clip-path="url(#clip-warning)">
    <path id="diamond" d="M925.576,1151.573l10.554-10.554a1.4,1.4,0,0,1,1.977,0l10.554,10.554a1.4,1.4,0,0,1,0,1.977L938.106,1164.1a1.4,1.4,0,0,1-1.977,0l-10.554-10.554A1.4,1.4,0,0,1,925.576,1151.573Z" transform="translate(-925.165 -1140.608)" fill="#ffce00"/>
    <path id="exclamation" d="M773.943,347.329h-.12a.986.986,0,0,1-.974-.91l-.545-6.22a1.011,1.011,0,0,1,.252-.762.968.968,0,0,1,.721-.324h1.259a.963.963,0,0,1,.719.324,1,1,0,0,1,.249.761l-.575,6.216A1,1,0,0,1,773.943,347.329Zm-.057,1.286a1.262,1.262,0,0,1,.933.35,1.287,1.287,0,0,1,0,1.783,1.262,1.262,0,0,1-.933.35,1.279,1.279,0,0,1-.933-.35,1.3,1.3,0,0,1,0-1.775A1.263,1.263,0,0,1,773.886,348.615Z" transform="translate(-761.951 -333.153)" fill="#2f3b41"/>
  </g>
</svg>
