<svg xmlns="http://www.w3.org/2000/svg" xmlns:xlink="http://www.w3.org/1999/xlink" viewBox="0 0 16 16">
  <defs>
    <clipPath id="clip-widgets">
      <rect width="16" height="16"/>
    </clipPath>
  </defs>
  <g id="widgets" clip-path="url(#clip-widgets)">
    <path id="edca86be75aae7ce92481be674d02959" d="M1.274,7.651h5.6a.774.774,0,0,0,.774-.774v-5.6A.774.774,0,0,0,6.877.5h-5.6A.774.774,0,0,0,.5,1.274v5.6A.774.774,0,0,0,1.274,7.651Zm.774-5.6H6.1V6.1H2.048ZM16.5,1.274A.774.774,0,0,0,15.726.5h-5.6a.774.774,0,0,0-.774.774v5.6a.774.774,0,0,0,.774.774h5.6a.774.774,0,0,0,.774-.774ZM14.952,6.1H10.9V2.048h4.054ZM1.274,16.5h5.6a.774.774,0,0,0,.774-.774v-5.6a.774.774,0,0,0-.774-.774h-5.6a.774.774,0,0,0-.774.774v5.6A.774.774,0,0,0,1.274,16.5Zm.774-5.6H6.1v4.054H2.048ZM12.924,9.349A3.575,3.575,0,1,0,16.5,12.925,3.579,3.579,0,0,0,12.924,9.349Zm0,5.6a2.027,2.027,0,1,1,2.027-2.027A2.029,2.029,0,0,1,12.924,14.952Z" transform="translate(-0.5 -0.5)"/>
  </g>
</svg>
