<?xml version="1.0" encoding="UTF-8"?>
<svg width="318px" height="94px" viewBox="0 0 318 94" version="1.1" xmlns="http://www.w3.org/2000/svg" xmlns:xlink="http://www.w3.org/1999/xlink">
    <title>footage</title>
    <g id="Symbols" stroke="none" stroke-width="1" fill="none" fill-rule="evenodd">
        <g id="footage" transform="translate(-93.000000, -62.000000)">
            <text id="Formosa" font-family="RobotoCondensed-Light, Roboto Condensed" font-size="60" font-style="condensed" font-weight="300" fill="#FFFFFF">
                <tspan x="190" y="141">Formosa</tspan>
            </text>
            <g id="whale" transform="translate(107.000000, 73.000000)">
                <path d="M30.5294004,32.7603518 C25.2827051,32.7603518 21.0142734,28.4722881 21.0142734,23.2016277 C21.0142734,18.0783975 25.0441699,13.889162 30.0845391,13.6541403 C30.5663262,19.0091431 35.0575254,23.2199042 40.5114902,23.2199042 L46.7612461,23.2197688 L46.7612461,21.1898633 C46.7612461,17.4161127 44.9588906,14.0582532 42.1746328,11.9360177 C44.9358457,10.0980827 46.7612461,6.95019934 46.7612461,3.38087437 L46.7612461,0 L41.1147012,0 C35.5308223,0 30.9014883,4.17353121 30.148957,9.57794817 L30.0393926,9.57794817 L30.0393926,9.58282189 L29.6995137,9.58282189 C21.7665352,9.58282189 14.3082012,12.6863002 8.6987168,18.3214067 C3.08923242,23.9566486 0,31.4489142 0,39.4182631 C0,49.7140023 5.20747852,59.0947001 13.9300488,64.5115721 L21.6921445,69 L35.8026445,68.9699454 C45.9790664,68.9699454 69,60.653073 69,50.4301688 L69,46.4065046 L67.4487129,44.4241179 L69,42.2917288 L69,32.8529525 L30.5294004,32.7603518 Z" id="Path" fill="#08AB65" fill-rule="nonzero"></path>
                <path d="M21.4139352,69 L12.4044944,69 L12.4044944,64.7072858 C12.4044944,56.3736891 19.1310861,49.6179775 27.4287615,49.6179775 L36.4382022,49.6179775 L36.4382022,53.9106917 C36.4382022,62.2442884 29.7116106,69 21.4139352,69 Z" id="Path" fill="#17F596" fill-rule="nonzero"></path>
                <polygon id="Path" fill="#08AB65" fill-rule="nonzero" points="47.2921348 42.6404494 69 42.6404494 69 46.5168539 47.2921348 46.5168539"></polygon>
                <path d="M47.6434259,51.1685393 C47.5860852,61.010882 39.7998679,69 30.2359551,69 L51.5925292,69 C61.156442,69 68.9426593,61.010882 69,51.1685393 L47.6434259,51.1685393 Z" id="Path" fill="#A5FFD9" fill-rule="nonzero"></path>
                <path d="M47.3645693,51.1685393 C47.3345701,56.2385512 45.2264437,60.8162656 41.8651685,64.064125 L41.8651685,69 L51.3652367,69 C61.0540273,69 68.9419106,61.010882 69,51.1685393 L47.3645693,51.1685393 Z" id="Path" fill="#A5FFD9" fill-rule="nonzero"></path>
                <circle id="Oval" fill="#FFFFFF" cx="41.4775281" cy="44.5786517" r="1.93820225"></circle>
                <path d="M55.14073,51.1685393 C55.0692661,61.010882 45.371901,69 35.6629213,69 L45.1264915,69 C54.8353346,69 62.7395432,61.010882 62.7977528,51.1685393 L55.14073,51.1685393 Z" id="Path" fill="#FFFFFF" fill-rule="nonzero"></path>
                <path d="M55.0689726,51.1685393 C55.0129769,58.8124764 49.0960563,65.3375518 41.8651685,67.871567 L41.8651685,69 L44.9612044,69 C54.7608586,69 62.7389987,61.0109441 62.7977528,51.1685393 L55.0689726,51.1685393 L55.0689726,51.1685393 Z" id="Path" fill="#FFFFFF" fill-rule="nonzero"></path>
            </g>
        </g>
    </g>
</svg>