<?xml version="1.0" encoding="UTF-8"?>
<svg width="305px" height="83px" viewBox="0 0 305 83" version="1.1" xmlns="http://www.w3.org/2000/svg" xmlns:xlink="http://www.w3.org/1999/xlink">
    <title>formosa_logo_bgwhite</title>
    <g id="formosa_logo_bgwhite" stroke="none" stroke-width="1" fill="none" fill-rule="evenodd">
        <text id="Formosa" font-family="RobotoCondensed-Light, Roboto Condensed" font-size="60" font-style="condensed" font-weight="300" fill="#000000">
            <tspan x="98" y="68">Formosa</tspan>
        </text>
        <g id="whale">
            <path d="M36.7237715,39.4073796 C30.4125293,39.4073796 25.2780391,34.249274 25.2780391,27.9092044 C25.2780391,21.7464781 30.1255957,16.7072529 36.1886484,16.4245456 C36.7681895,22.8660707 42.1706465,27.9311891 48.7312129,27.9311891 L56.2490352,27.9310262 L56.2490352,25.4892558 C56.2490352,20.9498167 54.0809844,16.9106523 50.7318047,14.3578184 C54.0532637,12.146969 56.2490352,8.36038472 56.2490352,4.06684888 L56.2490352,0 L49.4568145,0 C42.7399746,0 37.1713555,5.02033465 36.2661367,11.5213 L36.1343418,11.5213 L36.1343418,11.5271626 L35.725502,11.5271626 C26.1829336,11.5271626 17.2113145,15.2603321 10.4636738,22.0387936 C3.7160332,28.8174179 0,37.8298533 0,47.4161716 C0,59.8009014 6.26406836,71.0849291 16.7564355,77.6008766 L26.0934492,83 L43.0669492,82.9638473 C55.3081523,82.9638473 83,72.9594936 83,60.662377 L83,55.8223171 L81.133959,53.437707 L83,50.8726593 L83,39.5187689 L36.7237715,39.4073796 Z" id="Path" fill="#08AB65" fill-rule="nonzero"></path>
            <path d="M25.7587916,83 L14.9213483,83 L14.9213483,77.8363003 C14.9213483,67.811829 23.0127557,59.6853933 32.9940174,59.6853933 L43.8314607,59.6853933 L43.8314607,64.8490929 C43.8314607,74.8735643 35.7400533,83 25.7587916,83 Z" id="Path" fill="#17F596" fill-rule="nonzero"></path>
            <polygon id="Path" fill="#08AB65" fill-rule="nonzero" points="56.8876404 51.2921348 83 51.2921348 83 55.9550562 56.8876404 55.9550562"></polygon>
            <path d="M57.3102079,61.5505618 C57.2412329,73.3899015 47.8752034,83 36.3707865,83 L62.0605786,83 C73.5649954,83 82.931025,73.3899015 83,61.5505618 L57.3102079,61.5505618 Z" id="Path" fill="#A5FFD9" fill-rule="nonzero"></path>
            <path d="M56.9747718,61.5505618 C56.9386857,67.6492717 54.4028236,73.1557978 50.3595506,77.0626431 L50.3595506,83 L61.7871688,83 C73.4418009,83 82.9301244,73.3899015 83,61.5505618 L56.9747718,61.5505618 Z" id="Path" fill="#A5FFD9" fill-rule="nonzero"></path>
            <circle id="Oval" fill="#FFFFFF" cx="49.8932584" cy="53.6235955" r="2.33146067"></circle>
            <path d="M66.3287043,61.5505618 C66.2427404,73.3899015 54.577794,83 42.8988764,83 L54.2825913,83 C65.9613445,83 75.4693056,73.3899015 75.5393258,61.5505618 L66.3287043,61.5505618 Z" id="Path" fill="#FFFFFF" fill-rule="nonzero"></path>
            <path d="M66.2423873,61.5505618 C66.1750302,70.7454427 59.057575,78.5944463 50.3595506,81.6426096 L50.3595506,83 L54.0837676,83 C65.8717574,83 75.4686507,73.3899762 75.5393258,61.5505618 L66.2423873,61.5505618 L66.2423873,61.5505618 Z" id="Path" fill="#FFFFFF" fill-rule="nonzero"></path>
        </g>
    </g>
</svg>