<svg xmlns="http://www.w3.org/2000/svg" xmlns:xlink="http://www.w3.org/1999/xlink" width="279.146" height="54" viewBox="0 0 279.146 54">
  <defs>
    <clipPath id="clip-path">
      <path id="Path_10" data-name="Path 10" d="M47.384,38.724a7.5,7.5,0,0,1-.389-14.984,8.242,8.242,0,0,0,8.173,7.492h4.865V29.676a8.894,8.894,0,0,0-3.6-7.2,8.117,8.117,0,0,0,3.6-6.714V13.135H55.654a8.7,8.7,0,0,0-8.562,7.492H46.7A23.288,23.288,0,0,0,34.346,63.632l6.032,3.5H51.47c7.978,0,25.978-6.519,25.978-14.5V49.524l-1.168-1.557,1.168-1.654V38.919l-30.065-.195Z" transform="translate(-22.962 -12.551)"/>
    </clipPath>
    <clipPath id="clip-path-2">
      <path id="Path_11" data-name="Path 11" d="M40.184,67.135H33.178V63.73a11.835,11.835,0,0,1,11.773-11.87h7.005v3.405a11.835,11.835,0,0,1-11.773,11.87Z" transform="translate(-32.595 -51.373)"/>
    </clipPath>
    <clipPath id="clip-path-3">
      <rect id="Rectangle_10" data-name="Rectangle 10" width="17.027" height="3.016" transform="translate(0.584 0.486)"/>
    </clipPath>
    <clipPath id="clip-path-4">
      <path id="Path_12" data-name="Path 12" d="M60.714,53.124A13.789,13.789,0,0,1,47.092,67.038H63.827A13.789,13.789,0,0,0,77.449,53.124H60.714Z" transform="translate(-46.605 -52.638)"/>
    </clipPath>
    <clipPath id="clip-path-5">
      <path id="Path_13" data-name="Path 13" d="M60.519,53.124a13.8,13.8,0,0,1-4.281,10.022v3.892h7.395A13.953,13.953,0,0,0,77.449,53.124H60.519Z" transform="translate(-55.751 -52.638)"/>
    </clipPath>
    <clipPath id="clip-path-6">
      <path id="Path_14" data-name="Path 14" d="M55.946,49.427a1.557,1.557,0,1,0-1.557-1.557,1.537,1.537,0,0,0,1.557,1.557Z" transform="translate(-53.805 -45.924)"/>
    </clipPath>
    <clipPath id="clip-path-7">
      <path id="Path_15" data-name="Path 15" d="M66.649,53.124c-.1,7.686-7.686,14.011-15.276,14.011h7.395A13.953,13.953,0,0,0,72.584,53.222H66.649Z" transform="translate(-50.886 -52.638)"/>
    </clipPath>
    <clipPath id="clip-path-8">
      <path id="Path_16" data-name="Path 16" d="M66.551,53.124c0,5.935-4.67,11.092-10.314,13.038v.973H58.67A13.911,13.911,0,0,0,72.584,53.222H66.551v-.1Z" transform="translate(-55.751 -52.638)"/>
    </clipPath>
  </defs>
  <g id="Group_19" data-name="Group 19" transform="translate(-500.427 -60)">
    <g id="Group_1" data-name="Group 1" transform="translate(476.978 46.865)">
      <path id="Path_1" data-name="Path 1" d="M89.416,60.519V26.757h18.778V28.7H91.362V42.616h14.011v1.946H91.362V60.422H89.416Z" fill="#fff"/>
      <path id="Path_2" data-name="Path 2" d="M122.108,61.2a10.993,10.993,0,0,1-6.324-1.751,10.476,10.476,0,0,1-3.892-4.768,18.7,18.7,0,0,1,0-14.011A9.929,9.929,0,0,1,115.881,36a11.648,11.648,0,0,1,6.227-1.654A11.52,11.52,0,0,1,128.432,36a10.74,10.74,0,0,1,3.892,4.67,17.152,17.152,0,0,1,1.362,6.908,17.3,17.3,0,0,1-1.362,7.005,10.311,10.311,0,0,1-3.892,4.67A9.99,9.99,0,0,1,122.108,61.2Zm0-1.946c3.211,0,5.546-1.07,7.1-3.211a13.649,13.649,0,0,0,2.335-8.27,13.451,13.451,0,0,0-2.335-8.27c-1.557-2.043-3.892-3.114-7.1-3.114a9.358,9.358,0,0,0-5.351,1.459,9.106,9.106,0,0,0-3.114,3.989,15.987,15.987,0,0,0-1.07,5.838c0,3.405.778,6.227,2.432,8.27A8.739,8.739,0,0,0,122.108,59.254Z" fill="#fff"/>
      <path id="Path_3" data-name="Path 3" d="M139.038,60.519v-25.3h1.849v6.032l-.584-.778a12.109,12.109,0,0,1,.973-1.946,9.566,9.566,0,0,1,1.168-1.459,6.967,6.967,0,0,1,2.432-1.557,7.33,7.33,0,0,1,2.822-.584,5.353,5.353,0,0,1,2.53.292V37.07a9.387,9.387,0,0,0-3.308-.1,6.286,6.286,0,0,0-3.308,1.654,6.479,6.479,0,0,0-1.849,2.822,13.352,13.352,0,0,0-.681,3.308c-.1,1.168-.1,2.238-.1,3.308V60.519h-1.946Z" fill="#fff"/>
      <path id="Path_4" data-name="Path 4" d="M154.995,60.519v-25.3h1.849v5.157h.1V60.519Zm14.984,0V43.395a6.991,6.991,0,0,0-1.849-5.157,6.39,6.39,0,0,0-4.67-1.946,6.043,6.043,0,0,0-4.768,2.043,7.47,7.47,0,0,0-1.849,5.351l-1.751-.778a9.111,9.111,0,0,1,1.07-4.378,8.944,8.944,0,0,1,3.016-3.016,9.717,9.717,0,0,1,8.465-.195,7.006,7.006,0,0,1,3.016,2.822,9.236,9.236,0,0,1,1.168,4.865V60.422h-1.849Zm15.081,0V43.1a6.39,6.39,0,0,0-1.849-4.962,6.475,6.475,0,0,0-4.573-1.849,6.8,6.8,0,0,0-3.016.681,5.828,5.828,0,0,0-2.53,2.335,8.213,8.213,0,0,0-1.07,4.476H170.27a9.694,9.694,0,0,1,.973-4.865,7.994,7.994,0,0,1,3.016-3.211,8.529,8.529,0,0,1,4.476-1.168,8.313,8.313,0,0,1,5.935,2.238,8.217,8.217,0,0,1,2.335,6.227V60.616h-1.946Z" fill="#fff"/>
      <path id="Path_5" data-name="Path 5" d="M203.546,61.2a10.993,10.993,0,0,1-6.324-1.751,10.476,10.476,0,0,1-3.892-4.768,18.7,18.7,0,0,1,0-14.011A9.929,9.929,0,0,1,197.319,36a11.648,11.648,0,0,1,6.227-1.654A11.52,11.52,0,0,1,209.87,36a10.74,10.74,0,0,1,3.892,4.67,17.152,17.152,0,0,1,1.362,6.908,17.3,17.3,0,0,1-1.362,7.005,10.311,10.311,0,0,1-3.892,4.67A9.99,9.99,0,0,1,203.546,61.2Zm0-1.946c3.211,0,5.546-1.07,7.1-3.211a13.649,13.649,0,0,0,2.335-8.27,13.451,13.451,0,0,0-2.335-8.27,8.474,8.474,0,0,0-7.1-3.114,9.358,9.358,0,0,0-5.351,1.459,9.106,9.106,0,0,0-3.114,3.989,15.987,15.987,0,0,0-1.07,5.838c0,3.405.778,6.227,2.432,8.27A8.224,8.224,0,0,0,203.546,59.254Z" fill="#fff"/>
      <path id="Path_6" data-name="Path 6" d="M229.719,61.2a13.252,13.252,0,0,1-7.1-1.751,7.66,7.66,0,0,1-3.5-4.962l2.043-.389a6.194,6.194,0,0,0,2.919,3.795,10.686,10.686,0,0,0,5.741,1.362,9.053,9.053,0,0,0,5.449-1.459,4.683,4.683,0,0,0,2.043-3.989,4.031,4.031,0,0,0-.584-2.238,4.446,4.446,0,0,0-2.335-1.557,38.332,38.332,0,0,0-5.254-1.654,33.561,33.561,0,0,1-5.643-1.946,6.624,6.624,0,0,1-2.822-2.043,4.575,4.575,0,0,1-.778-2.822,5.9,5.9,0,0,1,1.168-3.6,7.748,7.748,0,0,1,3.308-2.432,13.791,13.791,0,0,1,9.924.1,9.193,9.193,0,0,1,3.6,2.53,6.623,6.623,0,0,1,1.557,3.795l-2.043.389a6.071,6.071,0,0,0-2.724-4.184,9.626,9.626,0,0,0-5.643-1.557,9.214,9.214,0,0,0-5.157,1.265,4,4,0,0,0-2.043,3.5,3.054,3.054,0,0,0,.681,2.043,6.478,6.478,0,0,0,2.335,1.557,33.971,33.971,0,0,0,4.67,1.459,38.482,38.482,0,0,1,5.935,1.946,7.073,7.073,0,0,1,3.016,2.335,5.658,5.658,0,0,1,.876,3.211,6.472,6.472,0,0,1-2.627,5.449A12,12,0,0,1,229.719,61.2Z" fill="#fff"/>
      <path id="Path_7" data-name="Path 7" d="M242.465,60.519l12.259-33.762h2.141l12.259,33.762h-2.141L255.016,27.632h1.362l-11.87,32.886Zm4.67-8.757V49.914h17.222v1.849Z" fill="#fff"/>
      <path id="Path_8" data-name="Path 8" d="M273.6,60.519v-25.3h1.849v6.032l-.584-.778a12.109,12.109,0,0,1,.973-1.946,9.564,9.564,0,0,1,1.168-1.459,6.967,6.967,0,0,1,2.432-1.557,7.33,7.33,0,0,1,2.822-.584,5.353,5.353,0,0,1,2.53.292V37.07a9.387,9.387,0,0,0-3.308-.1,6.287,6.287,0,0,0-3.308,1.654,6.479,6.479,0,0,0-1.849,2.822,13.351,13.351,0,0,0-.681,3.308c-.1,1.168-.1,2.238-.1,3.308V60.519H273.6Z" fill="#fff"/>
      <path id="Path_9" data-name="Path 9" d="M286.735,37.168V35.222h15.859v1.946Zm15.859,23.351a12.514,12.514,0,0,1-3.795.292,8.727,8.727,0,0,1-3.308-.876,5,5,0,0,1-2.141-2.335,5.992,5.992,0,0,1-.584-2.53c0-.876-.1-1.849-.1-2.919V28.216h1.946V54.778a4.786,4.786,0,0,0,.486,1.946,3.486,3.486,0,0,0,2.627,2.043,15.953,15.953,0,0,0,4.768-.1v1.849Z" fill="#fff"/>
    </g>
    <g id="Group_18" data-name="Group 18" transform="translate(476.978 46.865)">
      <g id="Group_3" data-name="Group 3">
        <g id="Group_2" data-name="Group 2" transform="translate(22.962 12.551)" clip-path="url(#clip-path)">
          <rect id="Rectangle_7" data-name="Rectangle 7" width="55.07" height="55.07" fill="#00a964"/>
        </g>
      </g>
      <g id="Group_5" data-name="Group 5">
        <g id="Group_4" data-name="Group 4" transform="translate(32.595 51.373)" clip-path="url(#clip-path-2)">
          <rect id="Rectangle_8" data-name="Rectangle 8" width="19.849" height="16.249" fill="#1af495"/>
        </g>
      </g>
      <g id="Group_7" data-name="Group 7">
        <g id="Group_6" data-name="Group 6" transform="translate(59.935 45.924)" clip-path="url(#clip-path-3)">
          <rect id="Rectangle_9" data-name="Rectangle 9" width="18" height="4.086" fill="#00a964"/>
        </g>
      </g>
      <g id="Group_9" data-name="Group 9">
        <g id="Group_8" data-name="Group 8" transform="translate(46.605 52.638)" clip-path="url(#clip-path-4)">
          <rect id="Rectangle_11" data-name="Rectangle 11" width="31.427" height="14.984" fill="#a4fdd8"/>
        </g>
      </g>
      <g id="Group_11" data-name="Group 11">
        <g id="Group_10" data-name="Group 10" transform="translate(55.751 52.638)" clip-path="url(#clip-path-5)">
          <rect id="Rectangle_12" data-name="Rectangle 12" width="22.281" height="14.984" fill="#a4fdd8"/>
        </g>
      </g>
      <g id="Group_13" data-name="Group 13">
        <g id="Group_12" data-name="Group 12" transform="translate(53.805 45.924)" clip-path="url(#clip-path-6)">
          <rect id="Rectangle_13" data-name="Rectangle 13" width="4.086" height="4.086" fill="#fff"/>
        </g>
      </g>
      <g id="Group_15" data-name="Group 15">
        <g id="Group_14" data-name="Group 14" transform="translate(50.886 52.638)" clip-path="url(#clip-path-7)">
          <rect id="Rectangle_14" data-name="Rectangle 14" width="22.281" height="14.984" fill="#fff"/>
        </g>
      </g>
      <g id="Group_17" data-name="Group 17">
        <g id="Group_16" data-name="Group 16" transform="translate(55.751 52.638)" clip-path="url(#clip-path-8)">
          <rect id="Rectangle_15" data-name="Rectangle 15" width="17.416" height="14.984" fill="#fff"/>
        </g>
      </g>
    </g>
  </g>
</svg>
